  0
SECTION
  2
HEADER
  9
$ACADVER
  1
AC1024
  9
$ACADMAINTVER
 70
6
  9
$DWGCODEPAGE
  3
ANSI_1252
  9
$LASTSAVEDBY
  1
ezdxf
  9
$INSBASE
 10
0.0
 20
0.0
 30
0.0
  9
$EXTMIN
 10
1e+20
 20
1e+20
 30
1e+20
  9
$EXTMAX
 10
-1e+20
 20
-1e+20
 30
-1e+20
  9
$LIMMIN
 10
0.0
 20
0.0
  9
$LIMMAX
 10
420.0
 20
297.0
  9
$ORTHOMODE
 70
0
  9
$REGENMODE
 70
1
  9
$FILLMODE
 70
1
  9
$QTEXTMODE
 70
0
  9
$MIRRTEXT
 70
1
  9
$LTSCALE
 40
1.0
  9
$ATTMODE
 70
1
  9
$TEXTSIZE
 40
2.5
  9
$TRACEWID
 40
1.0
  9
$TEXTSTYLE
  7
Standard
  9
$CLAYER
  8
0
  9
$CELTYPE
  6
ByLayer
  9
$CECOLOR
 62
256
  9
$CELTSCALE
 40
1.0
  9
$DISPSILH
 70
0
  9
$DIMSCALE
 40
1.0
  9
$DIMASZ
 40
2.5
  9
$DIMEXO
 40
0.625
  9
$DIMDLI
 40
3.75
  9
$DIMRND
 40
0.0
  9
$DIMDLE
 40
0.0
  9
$DIMEXE
 40
1.25
  9
$DIMTP
 40
0.0
  9
$DIMTM
 40
0.0
  9
$DIMTXT
 40
2.5
  9
$DIMCEN
 40
2.5
  9
$DIMTSZ
 40
0.0
  9
$DIMTOL
 70
0
  9
$DIMLIM
 70
0
  9
$DIMTIH
 70
0
  9
$DIMTOH
 70
0
  9
$DIMSE1
 70
0
  9
$DIMSE2
 70
0
  9
$DIMTAD
 70
1
  9
$DIMZIN
 70
8
  9
$DIMBLK
  1

  9
$DIMASO
 70
1
  9
$DIMSHO
 70
1
  9
$DIMPOST
  1

  9
$DIMAPOST
  1

  9
$DIMALT
 70
0
  9
$DIMALTD
 70
3
  9
$DIMALTF
 40
0.03937007874
  9
$DIMLFAC
 40
1.0
  9
$DIMTOFL
 70
1
  9
$DIMTVP
 40
0.0
  9
$DIMTIX
 70
0
  9
$DIMSOXD
 70
0
  9
$DIMSAH
 70
0
  9
$DIMBLK1
  1

  9
$DIMBLK2
  1

  9
$DIMSTYLE
  2
ISO-25
  9
$DIMCLRD
 70
0
  9
$DIMCLRE
 70
0
  9
$DIMCLRT
 70
0
  9
$DIMTFAC
 40
1.0
  9
$DIMGAP
 40
0.625
  9
$DIMJUST
 70
0
  9
$DIMSD1
 70
0
  9
$DIMSD2
 70
0
  9
$DIMTOLJ
 70
0
  9
$DIMTZIN
 70
8
  9
$DIMALTZ
 70
0
  9
$DIMALTTZ
 70
0
  9
$DIMUPT
 70
0
  9
$DIMDEC
 70
2
  9
$DIMTDEC
 70
2
  9
$DIMALTU
 70
2
  9
$DIMALTTD
 70
3
  9
$DIMTXSTY
  7
Standard
  9
$DIMAUNIT
 70
0
  9
$DIMADEC
 70
0
  9
$DIMALTRND
 40
0.0
  9
$DIMAZIN
 70
0
  9
$DIMDSEP
 70
44
  9
$DIMATFIT
 70
3
  9
$DIMFRAC
 70
0
  9
$DIMLDRBLK
  1

  9
$DIMLUNIT
 70
2
  9
$DIMLWD
 70
-2
  9
$DIMLWE
 70
-2
  9
$DIMTMOVE
 70
0
  9
$DIMFXL
 40
1.0
  9
$DIMFXLON
 70
0
  9
$DIMJOGANG
 40
0.785398163397
  9
$DIMTFILL
 70
0
  9
$DIMTFILLCLR
 70
0
  9
$DIMARCSYM
 70
0
  9
$DIMLTYPE
  6

  9
$DIMLTEX1
  6

  9
$DIMLTEX2
  6

  9
$DIMTXTDIRECTION
 70
0
  9
$LUNITS
 70
2
  9
$LUPREC
 70
4
  9
$SKETCHINC
 40
1.0
  9
$FILLETRAD
 40
10.0
  9
$AUNITS
 70
0
  9
$AUPREC
 70
2
  9
$MENU
  1
.
  9
$ELEVATION
 40
0.0
  9
$PELEVATION
 40
0.0
  9
$THICKNESS
 40
0.0
  9
$LIMCHECK
 70
0
  9
$CHAMFERA
 40
0.0
  9
$CHAMFERB
 40
0.0
  9
$CHAMFERC
 40
0.0
  9
$CHAMFERD
 40
0.0
  9
$SKPOLY
 70
0
  9
$TDCREATE
 40
2460000.0
  9
$TDUCREATE
 40
2458532.153996898
  9
$TDUPDATE
 40
2461312.1398958336
  9
$TDUUPDATE
 40
2458532.1544311
  9
$TDINDWG
 40
0.0
  9
$TDUSRTIMER
 40
0.0
  9
$USRTIMER
 70
1
  9
$ANGBASE
 50
0.0
  9
$ANGDIR
 70
0
  9
$PDMODE
 70
0
  9
$PDSIZE
 40
0.0
  9
$PLINEWID
 40
0.0
  9
$SPLFRAME
 70
0
  9
$SPLINETYPE
 70
6
  9
$SPLINESEGS
 70
8
  9
$HANDSEED
  5
4B
  9
$SURFTAB1
 70
6
  9
$SURFTAB2
 70
6
  9
$SURFTYPE
 70
6
  9
$SURFU
 70
6
  9
$SURFV
 70
6
  9
$UCSBASE
  2

  9
$UCSNAME
  2

  9
$UCSORG
 10
0.0
 20
0.0
 30
0.0
  9
$UCSXDIR
 10
1.0
 20
0.0
 30
0.0
  9
$UCSYDIR
 10
0.0
 20
1.0
 30
0.0
  9
$UCSORTHOREF
  2

  9
$UCSORTHOVIEW
 70
0
  9
$UCSORGTOP
 10
0.0
 20
0.0
 30
0.0
  9
$UCSORGBOTTOM
 10
0.0
 20
0.0
 30
0.0
  9
$UCSORGLEFT
 10
0.0
 20
0.0
 30
0.0
  9
$UCSORGRIGHT
 10
0.0
 20
0.0
 30
0.0
  9
$UCSORGFRONT
 10
0.0
 20
0.0
 30
0.0
  9
$UCSORGBACK
 10
0.0
 20
0.0
 30
0.0
  9
$PUCSBASE
  2

  9
$PUCSNAME
  2

  9
$PUCSORG
 10
0.0
 20
0.0
 30
0.0
  9
$PUCSXDIR
 10
1.0
 20
0.0
 30
0.0
  9
$PUCSYDIR
 10
0.0
 20
1.0
 30
0.0
  9
$PUCSORTHOREF
  2

  9
$PUCSORTHOVIEW
 70
0
  9
$PUCSORGTOP
 10
0.0
 20
0.0
 30
0.0
  9
$PUCSORGBOTTOM
 10
0.0
 20
0.0
 30
0.0
  9
$PUCSORGLEFT
 10
0.0
 20
0.0
 30
0.0
  9
$PUCSORGRIGHT
 10
0.0
 20
0.0
 30
0.0
  9
$PUCSORGFRONT
 10
0.0
 20
0.0
 30
0.0
  9
$PUCSORGBACK
 10
0.0
 20
0.0
 30
0.0
  9
$USERI1
 70
0
  9
$USERI2
 70
0
  9
$USERI3
 70
0
  9
$USERI4
 70
0
  9
$USERI5
 70
0
  9
$USERR1
 40
0.0
  9
$USERR2
 40
0.0
  9
$USERR3
 40
0.0
  9
$USERR4
 40
0.0
  9
$USERR5
 40
0.0
  9
$WORLDVIEW
 70
1
  9
$SHADEDGE
 70
3
  9
$SHADEDIF
 70
70
  9
$TILEMODE
 70
1
  9
$MAXACTVP
 70
64
  9
$PINSBASE
 10
0.0
 20
0.0
 30
0.0
  9
$PLIMCHECK
 70
0
  9
$PEXTMIN
 10
1e+20
 20
1e+20
 30
1e+20
  9
$PEXTMAX
 10
-1e+20
 20
-1e+20
 30
-1e+20
  9
$PLIMMIN
 10
0.0
 20
0.0
  9
$PLIMMAX
 10
420.0
 20
297.0
  9
$UNITMODE
 70
0
  9
$VISRETAIN
 70
1
  9
$PLINEGEN
 70
0
  9
$PSLTSCALE
 70
1
  9
$TREEDEPTH
 70
3020
  9
$CMLSTYLE
  2
Standard
  9
$CMLJUST
 70
0
  9
$CMLSCALE
 40
20.0
  9
$PROXYGRAPHICS
 70
1
  9
$MEASUREMENT
 70
1
  9
$CELWEIGHT
370
-1
  9
$ENDCAPS
280
0
  9
$JOINSTYLE
280
0
  9
$LWDISPLAY
290
0
  9
$INSUNITS
 70
4
  9
$HYPERLINKBASE
  1

  9
$STYLESHEET
  1

  9
$XEDIT
290
1
  9
$CEPSNTYPE
380
0
  9
$PSTYLEMODE
290
1
  9
$FINGERPRINTGUID
  2
{2BB8EFF8-8FB5-4B01-BED6-AC469852D744}
  9
$VERSIONGUID
  2
{50EDD289-5F07-458D-89C1-B02F94E630A4}
  9
$EXTNAMES
290
1
  9
$PSVPSCALE
 40
0.0
  9
$OLESTARTUP
290
0
  9
$SORTENTS
280
127
  9
$INDEXCTL
280
0
  9
$HIDETEXT
280
1
  9
$XCLIPFRAME
280
1
  9
$HALOGAP
280
0
  9
$OBSCOLOR
 70
257
  9
$OBSLTYPE
280
0
  9
$INTERSECTIONDISPLAY
280
0
  9
$INTERSECTIONCOLOR
 70
257
  9
$DIMASSOC
280
2
  9
$PROJECTNAME
  1

  9
$CAMERADISPLAY
290
0
  9
$LENSLENGTH
 40
50.0
  9
$CAMERAHEIGHT
 40
0.0
  9
$STEPSPERSEC
 40
24.0
  9
$STEPSIZE
 40
100.0
  9
$3DDWFPREC
 40
2.0
  9
$PSOLWIDTH
 40
0.005
  9
$PSOLHEIGHT
 40
0.08
  9
$LOFTANG1
 40
1.570796326795
  9
$LOFTANG2
 40
1.570796326795
  9
$LOFTMAG1
 40
0.0
  9
$LOFTMAG2
 40
0.0
  9
$LOFTPARAM
 70
7
  9
$LOFTNORMALS
280
1
  9
$LATITUDE
 40
37.795
  9
$LONGITUDE
 40
-122.394
  9
$NORTHDIRECTION
 40
0.0
  9
$TIMEZONE
 70
-8000
  9
$LIGHTGLYPHDISPLAY
280
1
  9
$TILEMODELIGHTSYNCH
280
1
  9
$CMATERIAL
347
20
  9
$SOLIDHIST
280
0
  9
$SHOWHIST
280
1
  9
$DWFFRAME
280
2
  9
$DGNFRAME
280
2
  9
$REALWORLDSCALE
290
1
  9
$INTERFERECOLOR
 62
256
  9
$CSHADOW
280
0
  9
$SHADOWPLANELOCATION
 40
0.0
  0
ENDSEC
  0
SECTION
  2
CLASSES
  0
CLASS
  1
ACDBDICTIONARYWDFLT
  2
AcDbDictionaryWithDefault
  3
ObjectDBX Classes
 90
0
 91
0
280
0
281
0
  0
CLASS
  1
SUN
  2
AcDbSun
  3
SCENEOE
 90
1153
 91
0
280
0
281
0
  0
CLASS
  1
VISUALSTYLE
  2
AcDbVisualStyle
  3
ObjectDBX Classes
 90
4095
 91
0
280
0
281
0
  0
CLASS
  1
MATERIAL
  2
AcDbMaterial
  3
ObjectDBX Classes
 90
1153
 91
0
280
0
281
0
  0
CLASS
  1
SCALE
  2
AcDbScale
  3
ObjectDBX Classes
 90
1153
 91
0
280
0
281
0
  0
CLASS
  1
TABLESTYLE
  2
AcDbTableStyle
  3
ObjectDBX Classes
 90
4095
 91
0
280
0
281
0
  0
CLASS
  1
MLEADERSTYLE
  2
AcDbMLeaderStyle
  3
ACDB_MLEADERSTYLE_CLASS
 90
4095
 91
0
280
0
281
0
  0
CLASS
  1
DICTIONARYVAR
  2
AcDbDictionaryVar
  3
ObjectDBX Classes
 90
0
 91
0
280
0
281
0
  0
CLASS
  1
CELLSTYLEMAP
  2
AcDbCellStyleMap
  3
ObjectDBX Classes
 90
1152
 91
0
280
0
281
0
  0
CLASS
  1
MENTALRAYRENDERSETTINGS
  2
AcDbMentalRayRenderSettings
  3
SCENEOE
 90
1024
 91
0
280
0
281
0
  0
CLASS
  1
ACDBDETAILVIEWSTYLE
  2
AcDbDetailViewStyle
  3
ObjectDBX Classes
 90
1025
 91
0
280
0
281
0
  0
CLASS
  1
ACDBSECTIONVIEWSTYLE
  2
AcDbSectionViewStyle
  3
ObjectDBX Classes
 90
1025
 91
0
280
0
281
0
  0
CLASS
  1
RASTERVARIABLES
  2
AcDbRasterVariables
  3
ISM
 90
0
 91
0
280
0
281
0
  0
CLASS
  1
ACDBPLACEHOLDER
  2
AcDbPlaceHolder
  3
ObjectDBX Classes
 90
0
 91
0
280
0
281
0
  0
CLASS
  1
LAYOUT
  2
AcDbLayout
  3
ObjectDBX Classes
 90
0
 91
0
280
0
281
0
  0
ENDSEC
  0
SECTION
  2
TABLES
  0
TABLE
  2
VPORT
  5
8
330
0
100
AcDbSymbolTable
 70
1
  0
VPORT
  5
23
330
8
100
AcDbSymbolTableRecord
100
AcDbViewportTableRecord
  2
*Active
 70
0
 10
0.0
 20
0.0
 11
1.0
 21
1.0
 12
0.0
 22
0.0
 13
0.0
 23
0.0
 14
0.5
 24
0.5
 15
0.5
 25
0.5
 16
0.0
 26
0.0
 36
1.0
 17
0.0
 27
0.0
 37
0.0
 40
1000.0
 41
1.34
 42
50.0
 43
0.0
 44
0.0
 50
0.0
 51
0.0
 71
0
 72
1000
 73
1
 74
3
 75
0
 76
0
 77
0
 78
0
281
0
 65
0
146
0.0
  0
ENDTAB
  0
TABLE
  2
LTYPE
  5
2
330
0
100
AcDbSymbolTable
 70
3
  0
LTYPE
  5
24
330
2
100
AcDbSymbolTableRecord
100
AcDbLinetypeTableRecord
  2
ByBlock
 70
0
  3

 72
65
 73
0
 40
0.0
  0
LTYPE
  5
25
330
2
100
AcDbSymbolTableRecord
100
AcDbLinetypeTableRecord
  2
ByLayer
 70
0
  3

 72
65
 73
0
 40
0.0
  0
LTYPE
  5
26
330
2
100
AcDbSymbolTableRecord
100
AcDbLinetypeTableRecord
  2
Continuous
 70
0
  3

 72
65
 73
0
 40
0.0
  0
ENDTAB
  0
TABLE
  2
LAYER
  5
1
330
0
100
AcDbSymbolTable
 70
8
  0
LAYER
  5
27
330
1
100
AcDbSymbolTableRecord
100
AcDbLayerTableRecord
  2
0
 70
0
 62
7
  6
Continuous
370
-3
390
13
347
21
  0
LAYER
  5
28
330
1
100
AcDbSymbolTableRecord
100
AcDbLayerTableRecord
  2
Defpoints
 70
0
 62
7
  6
Continuous
290
0
370
-3
390
13
347
21
  0
LAYER
  5
2F
330
1
100
AcDbSymbolTableRecord
100
AcDbLayerTableRecord
  2
CUT
 70
0
 62
7
  6
Continuous
370
-3
390
13
347
21
  0
LAYER
  5
30
330
1
100
AcDbSymbolTableRecord
100
AcDbLayerTableRecord
  2
SEW
 70
0
 62
7
  6
Continuous
370
-3
390
13
347
21
  0
LAYER
  5
31
330
1
100
AcDbSymbolTableRecord
100
AcDbLayerTableRecord
  2
FEATURE
 70
0
 62
7
  6
Continuous
370
-3
390
13
347
21
  0
LAYER
  5
32
330
1
100
AcDbSymbolTableRecord
100
AcDbLayerTableRecord
  2
TAPE
 70
0
 62
7
  6
Continuous
370
-3
390
13
347
21
  0
LAYER
  5
33
330
1
100
AcDbSymbolTableRecord
100
AcDbLayerTableRecord
  2
GRAIN
 70
0
 62
7
  6
Continuous
370
-3
390
13
347
21
  0
LAYER
  5
34
330
1
100
AcDbSymbolTableRecord
100
AcDbLayerTableRecord
  2
NOTES
 70
0
 62
7
  6
Continuous
370
-3
390
13
347
21
  0
ENDTAB
  0
TABLE
  2
STYLE
  5
5
330
0
100
AcDbSymbolTable
 70
1
  0
STYLE
  5
29
330
5
100
AcDbSymbolTableRecord
100
AcDbTextStyleTableRecord
  2
Standard
 70
0
 40
0.0
 41
1.0
 50
0.0
 71
0
 42
2.5
  3
txt
  4

  0
ENDTAB
  0
TABLE
  2
VIEW
  5
7
330
0
100
AcDbSymbolTable
 70
0
  0
ENDTAB
  0
TABLE
  2
UCS
  5
6
330
0
100
AcDbSymbolTable
 70
0
  0
ENDTAB
  0
TABLE
  2
APPID
  5
3
330
0
100
AcDbSymbolTable
 70
3
  0
APPID
  5
2A
330
3
100
AcDbSymbolTableRecord
100
AcDbRegAppTableRecord
  2
ACAD
 70
0
  0
APPID
  5
48
330
3
100
AcDbSymbolTableRecord
100
AcDbRegAppTableRecord
  2
HATCHBACKGROUNDCOLOR
 70
0
  0
APPID
  5
49
330
3
100
AcDbSymbolTableRecord
100
AcDbRegAppTableRecord
  2
EZDXF
 70
0
  0
ENDTAB
  0
TABLE
  2
DIMSTYLE
  5
4
330
0
100
AcDbSymbolTable
 70
1
100
AcDbDimStyleTable
  0
DIMSTYLE
105
2B
330
4
100
AcDbSymbolTableRecord
100
AcDbDimStyleTableRecord
  2
Standard
 70
0
 40
1.0
 41
2.5
 42
0.625
 43
3.75
 44
1.25
 45
0.0
 46
0.0
 47
0.0
 48
0.0
 49
2.5
140
2.5
141
2.5
142
0.0
143
0.03937007874
144
1.0
145
0.0
146
1.0
147
0.625
148
0.0
 69
0
 70
0
 71
0
 72
0
 73
0
 74
0
 75
0
 76
0
 77
1
 78
8
 79
3
170
0
171
3
172
1
173
0
174
0
175
0
176
0
177
0
178
0
179
2
271
2
272
2
273
2
274
3
275
0
276
0
277
2
278
44
279
0
280
0
281
0
282
0
283
0
284
8
285
0
286
0
288
0
289
3
290
0
371
-2
372
-2
  0
ENDTAB
  0
TABLE
  2
BLOCK_RECORD
  5
9
330
0
100
AcDbSymbolTable
 70
2
  0
BLOCK_RECORD
  5
17
330
9
100
AcDbSymbolTableRecord
100
AcDbBlockTableRecord
  2
*Model_Space
340
1A
 70
0
280
1
281
0
  0
BLOCK_RECORD
  5
1B
330
9
100
AcDbSymbolTableRecord
100
AcDbBlockTableRecord
  2
*Paper_Space
340
1E
 70
0
280
1
281
0
  0
ENDTAB
  0
ENDSEC
  0
SECTION
  2
BLOCKS
  0
BLOCK
  5
18
330
17
100
AcDbEntity
  8
0
100
AcDbBlockBegin
  2
*Model_Space
 70
0
 10
0.0
 20
0.0
 30
0.0
  3
*Model_Space
  1

  0
ENDBLK
  5
19
330
17
100
AcDbEntity
  8
0
100
AcDbBlockEnd
  0
BLOCK
  5
1C
330
1B
100
AcDbEntity
  8
0
100
AcDbBlockBegin
  2
*Paper_Space
 70
0
 10
0.0
 20
0.0
 30
0.0
  3
*Paper_Space
  1

  0
ENDBLK
  5
1D
330
1B
100
AcDbEntity
  8
0
100
AcDbBlockEnd
  0
ENDSEC
  0
SECTION
  2
ENTITIES
  0
LWPOLYLINE
  5
35
330
17
100
AcDbEntity
  8
CUT
100
AcDbPolyline
 90
240
 70
1
 10
945.7739680658394
 20
-25.0
 10
1921.558160940179
 20
-25.0
 10
1927.974704961757
 20
-9.63260009872694
 10
1944.9471590075123
 20
31.015837401272986
 10
1948.882995146199
 20
40.44202814907813
 10
1961.8159017243343
 20
71.75272872385825
 10
1969.5445398489023
 20
90.46384155121807
 10
1978.5426019687307
 20
112.49137422398869
 10
1989.94083853579
 20
140.39460772574367
 10
1995.1253428793166
 20
153.2317463978037
 10
2010.0714996878892
 20
190.23931257055818
 10
2011.5622426977793
 20
193.97381697063733
 10
2027.7883245481066
 20
234.62225447063742
 10
2029.936131760363
 20
240.00278983553747
 10
2043.884579361331
 20
275.3659944663355
 10
2049.534343249175
 20
289.6897215359817
 10
2059.8289795370215
 20
316.1113742770722
 10
2068.8657427554535
 20
339.30463851533835
 10
2075.619850052453
 20
356.85836373336736
 10
2087.9299390473175
 20
388.8519211530631
 10
2091.255556630649
 20
397.606932174029
 10
2106.69598933385
 20
438.25536967404656
 10
2106.7265411189687
 20
438.3358002132534
 10
2121.973071857754
 20
479.00548601574275
 10
2125.25515824681
 20
487.7603578293018
 10
2137.089843396462
 20
519.7571188220408
 10
2143.5154000425764
 20
537.1295286201213
 10
2152.0448842287506
 20
560.5102363713995
 10
2161.5068765031074
 20
586.4471009323519
 10
2166.8368173728477
 20
601.264806724218
 10
2179.229198056895
 20
635.7167182040472
 10
2181.464308996884
 20
642.0207977884525
 10
2195.8762094390167
 20
682.6692352884518
 10
2196.6819756071695
 20
684.9418804442572
 10
2210.126924093442
 20
723.4266148836842
 10
2213.8648205715335
 20
734.1259458233516
 10
2224.209070131955
 20
764.1853508034313
 10
2230.777344918081
 20
783.2721323687205
 10
2238.1215218645807
 20
804.9454108755048
 10
2247.4191611980045
 20
832.3835197605254
 10
2251.863195131161
 20
845.7067630202486
 10
2263.789882574699
 20
881.4630512221455
 10
2265.4330470717205
 20
886.4693753065088
 10
2278.774586339625
 20
927.117812806509
 10
2279.889122849382
 20
930.5135355000157
 10
2291.9533729563755
 20
967.881653505193
 10
2295.716496483293
 20
979.5376489276026
 10
2304.9571503520847
 20
1008.6466911402947
 10
2311.2716186165267
 20
1028.537937568335
 10
2317.7850634980173
 20
1049.4128945372888
 10
2326.554105083592
 20
1077.5168194323974
 10
2330.436294497057
 20
1090.180232868798
 10
2341.563572425781
 20
1126.4765867624055
 10
2342.9100619246155
 20
1130.9486756974597
 10
2355.148793093123
 20
1171.59711319746
 10
2356.299637900474
 20
1175.4194083831067
 10
2367.220623089243
 20
1212.3666305159395
 10
2370.7619194874787
 20
1224.347332110367
 10
2379.1126149680545
 20
1253.1371927840373
 10
2384.950035892555
 20
1273.262287214896
 10
2390.824146126439
 20
1293.9087709628673
 10
2398.863606548251
 20
1322.1660869362631
 10
2402.3546247924573
 20
1334.6813365460837
 10
2412.5022516121944
 20
1371.0604310429685
 10
2413.703489135467
 20
1375.4548615881542
 10
2424.8149239130344
 20
1416.1032990881542
 10
2425.865591962999
 20
1419.946908434488
 10
2435.753836110518
 20
1456.877756229686
 10
2438.9532491939267
 20
1468.8269997813825
 10
2446.5094229896613
 20
1497.6531187198152
 10
2451.764845604478
 20
1517.7020801997596
 10
2457.0812485405413
 20
1538.4293604357022
 10
2464.300004190052
 20
1566.5734219565527
 10
2467.46890049673
 20
1579.20645589915
 10
2476.5583486298497
 20
1615.442197202267
 10
2477.6719893741433
 20
1619.984380290404
 10
2487.638068528924
 20
1660.6328177904034
 10
2488.539503273172
 20
1664.3094807280352
 10
2497.425446581553
 20
1701.411546959176
 10
2500.2430931242716
 20
1713.1762527440196
 10
2507.0270580331135
 20
1742.1910574329602
 10
2511.668743825911
 20
1762.0434016763545
 10
2516.442605943813
 20
1782.971326422691
 10
2522.8160816417876
 20
1810.91172698006
 10
2525.6718100842054
 20
1823.75233182582
 10
2533.6847334379677
 20
1859.7819419654768
 10
2534.7144060145147
 20
1864.534052226888
 10
2543.5219839263964
 20
1905.1824897268896
 10
2544.274326663474
 20
1908.6546766360104
 10
2552.1447755696026
 20
1945.9649043956547
 10
2554.5844893301773
 20
1957.530480535092
 10
2560.580113660105
 20
1986.7479932828737
 10
2564.6148499921183
 20
2006.4098256005009
 10
2568.8277953411207
 20
2027.531737013795
 10
2574.3650377243966
 20
2055.2931090242755
 10
2576.8876280453865
 20
2068.316116879465
 10
2583.8346821017585
 20
2104.180656116681
 10
2584.7594286827134
 20
2109.1011148259213
 10
2592.3988594391794
 20
2149.749552325921
 10
2593.0234131769867
 20
2153.072723172802
 10
2599.8478841790575
 20
2190.535150941345
 10
2601.9308614592346
 20
2201.969500340511
 10
2607.1082557370605
 20
2231.321333441281
 10
2610.5566578923913
 20
2250.8711144886843
 10
2614.1798255419217
 20
2272.1080836519714
 10
2618.9004338336003
 20
2299.7776320746934
 10
2621.0624498212655
 20
2312.8953859919234
 10
2626.961821032018
 20
2348.689062010305
 10
2627.755988931355
 20
2353.6832254517503
 10
2634.219871140901
 20
2394.3316629517503
 10
2634.740451607921
 20
2397.6053585253057
 10
2640.488311373835
 20
2435.1200250724014
 10
2642.2359580322345
 20
2446.5264240281977
 10
2646.56715579687
 20
2475.908895921828
 10
2649.4479731065894
 20
2495.452111963511
 10
2652.456276929326
 20
2516.698262070174
 10
2656.3761299439634
 20
2544.3822296653343
 10
2658.155547674063
 20
2557.488110563567
 10
2663.020061950001
 20
2593.3165412067815
 10
2663.664840801299
 20
2598.278428896564
 10
2667.3321290060185
 20
2626.5
 10
200.0
 20
2626.5
 10
203.66728820471985
 20
2598.278428896564
 10
204.31206705601744
 20
2593.3165412067815
 10
209.17658133195505
 20
2557.488110563567
 10
210.95599906205507
 20
2544.3822296653343
 10
214.87585207669213
 20
2516.698262070174
 10
217.88415589942883
 20
2495.452111963511
 10
220.7649732091486
 20
2475.908895921828
 10
225.09617097378396
 20
2446.5264240281977
 10
226.84381763218312
 20
2435.1200250724014
 10
232.59167739809754
 20
2397.6053585253057
 10
233.1122578651175
 20
2394.3316629517503
 10
239.57614007466327
 20
2353.6832254517503
 10
240.3703079740003
 20
2348.689062010305
 10
246.26967918475316
 20
2312.8953859919234
 10
248.43169517241813
 20
2299.7776320746934
 10
253.15230346409658
 20
2272.1080836519714
 10
256.7754711136272
 20
2250.8711144886843
 10
260.22387326895796
 20
2231.321333441281
 10
265.4012675467841
 20
2201.969500340511
 10
267.48424482696123
 20
2190.535150941345
 10
274.3087158290318
 20
2153.072723172802
 10
274.93326956683904
 20
2149.749552325921
 10
282.57270032330507
 20
2109.1011148259213
 10
283.49744690425996
 20
2104.180656116681
 10
290.444500960632
 20
2068.316116879465
 10
292.96709128162183
 20
2055.2931090242755
 10
298.5043336648978
 20
2027.531737013795
 10
302.71727901390045
 20
2006.4098256005009
 10
306.7520153459136
 20
1986.7479932828737
 10
312.74763967584136
 20
1957.530480535092
 10
315.18735343641606
 20
1945.9649043956547
 10
323.0578023425446
 20
1908.6546766360104
 10
323.8101450796223
 20
1905.1824897268896
 10
332.6177229915038
 20
1864.534052226888
 10
333.6473955680508
 20
1859.7819419654768
 10
341.6603189218133
 20
1823.75233182582
 10
344.5160473642309
 20
1810.91172698006
 10
350.88952306220585
 20
1782.971326422691
 10
355.6633851801075
 20
1762.0434016763545
 10
360.305070972905
 20
1742.1910574329602
 10
367.0890358817471
 20
1713.1762527440196
 10
369.90668242446577
 20
1701.411546959176
 10
378.7926257328461
 20
1664.3094807280352
 10
379.6940604770941
 20
1660.6328177904034
 10
389.66013963187515
 20
1619.984380290404
 10
390.7737803761688
 20
1615.442197202267
 10
399.86322850928855
 20
1579.20645589915
 10
403.03212481596665
 20
1566.5734219565527
 10
410.25088046547717
 20
1538.4293604357022
 10
415.5672834015404
 20
1517.7020801997596
 10
420.8227060163574
 20
1497.6531187198152
 10
428.3788798120918
 20
1468.8269997813825
 10
431.5782928955007
 20
1456.877756229686
 10
441.46653704301957
 20
1419.946908434488
 10
442.51720509298434
 20
1416.1032990881542
 10
453.62863987055164
 20
1375.4548615881542
 10
454.82987739382384
 20
1371.0604310429685
 10
464.97750421356113
 20
1334.6813365460837
 10
468.46852245776734
 20
1322.1660869362631
 10
476.5079828795797
 20
1293.9087709628673
 10
482.38209311346327
 20
1273.262287214896
 10
488.219514037964
 20
1253.1371927840373
 10
496.57020951853974
 20
1224.347332110367
 10
500.1115059167754
 20
1212.3666305159395
 10
511.03249110554464
 20
1175.4194083831067
 10
512.1833359128955
 20
1171.59711319746
 10
524.4220670814027
 20
1130.9486756974597
 10
525.7685565802374
 20
1126.4765867624055
 10
536.8958345089611
 20
1090.180232868798
 10
540.7780239224267
 20
1077.5168194323974
 10
549.5470655080013
 20
1049.4128945372888
 10
556.0605103894917
 20
1028.537937568335
 10
562.3749786539338
 20
1008.6466911402947
 10
571.6156325227254
 20
979.5376489276026
 10
575.3787560496431
 20
967.881653505193
 10
587.4430061566362
 20
930.5135355000157
 10
588.5575426663935
 20
927.117812806509
 10
601.8990819342979
 20
886.4693753065088
 10
603.5422464313194
 20
881.4630512221455
 10
615.4689338748575
 20
845.7067630202486
 10
619.9129678080138
 20
832.3835197605254
 10
629.2106071414378
 20
804.9454108755048
 10
636.5547840879377
 20
783.2721323687205
 10
643.1230588740635
 20
764.1853508034313
 10
653.4673084344851
 20
734.1259458233516
 10
657.2052049125763
 20
723.4266148836842
 10
670.650153398849
 20
684.9418804442572
 10
671.4559195670016
 20
682.6692352884518
 10
685.8678200091342
 20
642.0207977884525
 10
688.1029309491236
 20
635.7167182040472
 10
700.4953116331706
 20
601.264806724218
 10
705.8252525029109
 20
586.4471009323519
 10
715.2872447772678
 20
560.5102363713995
 10
723.8167289634422
 20
537.1295286201213
 10
730.2422856095562
 20
519.7571188220408
 10
742.0769707592085
 20
487.7603578293018
 10
745.3590571482648
 20
479.00548601574275
 10
760.6055878870499
 20
438.3358002132534
 10
760.6361396721684
 20
438.25536967404656
 10
776.0765723753694
 20
397.606932174029
 10
779.4021899587009
 20
388.8519211530631
 10
791.7122789535655
 20
356.85836373336736
 10
798.4663862505648
 20
339.30463851533835
 10
807.5031494689969
 20
316.1113742770722
 10
817.7977857568435
 20
289.6897215359817
 10
823.4475496446877
 20
275.3659944663355
 10
837.3959972456556
 20
240.00278983553747
 10
839.5438044579117
 20
234.62225447063742
 10
855.769886308239
 20
193.97381697063733
 10
857.2606293181294
 20
190.23931257055818
 10
872.2067861267019
 20
153.2317463978037
 10
877.3912904702286
 20
140.39460772574367
 10
888.7895270372878
 20
112.49137422398869
 10
897.787589157116
 20
90.46384155121807
 10
905.5162272816843
 20
71.75272872385825
 10
918.4491338598194
 20
40.44202814907813
 10
922.3849699985062
 20
31.015837401272986
 10
939.3574240442615
 20
-9.63260009872694
  0
LWPOLYLINE
  5
36
330
17
100
AcDbEntity
  8
SEW
100
AcDbPolyline
 90
236
 70
1
 10
1904.9049625414782
 20
0.0
 10
1921.8774165872337
 20
40.6484375
 10
1925.7948007973337
 20
50.030436520203544
 10
1938.7094248864514
 20
81.296875
 10
1946.4194476987386
 20
99.96291996381227
 10
1955.3990704518387
 20
121.94531250000001
 10
1966.7785448840264
 20
149.80261571883491
 10
1971.9444695447664
 20
162.59375
 10
1986.8717339915293
 20
199.55453757014902
 10
1988.3437735895363
 20
203.2421875
 10
2004.5698554398637
 20
243.89062500000003
 10
2006.6986566595792
 20
249.22354789091946
 10
2020.6282936981006
 20
284.5390625
 10
2026.258954526509
 20
298.81435798648835
 10
2036.5346896388169
 20
325.1875
 10
2045.5522692306513
 20
348.3315285871852
 10
2052.2874012040215
 20
365.83593750000006
 10
2064.578242410338
 20
397.7794704862111
 10
2067.8848268844126
 20
406.484375
 10
2083.325259587607
 20
447.13281250000006
 10
2083.336515703902
 20
447.1624453184906
 10
2098.563971779096
 20
487.78125000000006
 10
2101.826730749676
 20
496.4845664761333
 10
2113.6423157543827
 20
528.4296875000001
 10
2120.048529185992
 20
545.7498001559496
 10
2128.5589036350457
 20
569.078125
 10
2138.0015526511825
 20
594.9619665342922
 10
2143.3123898730973
 20
609.7265625
 10
2155.68544278358
 20
644.124741064345
 10
2157.9014716166243
 20
650.375
 10
2172.313372058757
 20
691.0234375000001
 10
2173.0998412215167
 20
693.2416558908694
 10
2186.525744342966
 20
731.6718750000001
 10
2190.244389603326
 20
742.3161013773274
 10
2200.569645473234
 20
772.3203125
 10
2207.11872956734
 20
791.3513277402501
 10
2214.443979143822
 20
812.96875
 10
2223.72250275189
 20
840.350446785677
 10
2228.1476899805184
 20
853.6171875
 10
2240.0553507953096
 20
889.3164337424924
 10
2241.6797632836474
 20
894.2656250000001
 10
2255.021302551552
 20
934.9140625000001
 10
2256.1169153359315
 20
938.2521291874915
 10
2268.1625218340805
 20
975.5625000000001
 10
2271.906838012087
 20
987.1602410570553
 10
2281.1289700394864
 20
1016.2109375000001
 10
2287.4247604621096
 20
1036.0433467403616
 10
2293.919818292521
 20
1056.8593750000002
 10
2302.670324324332
 20
1084.9038952491405
 10
2306.534274148384
 20
1097.5078125
 10
2317.643171237085
 20
1133.7442094590722
 10
2318.9715809228196
 20
1138.15625
 10
2331.2103120913266
 20
1178.8046875
 10
2332.3429428387026
 20
1182.5664884180362
 10
2343.246019944929
 20
1219.453125
 10
2346.7692807675166
 20
1231.3728097165347
 10
2355.1022514876868
 20
1260.1015625
 10
2360.92182666186
 20
1280.1651319157581
 10
2366.7784066855006
 20
1300.75
 10
2374.8002221600645
 20
1328.9452970288937
 10
2378.2739156090693
 20
1341.3984375
 10
2388.404108900463
 20
1377.7150330514376
 10
2389.5882375469378
 20
1382.0468750000002
 10
2400.699672324505
 20
1422.6953125000002
 10
2401.7331285213886
 20
1426.47595653643
 10
2411.604489855137
 20
1463.3437500000002
 10
2414.786922661172
 20
1475.2295752106984
 10
2422.326449495897
 20
1503.9921875000002
 10
2427.565132958148
 20
1523.9772906283695
 10
2432.8651342256417
 20
1544.640625
 10
2440.067401050647
 20
1572.7204008580843
 10
2443.2201500765677
 20
1585.2890625
 10
2452.293368577002
 20
1621.460103200525
 10
2453.3911251859968
 20
1625.9375
 10
2463.3572043407776
 20
1666.5859375
 10
2464.2426771755463
 20
1670.1974969330568
 10
2473.1130079213317
 20
1707.234375
 10
2475.9149684846116
 20
1718.933586078446
 10
2482.683600508414
 20
1747.8828125
 10
2487.309884142531
 20
1767.669282194819
 10
2492.068700844004
 20
1788.5312500000002
 10
2498.4270657876355
 20
1816.4054071841947
 10
2501.268043768615
 20
1829.1796875000002
 10
2509.2661550582598
 20
1865.1426961170955
 10
2510.281379319629
 20
1869.8281250000002
 10
2519.08895723151
 20
1910.4765625000002
 10
2519.826793592734
 20
1913.8818000709307
 10
2527.6831032360515
 20
1951.1250000000002
 10
2530.108623029392
 20
1962.6232889800108
 10
2536.0904237800646
 20
1991.7734375
 10
2540.1112850065665
 20
2011.367654495213
 10
2544.310728826632
 20
2032.4218750000002
 10
2549.834421162589
 20
2060.1153128514998
 10
2552.343838117959
 20
2073.0703125
 10
2559.2776731357926
 20
2108.8666077416315
 10
2560.189580384462
 20
2113.7187500000005
 10
2567.829011140928
 20
2154.3671875
 10
2568.440682564509
 20
2157.6218131945843
 10
2575.2526539054916
 20
2195.015625
 10
2577.3230910870716
 20
2206.3811364573294
 10
2582.4883307915507
 20
2235.6640625
 10
2585.924540341812
 20
2255.144720878772
 10
2589.5359037117337
 20
2276.3125
 10
2594.2446719670643
 20
2303.912648794788
 10
2596.3952389749784
 20
2316.9609375
 10
2602.2831276011584
 20
2352.6849444134255
 10
2603.0662066373625
 20
2357.609375
 10
2609.5300888469083
 20
2398.2578125000005
 10
2610.039548882429
 20
2401.4615766994834
 10
2615.7766845395367
 20
2438.90625
 10
2617.5135774492073
 20
2450.242462257769
 10
2621.834420328092
 20
2479.5546875000005
 10
2624.704854939826
 20
2499.027468214477
 10
2627.703177409405
 20
2520.203125
 10
2631.613022992618
 20
2547.8164150962293
 10
2633.382837061954
 20
2560.8515625000005
 10
2638.2377232459157
 20
2596.609079706428
 10
2638.8732801480137
 20
2601.5
 10
228.45884885800479
 20
2601.5
 10
229.09440576010297
 20
2596.609079706428
 10
233.94929194406427
 20
2560.8515625000005
 10
235.7191060134005
 20
2547.8164150962293
 10
239.62895159661366
 20
2520.203125
 10
242.62727406619229
 20
2499.027468214477
 10
245.49770867792608
 20
2479.5546875000005
 10
249.81855155681137
 20
2450.242462257769
 10
251.55544446648173
 20
2438.90625
 10
257.2925801235897
 20
2401.4615766994834
 10
257.80204015911045
 20
2398.2578125000005
 10
264.2659223686562
 20
2357.609375
 10
265.0490014048603
 20
2352.6849444134255
 10
270.9368900310401
 20
2316.9609375
 10
273.0874570389544
 20
2303.912648794788
 10
277.7962252942848
 20
2276.3125
 10
281.4075886642063
 20
2255.144720878772
 10
284.84379821446805
 20
2235.6640625
 10
290.0090379189469
 20
2206.3811364573294
 10
292.0794751005269
 20
2195.015625
 10
298.8914464415093
 20
2157.6218131945843
 10
299.50311786509087
 20
2154.3671875
 10
307.1425486215569
 20
2113.7187500000005
 10
308.0544558702261
 20
2108.8666077416315
 10
314.9882908880595
 20
2073.0703125
 10
317.4977078434297
 20
2060.1153128514998
 10
323.0214001793868
 20
2032.4218750000002
 10
327.220843999452
 20
2011.367654495213
 10
331.24170522595387
 20
1991.7734375
 10
337.22350597662603
 20
1962.6232889800108
 10
339.6490257699668
 20
1951.1250000000002
 10
347.5053354132847
 20
1913.8818000709307
 10
348.24317177450826
 20
1910.4765625000002
 10
357.0507496863893
 20
1869.8281250000002
 10
358.06597394775895
 20
1865.1426961170955
 10
366.0640852374038
 20
1829.1796875000002
 10
368.905063218383
 20
1816.4054071841947
 10
375.2634281620144
 20
1788.5312500000002
 10
380.0222448634877
 20
1767.669282194819
 10
384.64852849760405
 20
1747.8828125
 10
391.4171605214067
 20
1718.933586078446
 10
394.21912108468655
 20
1707.234375
 10
403.08945183047194
 20
1670.1974969330568
 10
403.9749246652407
 20
1666.5859375
 10
413.9410038200217
 20
1625.9375
 10
415.0387604290162
 20
1621.460103200525
 10
424.1119789294505
 20
1585.2890625
 10
427.26472795537165
 20
1572.7204008580843
 10
434.46699478037704
 20
1544.640625
 10
439.76699604787086
 20
1523.9772906283695
 10
445.00567951012124
 20
1503.9921875000002
 10
452.5452063448463
 20
1475.2295752106984
 10
455.72763915088103
 20
1463.3437500000002
 10
465.5990004846301
 20
1426.47595653643
 10
466.6324566815132
 20
1422.6953125000002
 10
477.7438914590806
 20
1382.0468750000002
 10
478.9280201055552
 20
1377.7150330514376
 10
489.058213396949
 20
1341.3984375
 10
492.5319068459538
 20
1328.9452970288937
 10
500.553722320518
 20
1300.75
 10
506.4103023441585
 20
1280.1651319157581
 10
512.2298775183318
 20
1260.1015625
 10
520.5628482385017
 20
1231.3728097165347
 10
524.0861090610899
 20
1219.453125
 10
534.989186167316
 20
1182.5664884180362
 10
536.121816914692
 20
1178.8046875
 10
548.360548083199
 20
1138.15625
 10
549.6889577689335
 20
1133.7442094590722
 10
560.7978548576344
 20
1097.5078125
 10
564.6618046816868
 20
1084.9038952491405
 10
573.4123107134975
 20
1056.8593750000002
 10
579.9073685439088
 20
1036.0433467403616
 10
586.2031589665319
 20
1016.2109375000001
 10
595.4252909939312
 20
987.1602410570553
 10
599.1696071719382
 20
975.5625000000001
 10
611.2152136700871
 20
938.2521291874915
 10
612.3108264544667
 20
934.9140625000001
 10
625.6523657223711
 20
894.2656250000001
 10
627.2767782107088
 20
889.3164337424924
 10
639.1844390255001
 20
853.6171875
 10
643.6096262541286
 20
840.350446785677
 10
652.8881498621963
 20
812.96875
 10
660.2133994386788
 20
791.3513277402501
 10
666.7624835327847
 20
772.3203125
 10
677.0877394026925
 20
742.3161013773274
 10
680.8063846630525
 20
731.6718750000001
 10
694.2322877845015
 20
693.2416558908694
 10
695.0187569472613
 20
691.0234375000001
 10
709.4306573893941
 20
650.375
 10
711.6466862224385
 20
644.124741064345
 10
724.0197391329211
 20
609.7265625
 10
729.3305763548362
 20
594.9619665342922
 10
738.773225370973
 20
569.078125
 10
747.2835998200266
 20
545.7498001559496
 10
753.6898132516358
 20
528.4296875000001
 10
765.5053982563427
 20
496.4845664761333
 10
768.7681572269225
 20
487.78125000000006
 10
783.9956133021165
 20
447.1624453184906
 10
784.0068694184114
 20
447.13281250000006
 10
799.4473021216057
 20
406.484375
 10
802.7538865956803
 20
397.7794704862111
 10
815.0447278019969
 20
365.83593750000006
 10
821.7798597753673
 20
348.3315285871852
 10
830.7974393672017
 20
325.1875
 10
841.0731744795096
 20
298.81435798648835
 10
846.7038353079178
 20
284.5390625
 10
860.6334723464392
 20
249.22354789091946
 10
862.7622735661549
 20
243.89062500000003
 10
878.9883554164822
 20
203.2421875
 10
880.4603950144892
 20
199.55453757014902
 10
895.387659461252
 20
162.59375
 10
900.5535841219921
 20
149.80261571883491
 10
911.9330585541798
 20
121.94531250000001
 10
920.9126813072797
 20
99.96291996381227
 10
928.6227041195671
 20
81.296875
 10
941.5373282086849
 20
50.030436520203544
 10
945.4547124187848
 20
40.6484375
 10
962.4271664645403
 20
0.0
  0
TEXT
  5
37
330
17
100
AcDbEntity
  8
NOTES
100
AcDbText
 10
1283.6660645030092
 20
300.0
 30
0.0
 40
60.0
  1
PANEL A x6
100
AcDbText
  0
LWPOLYLINE
  5
38
330
17
100
AcDbEntity
  8
CUT
100
AcDbPolyline
 90
240
 70
1
 10
2943.0418076930687
 20
-25.000000000000004
 10
5397.379308613788
 20
-25.000000000000004
 10
5400.209334451718
 20
-3.221571103435204
 10
5405.491447727328
 20
37.42686639656384
 10
5405.923896455494
 20
40.754770245200525
 10
5410.573576415084
 20
78.21764248334364
 10
5411.998280097576
 20
89.69660286303956
 10
5415.465235995485
 20
119.00886462768392
 10
5417.78734070598
 20
138.64169040431776
 10
5420.166294059948
 20
159.80052149181856
 10
5423.290712686042
 20
187.589652306797
 10
5424.676615283752
 20
200.59260206420984
 10
5428.508030654789
 20
236.5400789299513
 10
5428.996061064367
 20
241.38509562631887
 10
5433.090510030184
 20
282.033533126319
 10
5433.438929427646
 20
285.49253437893276
 10
5436.980678762691
 20
322.8264292184133
 10
5438.08304400624
 20
334.4465593247816
 10
5440.679431477513
 20
363.6197176044882
 10
5442.440009567341
 20
383.40167382119455
 10
5444.1866121049225
 20
404.41338823634857
 10
5446.509461452986
 20
432.3573801181648
 10
5447.502059468528
 20
445.20743121690225
 10
5450.291035161839
 20
481.31316547292755
 10
5450.625607075371
 20
486.00183676273696
 10
5453.526178404815
 20
526.6502742627375
 10
5453.784366341799
 20
530.2685049585979
 10
5456.218072526309
 20
567.4450326660177
 10
5456.989090783923
 20
579.2228642709762
 10
5458.717432048743
 20
608.2401342557675
 10
5459.904844417686
 20
628.1757025339942
 10
5461.0240657372415
 20
649.0355693585889
 10
5462.53126330761
 20
677.126475104306
 10
5463.137776158324
 20
689.8313282588783
 10
5464.867983651294
 20
726.0746363755296
 10
5465.0583596215565
 20
730.6274011585871
 10
5466.758092881996
 20
771.2758386585865
 10
5466.914641778872
 20
775.019642582668
 10
5468.2442532192845
 20
812.0722156365958
 10
5468.670874153935
 20
823.9609546072455
 10
5469.536535277675
 20
852.8688866077512
 10
5470.13631737593
 20
872.898040783647
 10
5470.6347083739165
 20
893.665841281637
 10
5471.310608184064
 20
921.8303797072377
 10
5471.538535645848
 20
934.4630691211354
 10
5472.193383462729
 20
970.7574630447116
 10
5472.24777415111
 20
975.2605593008516
 10
5472.738746666797
 20
1015.9089968008517
 10
5472.784280248472
 20
1019.6787983471895
 10
5473.01035756315
 20
1056.7067381654715
 10
5473.082935738513
 20
1068.5939118665237
 10
5473.086512944291
 20
1097.5047191881188
 10
5473.08898730084
 20
1117.5023513752437
 10
5472.966945780828
 20
1138.3029279288044
 10
5472.802072485867
 20
1166.403688990549
 10
5472.65138404555
 20
1179.101351993032
 10
5472.22182903968
 20
1215.297524002708
 10
5472.139550981189
 20
1219.8999784906678
 10
5471.41287904409
 20
1260.548415990668
 10
5471.347894918855
 20
1264.1834857081876
 10
5470.459827095526
 20
1301.3472314951448
 10
5470.179908306855
 20
1313.061236247772
 10
5469.309546802728
 20
1342.1462220031153
 10
5468.717507631998
 20
1361.9304734498915
 10
5467.9617456576
 20
1382.9453728946464
 10
5466.960331586971
 20
1410.7909336792995
 10
5466.416128581833
 20
1423.7446688940706
 10
5464.908019149881
 20
1459.6423946911802
 10
5464.6723983804695
 20
1464.5440940316016
 10
5462.71846047976
 20
1505.1925315316007
 10
5462.56020960682
 20
1508.4846784906936
 10
5460.529674900525
 20
1545.992069105834
 10
5459.916542575899
 20
1557.317654197877
 10
5458.141779549613
 20
1586.79170164727
 10
5456.9766580327305
 20
1606.141240917733
 10
5455.5544756237405
 20
1627.5914108829797
 10
5453.740196981602
 20
1654.9554008973284
 10
5452.767477397409
 20
1668.3911582750327
 10
5450.206859664071
 20
1703.7598700406922
 10
5449.780691494098
 20
1709.1903044661665
 10
5446.590694365994
 20
1749.838741966165
 10
5446.377533492826
 20
1752.5549376498789
 10
5443.159204765824
 20
1790.6365302489344
 10
5442.254458963337
 20
1801.3421367853132
 10
5439.531347923206
 20
1831.432894645922
 10
5437.839929584476
 20
1850.1233038586465
 10
5435.708328855331
 20
1872.2278141427314
 10
5433.136237216124
 20
1898.900176050434
 10
5431.69137038198
 20
1913.0212702496337
 10
5428.1456736595155
 20
1947.6743720002885
 10
5427.481711445314
 20
1953.8132469206655
 10
5423.085298924065
 20
1994.4616844206655
 10
5422.87053059081
 20
1996.4473937072883
 10
5418.448948548041
 20
2035.252167969135
 10
5417.313099499426
 20
2045.220628466006
 10
5413.624456182715
 20
2076.041146980196
 10
5411.475671631113
 20
2093.995350834932
 10
5408.61310574856
 20
2116.8286122210793
 10
5405.360537935707
 20
2142.7727246342474
 10
5403.4161887698465
 20
2157.6145565495685
 10
5398.969989019525
 20
2191.5538049699944
 10
5398.035003013769
 20
2198.398974821261
 10
5392.482807663734
 20
2239.047412321263
 10
5392.306315102261
 20
2240.339540281819
 10
5386.693646198706
 20
2279.8303012961064
 10
5385.371805978288
 20
2289.1307744115816
 10
5380.724873933328
 20
2320.6116595446942
 10
5378.16875098222
 20
2337.928248690257
 10
5374.577795842832
 20
2361.391487354712
 10
5370.699438958576
 20
2386.7326040406447
 10
5368.253716452315
 20
2402.1697866379664
 10
5362.966158235373
 20
2435.5443830935883
 10
5361.753938811031
 20
2442.9465608383102
 10
5355.097137636295
 20
2483.5949983383143
 10
5354.971196601475
 20
2484.364032315476
 10
5348.208142172013
 20
2524.3702523407896
 10
5346.716841287522
 20
2533.191904144898
 10
5341.148059676421
 20
2565.1439923823036
 10
5338.205378950212
 20
2582.0282591366213
 10
5333.918171539701
 20
2605.916225963991
 10
5330.223972312901
 20
2626.5
 10
3010.197143993956
 20
2626.5
 10
3006.502944767157
 20
2605.916225963991
 10
3002.215737356645
 20
2582.0282591366213
 10
2999.2730566304363
 20
2565.1439923823036
 10
2993.7042750193364
 20
2533.191904144898
 10
2992.2129741348444
 20
2524.3702523407896
 10
2985.449919705383
 20
2484.364032315476
 10
2985.3239786705626
 20
2483.5949983383143
 10
2978.667177495827
 20
2442.9465608383102
 10
2977.4549580714847
 20
2435.5443830935883
 10
2972.1673998545425
 20
2402.1697866379664
 10
2969.721677348281
 20
2386.7326040406447
 10
2965.8433204640264
 20
2361.391487354712
 10
2962.252365324637
 20
2337.928248690257
 10
2959.69624237353
 20
2320.6116595446942
 10
2955.04931032857
 20
2289.1307744115816
 10
2953.727470108152
 20
2279.8303012961064
 10
2948.114801204597
 20
2240.339540281819
 10
2947.9383086431235
 20
2239.047412321263
 10
2942.3861132930892
 20
2198.398974821261
 10
2941.4511272873324
 20
2191.5538049699944
 10
2937.004927537011
 20
2157.6145565495685
 10
2935.0605783711503
 20
2142.7727246342474
 10
2931.8080105582976
 20
2116.8286122210793
 10
2928.9454446757445
 20
2093.995350834932
 10
2926.7966601241424
 20
2076.041146980196
 10
2923.108016807431
 20
2045.220628466006
 10
2921.9721677588163
 20
2035.252167969135
 10
2917.5505857160474
 20
1996.4473937072883
 10
2917.335817382793
 20
1994.4616844206655
 10
2912.9394048615436
 20
1953.8132469206655
 10
2912.275442647342
 20
1947.6743720002885
 10
2908.7297459248775
 20
1913.0212702496337
 10
2907.2848790907337
 20
1898.900176050434
 10
2904.7127874515268
 20
1872.2278141427314
 10
2902.581186722382
 20
1850.1233038586465
 10
2900.8897683836512
 20
1831.432894645922
 10
2898.1666573435205
 20
1801.3421367853132
 10
2897.2619115410334
 20
1790.6365302489344
 10
2894.0435828140317
 20
1752.5549376498789
 10
2893.8304219408637
 20
1749.838741966165
 10
2890.640424812759
 20
1709.1903044661665
 10
2890.2142566427865
 20
1703.7598700406922
 10
2887.6536389094495
 20
1668.3911582750327
 10
2886.6809193252557
 20
1654.9554008973284
 10
2884.866640683117
 20
1627.5914108829797
 10
2883.4444582741276
 20
1606.141240917733
 10
2882.2793367572453
 20
1586.79170164727
 10
2880.5045737309583
 20
1557.317654197877
 10
2879.891441406333
 20
1545.992069105834
 10
2877.860906700038
 20
1508.4846784906936
 10
2877.702655827097
 20
1505.1925315316007
 10
2875.7487179263885
 20
1464.5440940316016
 10
2875.513097156977
 20
1459.6423946911802
 10
2874.004987725025
 20
1423.7446688940706
 10
2873.4607847198868
 20
1410.7909336792995
 10
2872.459370649258
 20
1382.9453728946464
 10
2871.7036086748594
 20
1361.9304734498915
 10
2871.11156950413
 20
1342.1462220031153
 10
2870.241208000002
 20
1313.061236247772
 10
2869.961289211332
 20
1301.3472314951448
 10
2869.073221388003
 20
1264.1834857081876
 10
2869.0082372627676
 20
1260.548415990668
 10
2868.2815653256685
 20
1219.8999784906678
 10
2868.199287267177
 20
1215.297524002708
 10
2867.769732261307
 20
1179.101351993032
 10
2867.6190438209906
 20
1166.403688990549
 10
2867.45417052603
 20
1138.3029279288044
 10
2867.332129006018
 20
1117.5023513752437
 10
2867.3346033625667
 20
1097.5047191881188
 10
2867.338180568345
 20
1068.5939118665237
 10
2867.4107587437074
 20
1056.7067381654715
 10
2867.636836058386
 20
1019.6787983471895
 10
2867.6823696400606
 20
1015.9089968008517
 10
2868.173342155747
 20
975.2605593008516
 10
2868.2277328441287
 20
970.7574630447116
 10
2868.882580661009
 20
934.4630691211354
 10
2869.1105081227934
 20
921.8303797072377
 10
2869.786407932941
 20
893.665841281637
 10
2870.2847989309275
 20
872.898040783647
 10
2870.8845810291823
 20
852.8688866077512
 10
2871.750242152923
 20
823.9609546072455
 10
2872.176863087573
 20
812.0722156365958
 10
2873.506474527986
 20
775.019642582668
 10
2873.6630234248614
 20
771.2758386585865
 10
2875.3627566853015
 20
730.6274011585871
 10
2875.553132655564
 20
726.0746363755296
 10
2877.2833401485336
 20
689.8313282588783
 10
2877.889852999247
 20
677.126475104306
 10
2879.3970505696157
 20
649.0355693585889
 10
2880.5162718891715
 20
628.1757025339942
 10
2881.7036842581147
 20
608.2401342557675
 10
2883.432025522935
 20
579.2228642709762
 10
2884.203043780549
 20
567.4450326660177
 10
2886.6367499650587
 20
530.2685049585979
 10
2886.8949379020423
 20
526.6502742627375
 10
2889.795509231487
 20
486.00183676273696
 10
2890.130081145018
 20
481.31316547292755
 10
2892.919056838329
 20
445.20743121690225
 10
2893.911654853871
 20
432.3573801181648
 10
2896.234504201935
 20
404.41338823634857
 10
2897.9811067395167
 20
383.40167382119455
 10
2899.741684829344
 20
363.6197176044882
 10
2902.3380723006176
 20
334.4465593247816
 10
2903.440437544167
 20
322.8264292184133
 10
2906.9821868792114
 20
285.49253437893276
 10
2907.3306062766733
 20
282.033533126319
 10
2911.425055242491
 20
241.38509562631887
 10
2911.9130856520687
 20
236.5400789299513
 10
2915.7445010231054
 20
200.59260206420984
 10
2917.1304036208157
 20
187.589652306797
 10
2920.2548222469095
 20
159.80052149181856
 10
2922.633775600878
 20
138.64169040431776
 10
2924.9558803113723
 20
119.00886462768392
 10
2928.4228362092817
 20
89.69660286303956
 10
2929.8475398917735
 20
78.21764248334364
 10
2934.4972198513633
 20
40.754770245200525
 10
2934.92966857953
 20
37.42686639656384
 10
2940.211781855139
 20
-3.221571103435204
  0
LWPOLYLINE
  5
39
330
17
100
AcDbEntity
  8
SEW
100
AcDbPolyline
 90
236
 70
1
 10
5375.417773798434
 20
0.0
 10
5380.699887074043
 20
40.6484374999998
 10
5381.123090988471
 20
43.905197998643786
 10
5385.76393459767
 20
81.29687500000004
 10
5387.179780557777
 20
92.70446794689668
 10
5390.638289467706
 20
121.94531249999984
 10
5392.951927242585
 20
141.50655241271613
 10
5395.322826618765
 20
162.59375000000009
 10
5398.439172681229
 20
190.31108200899638
 10
5399.81741785064
 20
203.2421874999999
 10
5403.64115851204
 20
239.11765796069685
 10
5404.1219314804475
 20
243.89062500000014
 10
5408.216380446265
 20
284.53906249999994
 10
5408.557526373353
 20
287.9258549625225
 10
5412.092421596622
 20
325.18750000000017
 10
5413.187917903497
 20
336.735224033772
 10
5415.777857845014
 20
365.8359375
 10
5417.5319747408075
 20
385.5452953706049
 10
5419.272539498767
 20
406.4843750000002
 10
5421.589338523615
 20
434.3555811960003
 10
5422.576311597808
 20
447.13281250000006
 10
5425.359650890252
 20
483.16557860776624
 10
5425.689013712783
 20
487.78124999999983
 10
5428.589585042228
 20
528.4296875000001
 10
5428.842553479053
 20
531.9747724249476
 10
5431.2714693621765
 20
569.0781249999999
 10
5432.037687928348
 20
580.7826380330434
 10
5433.761660550455
 20
609.7265625000001
 10
5434.94469587647
 20
629.5886442284551
 10
5436.059973012754
 20
650.3749999999999
 10
5437.563218961753
 20
678.3922560626135
 10
5438.166214822331
 20
691.0234375000002
 10
5439.892898822527
 20
727.1929376862377
 10
5440.080187662932
 20
731.671875
 10
5441.779920923372
 20
772.3203125000002
 10
5441.933377097128
 20
775.9901551941911
 10
5443.260333868326
 20
812.96875
 10
5443.684295423885
 20
824.783379471413
 10
5444.547736871696
 20
853.6171874999998
 10
5445.145295441132
 20
873.5720890403669
 10
5445.641904219697
 20
894.2656250000001
 10
5446.3160187872
 20
922.3557729104881
 10
5446.542603877415
 20
934.9140625000003
 10
5447.196107100424
 20
971.1339334300493
 10
5447.249597581324
 20
975.5625000000001
 10
5447.740570097011
 20
1016.2109374999999
 10
5447.785202019135
 20
1019.9060891408695
 10
5448.0108235275575
 20
1056.8593750000002
 10
5448.082945181665
 20
1068.6717776362684
 10
5448.086513135662
 20
1097.5078125
 10
5448.088978226348
 20
1117.4305584226097
 10
5447.9673760728265
 20
1138.1562500000002
 10
5447.802942791515
 20
1166.1820157847726
 10
5447.653144303949
 20
1178.8046875
 10
5447.2244805155
 20
1214.9257616558184
 10
5447.143544861054
 20
1219.4531249999998
 10
5446.416872923954
 20
1260.1015625
 10
5446.353233036633
 20
1263.661438491086
 10
5445.466961822788
 20
1300.7500000000002
 10
5445.188841993248
 20
1312.3887221468888
 10
5444.320732938582
 20
1341.3984375
 10
5443.7309490236785
 20
1361.1073247639208
 10
5442.977896844151
 20
1382.046875
 10
5441.979195766255
 20
1409.8169976554184
 10
5441.438161267453
 20
1422.6953124999998
 10
5439.933223859311
 20
1458.517534200038
 10
5439.701231523356
 20
1463.3437500000005
 10
5437.747293622648
 20
1503.9921875000002
 10
5437.592674941178
 20
1507.208772739347
 10
5435.566229648941
 20
1544.640625
 10
5434.957190650191
 20
1555.8905994797133
 10
5433.186978897371
 20
1585.2890624999998
 10
5432.026412624679
 20
1604.562951398314
 10
5430.609244039504
 20
1625.9375000000005
 10
5428.799982502977
 20
1653.225819152856
 10
5427.832739019928
 20
1666.5859375000002
 10
5425.277578021164
 20
1701.879277737223
 10
5424.857322140751
 20
1707.234375
 10
5421.667325012646
 20
1747.8828124999998
 10
5421.46002592601
 20
1750.524314554253
 10
5418.248006579598
 20
1788.5312499999998
 10
5417.34951315613
 20
1799.1628738668592
 10
5414.633093816591
 20
1829.1796875000005
 10
5412.948305361402
 20
1847.796835572304
 10
5410.823765527472
 20
1869.8281250000002
 10
5408.258668191696
 20
1896.4279566021721
 10
5406.8212183424575
 20
1910.4765625
 10
5403.28286729689
 20
1945.0578728627145
 10
5402.626665106723
 20
1951.1250000000007
 10
5398.230252585473
 20
1991.7734375000005
 10
5398.023168326855
 20
1993.6881012179701
 10
5393.6096763826
 20
2032.4218750000002
 10
5392.481836931467
 20
2042.3200415117794
 10
5388.801600938177
 20
2073.0703125
 10
5386.6611387606
 20
2090.954978624819
 10
5383.807284718691
 20
2113.71875
 10
5380.563339464128
 20
2139.594084563043
 10
5378.627994114811
 20
2154.3671874999995
 10
5374.190704691925
 20
2188.238420574
 10
5373.26500212586
 20
2195.0156249999995
 10
5367.712806775826
 20
2235.6640625
 10
5367.5455000938655
 20
2236.8889392876954
 10
5361.942382108944
 20
2276.3125
 10
5360.629991319824
 20
2285.5464868788044
 10
5355.992865754605
 20
2316.9609375000005
 10
5353.446444019673
 20
2334.2118052472033
 10
5349.865539245419
 20
2357.6093750000005
 10
5345.99712384329
 20
2382.8855342139686
 10
5343.561684167712
 20
2398.2578125000005
 10
5338.284296440546
 20
2431.568213730125
 10
5337.082581160308
 20
2438.90625
 10
5330.425779985574
 20
2479.5546875
 10
5330.3102274613175
 20
2480.260286095618
 10
5323.557887614998
 20
2520.2031249999995
 10
5322.077182555477
 20
2528.962098186102
 10
5316.519315378234
 20
2560.8515625000005
 10
5313.5874273729005
 20
2577.673903685351
 10
5309.311323951378
 20
2601.5
 10
3031.10979235548
 20
2601.5
 10
3026.8336889339575
 20
2577.673903685351
 10
3023.9018009286237
 20
2560.8515625000005
 10
3018.3439337513805
 20
2528.962098186102
 10
3016.863228691859
 20
2520.2031249999995
 10
3010.11088884554
 20
2480.260286095618
 10
3009.9953363212835
 20
2479.5546875
 10
3003.338535146549
 20
2438.90625
 10
3002.1368198663113
 20
2431.568213730125
 10
2996.8594321391456
 20
2398.2578125000005
 10
2994.4239924635676
 20
2382.8855342139686
 10
2990.5555770614383
 20
2357.6093750000005
 10
2986.974672287184
 20
2334.2118052472033
 10
2984.4282505522524
 20
2316.9609375000005
 10
2979.791124987034
 20
2285.5464868788044
 10
2978.4787341979136
 20
2276.3125
 10
2972.875616212992
 20
2236.8889392876954
 10
2972.708309531032
 20
2235.6640625
 10
2967.1561141809975
 20
2195.0156249999995
 10
2966.2304116149326
 20
2188.238420574
 10
2961.793122192046
 20
2154.3671874999995
 10
2959.85777684273
 20
2139.594084563043
 10
2956.6138315881662
 20
2113.71875
 10
2953.7599775462577
 20
2090.954978624819
 10
2951.6195153686804
 20
2073.0703125
 10
2947.9392793753905
 20
2042.3200415117794
 10
2946.8114399242577
 20
2032.4218750000002
 10
2942.3979479800028
 20
1993.6881012179701
 10
2942.1908637213846
 20
1991.7734375000005
 10
2937.794451200135
 20
1951.1250000000007
 10
2937.1382490099677
 20
1945.0578728627145
 10
2933.5998979644
 20
1910.4765625
 10
2932.162448115161
 20
1896.4279566021721
 10
2929.5973507793865
 20
1869.8281250000002
 10
2927.4728109454554
 20
1847.796835572304
 10
2925.7880224902665
 20
1829.1796875000005
 10
2923.071603150727
 20
1799.1628738668592
 10
2922.1731097272595
 20
1788.5312499999998
 10
2918.9610903808475
 20
1750.524314554253
 10
2918.7537912942116
 20
1747.8828124999998
 10
2915.5637941661066
 20
1707.234375
 10
2915.1435382856935
 20
1701.879277737223
 10
2912.5883772869297
 20
1666.5859375000002
 10
2911.62113380388
 20
1653.225819152856
 10
2909.8118722673535
 20
1625.9375000000005
 10
2908.3947036821783
 20
1604.562951398314
 10
2907.2341374094863
 20
1585.2890624999998
 10
2905.463925656667
 20
1555.8905994797133
 10
2904.8548866579167
 20
1544.640625
 10
2902.8284413656793
 20
1507.208772739347
 10
2902.6738226842103
 20
1503.9921875000002
 10
2900.7198847835016
 20
1463.3437500000005
 10
2900.487892447547
 20
1458.517534200038
 10
2898.9829550394047
 20
1422.6953124999998
 10
2898.441920540603
 20
1409.8169976554184
 10
2897.443219462707
 20
1382.046875
 10
2896.6901672831796
 20
1361.1073247639208
 10
2896.1003833682753
 20
1341.3984375
 10
2895.232274313609
 20
1312.3887221468888
 10
2894.9541544840695
 20
1300.7500000000002
 10
2894.0678832702242
 20
1263.661438491086
 10
2894.0042433829035
 20
1260.1015625
 10
2893.277571445804
 20
1219.4531249999998
 10
2893.196635791358
 20
1214.9257616558184
 10
2892.767972002908
 20
1178.8046875
 10
2892.6181735153423
 20
1166.1820157847726
 10
2892.453740234031
 20
1138.1562500000002
 10
2892.332138080509
 20
1117.4305584226097
 10
2892.334603171195
 20
1097.5078125
 10
2892.3381711251923
 20
1068.6717776362684
 10
2892.4102927793
 20
1056.8593750000002
 10
2892.6359142877227
 20
1019.9060891408695
 10
2892.6805462098464
 20
1016.2109374999999
 10
2893.171518725533
 20
975.5625000000001
 10
2893.2250092064332
 20
971.1339334300493
 10
2893.878512429443
 20
934.9140625000003
 10
2894.105097519657
 20
922.3557729104881
 10
2894.779212087161
 20
894.2656250000001
 10
2895.275820865726
 20
873.5720890403669
 10
2895.873379435162
 20
853.6171874999998
 10
2896.736820882973
 20
824.783379471413
 10
2897.1607824385324
 20
812.96875
 10
2898.4877392097296
 20
775.9901551941911
 10
2898.641195383486
 20
772.3203125000002
 10
2900.3409286439255
 20
731.671875
 10
2900.52821748433
 20
727.1929376862377
 10
2902.2549014845263
 20
691.0234375000002
 10
2902.857897345105
 20
678.3922560626135
 10
2904.361143294104
 20
650.3749999999999
 10
2905.4764204303874
 20
629.5886442284551
 10
2906.659455756402
 20
609.7265625000001
 10
2908.38342837851
 20
580.7826380330434
 10
2909.149646944681
 20
569.0781249999999
 10
2911.578562827805
 20
531.9747724249476
 10
2911.83153126463
 20
528.4296875000001
 10
2914.7321025940746
 20
487.78124999999983
 10
2915.061465416605
 20
483.16557860776624
 10
2917.844804709049
 20
447.13281250000006
 10
2918.8317777832426
 20
434.3555811960003
 10
2921.14857680809
 20
406.4843750000002
 10
2922.88914156605
 20
385.5452953706049
 10
2924.643258461843
 20
365.8359375
 10
2927.2331984033603
 20
336.735224033772
 10
2928.3286947102347
 20
325.18750000000017
 10
2931.863589933505
 20
287.9258549625225
 10
2932.204735860593
 20
284.53906249999994
 10
2936.2991848264105
 20
243.89062500000014
 10
2936.779957794817
 20
239.11765796069685
 10
2940.6036984562174
 20
203.2421874999999
 10
2941.9819436256284
 20
190.31108200899638
 10
2945.098289688092
 20
162.59375000000009
 10
2947.4691890642725
 20
141.50655241271613
 10
2949.782826839151
 20
121.94531249999984
 10
2953.241335749081
 20
92.70446794689668
 10
2954.657181709187
 20
81.29687500000004
 10
2959.298025318387
 20
43.905197998643786
 10
2959.721229232815
 20
40.6484374999998
 10
2965.0033425084243
 20
0.0
  0
TEXT
  5
3A
330
17
100
AcDbEntity
  8
NOTES
100
AcDbText
 10
4020.210558153429
 20
300.0
 30
0.0
 40
60.0
  1
PANEL B x6
100
AcDbText
  0
CIRCLE
  5
3B
330
17
100
AcDbEntity
  8
FEATURE
100
AcDbCircle
 10
4170.210558153429
 20
1450.75
 30
0.0
 40
300.0
  0
CIRCLE
  5
3C
330
17
100
AcDbEntity
  8
FEATURE
100
AcDbCircle
 10
4170.210558153429
 20
1450.75
 30
0.0
 40
275.0
  0
LWPOLYLINE
  5
3D
330
17
100
AcDbEntity
  8
TAPE
100
AcDbPolyline
 90
2
 70
0
 10
3182.589149810281
 20
250.0
 10
5157.831966496577
 20
250.0
  0
LINE
  5
3E
330
17
100
AcDbEntity
  8
GRAIN
100
AcDbLine
 10
3770.210558153429
 20
150.0
 30
0.0
 11
4570.210558153429
 21
150.0
 31
0.0
  0
LWPOLYLINE
  5
3F
330
17
100
AcDbEntity
  8
CUT
100
AcDbPolyline
 90
240
 70
1
 10
5673.08898730084
 20
-24.999999999999996
 10
8011.062957967621
 20
-24.999999999999996
 10
8005.783586020502
 20
4.416225963991347
 10
8001.304510140599
 20
29.37326811083503
 10
7998.3846389079845
 20
45.18982366768433
 10
7992.2856913713385
 20
78.22701430615467
 10
7990.818399911988
 20
85.96193336614648
 10
7983.10696764469
 20
126.61323276823178
 10
7983.01662199477
 20
127.08949553464116
 10
7975.169802214522
 20
167.38386525019584
 10
7973.499586275557
 20
175.9606263373948
 10
7967.069801562031
 20
208.15303223949954
 10
7963.736867869768
 20
224.8402401393871
 10
7958.808191702253
 20
248.92074631879478
 10
7953.73074982537
 20
273.72809140218726
 10
7950.386188190764
 20
289.6870208558772
 10
7943.483514584763
 20
322.62385777351875
 10
7941.804995666622
 20
330.4518699326565
 10
7933.088354237581
 20
371.1031693347392
 10
7932.997443989194
 20
371.52714223256106
 10
7924.153812751277
 20
411.8666076788943
 10
7922.274819284879
 20
420.43747523006857
 10
7915.064308170685
 20
452.6286505982306
 10
7911.317921130665
 20
469.35431682248026
 10
7905.820989347976
 20
493.38931391775355
 10
7900.129029607085
 20
518.2770587992864
 10
7896.424992180546
 20
534.1486139194201
 10
7888.710424226672
 20
567.2050268030026
 10
7886.877439359956
 20
574.9065672845614
 10
7877.202333867124
 20
615.5578666866425
 10
7877.06438394539
 20
616.1374824412302
 10
7867.3180259599285
 20
656.3144904410258
 10
7865.193187175035
 20
665.073625390335
 10
7857.286110876321
 20
697.0698019024709
 10
7853.099111796539
 20
714.012595490367
 10
7847.10764787282
 20
737.8238186310284
 10
7840.784435173999
 20
762.9534748309864
 10
7836.783681997063
 20
778.5765583815873
 10
7828.251434169383
 20
811.8952898281372
 10
7826.315243992
 20
819.3280390588893
 10
7815.725804720392
 20
859.9793384609712
 10
7815.502385157792
 20
860.8370132913922
 10
7804.9360930461235
 20
900.7295780769339
 10
7802.539564043192
 20
909.777566481902
 10
7794.00555680874
 20
941.4785947102132
 10
7789.365246274545
 20
958.7158211609693
 10
7782.935160310131
 20
982.2264064679222
 10
7775.981706862258
 20
1007.6506016293658
 10
7771.725853340421
 20
1022.973031449403
 10
7762.391220394885
 20
1056.5806867575297
 10
7760.378571195864
 20
1063.7184877119932
 10
7748.916104575863
 20
1104.3697871140769
 10
7748.596061056025
 20
1105.5048120068789
 10
7737.261866141801
 20
1145.1140926407536
 10
7734.5985026413655
 20
1154.421671442526
 10
7725.472994251783
 20
1185.8572653095823
 10
7720.400818575809
 20
1203.3299197377266
 10
7713.550358384266
 20
1226.5993228648742
 10
7706.005281930665
 20
1252.228174170472
 10
7701.494813925011
 20
1267.340282889961
 10
7691.414165440839
 20
1301.1150166126708
 10
7689.307202268721
 20
1308.0801627815067
 10
7677.010146519608
 20
1348.7314621835915
 10
7676.62974152202
 20
1349.9889955124202
 10
7664.528742706405
 20
1389.4702791273357
 10
7661.654282287814
 20
1398.8486278699027
 10
7651.918317389357
 20
1430.2080500752083
 10
7646.490059566804
 20
1447.6924012075422
 10
7639.179649637806
 20
1470.9447917236926
 10
7631.139344919533
 20
1496.518775534986
 10
7626.313505410573
 20
1511.6805204933964
 10
7615.6044096553715
 20
1545.3261853096667
 10
7613.320637723558
 20
1552.415252509718
 10
7600.224655706977
 20
1593.0665519118015
 10
7599.887524849273
 20
1594.1130413936016
 10
7586.950068406591
 20
1633.8003029866184
 10
7583.990961358406
 20
1642.8777330072203
 10
7573.551529198034
 20
1674.533088600938
 10
7567.916989838643
 20
1691.6186296809785
 10
7560.029734644228
 20
1715.2649238884048
 10
7551.6678807609205
 20
1740.3340832056044
 10
7546.385369655849
 20
1755.9958236196244
 10
7535.24590442746
 20
1789.0224295818036
 10
7532.619107719053
 20
1796.7258021872103
 10
7518.757296155256
 20
1837.3771015892917
 10
7518.653330987846
 20
1837.681990970332
 10
7504.720400300272
 20
1878.1061729935784
 10
7501.892430454962
 20
1886.3110776433239
 10
7490.564137265201
 20
1918.8343508289306
 10
7484.965472720815
 20
1934.907989937795
 10
7476.289132114294
 20
1959.5616482705987
 10
7467.874727572208
 20
1983.4710202123415
 10
7461.896000176622
 20
2000.2880780620424
 10
7450.622464706305
 20
2031.9984548079217
 10
7447.38534733957
 20
2041.013652502671
 10
7433.210953746085
 20
2080.4885760138063
 10
7432.757770351123
 20
2081.7383834359584
 10
7418.017504334071
 20
2122.389682838042
 10
7415.64246425568
 20
2128.939664039666
 10
7403.131269575569
 20
2163.1135816399456
 10
7397.919265755638
 20
2177.349998994859
 10
7388.130411912085
 20
2203.836659207592
 10
7380.04362773808
 20
2225.7178628759475
 10
7373.01549172402
 20
2244.558925948175
 10
7362.017819681803
 20
2274.041541563544
 10
7357.787062457692
 20
2285.2803917680208
 10
7343.844111067304
 20
2322.319326829533
 10
7342.4456710143395
 20
2326.0010660617895
 10
7327.005032309984
 20
2366.6523654638736
 10
7325.524771391767
 20
2370.549518355786
 10
7311.414467960229
 20
2407.372257103837
 10
7307.062070183995
 20
2418.7304257654414
 10
7295.713106100069
 20
2448.091374429215
 10
7288.458277019333
 20
2466.8603706678814
 10
7279.901470411125
 20
2488.809725235515
 10
7269.715661534545
 20
2514.937688718497
 10
7263.980080796685
 20
2529.5273167638634
 10
7250.83649344271
 20
2562.960731694365
 10
7247.949453886564
 20
2570.2441556902836
 10
7231.835891165466
 20
2610.8954550923663
 10
7225.577882075392
 20
2626.6831617333355
 10
6458.5740631930685
 20
2626.6831617333355
 10
6452.316054102995
 20
2610.8954550923663
 10
6436.202491381897
 20
2570.2441556902836
 10
6433.315451825751
 20
2562.960731694365
 10
6420.171864471776
 20
2529.5273167638634
 10
6414.436283733916
 20
2514.937688718497
 10
6404.250474857336
 20
2488.809725235515
 10
6395.693668249128
 20
2466.8603706678814
 10
6388.4388391683915
 20
2448.091374429215
 10
6377.089875084465
 20
2418.7304257654414
 10
6372.737477308232
 20
2407.372257103837
 10
6358.627173876694
 20
2370.549518355786
 10
6357.146912958477
 20
2366.6523654638736
 10
6341.706274254121
 20
2326.0010660617895
 10
6340.307834201157
 20
2322.319326829533
 10
6326.364882810769
 20
2285.2803917680208
 10
6322.134125586657
 20
2274.041541563544
 10
6311.136453544441
 20
2244.558925948175
 10
6304.10831753038
 20
2225.7178628759475
 10
6296.021533356376
 20
2203.836659207592
 10
6286.232679512823
 20
2177.349998994859
 10
6281.020675692892
 20
2163.1135816399456
 10
6268.50948101278
 20
2128.939664039666
 10
6266.134440934389
 20
2122.389682838042
 10
6251.394174917337
 20
2081.7383834359584
 10
6250.940991522376
 20
2080.4885760138063
 10
6236.76659792889
 20
2041.013652502671
 10
6233.529480562155
 20
2031.9984548079217
 10
6222.255945091839
 20
2000.2880780620424
 10
6216.277217696253
 20
1983.4710202123415
 10
6207.862813154166
 20
1959.5616482705987
 10
6199.186472547645
 20
1934.907989937795
 10
6193.58780800326
 20
1918.8343508289306
 10
6182.259514813499
 20
1886.3110776433239
 10
6179.431544968189
 20
1878.1061729935784
 10
6165.498614280615
 20
1837.681990970332
 10
6165.394649113205
 20
1837.3771015892917
 10
6151.532837549407
 20
1796.7258021872103
 10
6148.9060408410005
 20
1789.0224295818036
 10
6137.766575612612
 20
1755.9958236196244
 10
6132.48406450754
 20
1740.3340832056044
 10
6124.122210624233
 20
1715.2649238884048
 10
6116.234955429818
 20
1691.6186296809785
 10
6110.600416070427
 20
1674.533088600938
 10
6100.160983910055
 20
1642.8777330072203
 10
6097.20187686187
 20
1633.8003029866184
 10
6084.264420419187
 20
1594.1130413936016
 10
6083.927289561484
 20
1593.0665519118015
 10
6070.831307544902
 20
1552.415252509718
 10
6068.547535613089
 20
1545.3261853096667
 10
6057.838439857887
 20
1511.6805204933964
 10
6053.012600348928
 20
1496.518775534986
 10
6044.972295630655
 20
1470.9447917236926
 10
6037.6618857016565
 20
1447.6924012075422
 10
6032.233627879104
 20
1430.2080500752083
 10
6022.497662980647
 20
1398.8486278699027
 10
6019.623202562056
 20
1389.4702791273357
 10
6007.522203746441
 20
1349.9889955124202
 10
6007.141798748853
 20
1348.7314621835915
 10
5994.8447429997395
 20
1308.0801627815067
 10
5992.737779827622
 20
1301.1150166126708
 10
5982.65713134345
 20
1267.340282889961
 10
5978.146663337796
 20
1252.228174170472
 10
5970.601586884195
 20
1226.5993228648742
 10
5963.751126692651
 20
1203.3299197377266
 10
5958.678951016677
 20
1185.8572653095823
 10
5949.553442627095
 20
1154.421671442526
 10
5946.89007912666
 20
1145.1140926407536
 10
5935.555884212436
 20
1105.5048120068789
 10
5935.235840692598
 20
1104.3697871140769
 10
5923.773374072596
 20
1063.7184877119932
 10
5921.760724873576
 20
1056.5806867575297
 10
5912.42609192804
 20
1022.973031449403
 10
5908.170238406203
 20
1007.6506016293658
 10
5901.216784958329
 20
982.2264064679222
 10
5894.786698993916
 20
958.7158211609693
 10
5890.146388459721
 20
941.4785947102132
 10
5881.612381225269
 20
909.777566481902
 10
5879.215852222337
 20
900.7295780769339
 10
5868.649560110669
 20
860.8370132913922
 10
5868.426140548068
 20
859.9793384609712
 10
5857.83670127646
 20
819.3280390588893
 10
5855.900511099077
 20
811.8952898281372
 10
5847.368263271398
 20
778.5765583815873
 10
5843.367510094462
 20
762.9534748309864
 10
5837.044297395641
 20
737.8238186310284
 10
5831.052833471922
 20
714.012595490367
 10
5826.86583439214
 20
697.0698019024709
 10
5818.958758093426
 20
665.073625390335
 10
5816.833919308532
 20
656.3144904410258
 10
5807.087561323071
 20
616.1374824412302
 10
5806.949611401336
 20
615.5578666866425
 10
5797.274505908505
 20
574.9065672845614
 10
5795.441521041788
 20
567.2050268030026
 10
5787.726953087915
 20
534.1486139194201
 10
5784.022915661376
 20
518.2770587992864
 10
5778.3309559204845
 20
493.38931391775355
 10
5772.8340241377955
 20
469.35431682248026
 10
5769.087637097776
 20
452.6286505982306
 10
5761.877125983581
 20
420.43747523006857
 10
5759.998132517184
 20
411.8666076788943
 10
5751.154501279267
 20
371.52714223256106
 10
5751.063591030879
 20
371.1031693347392
 10
5742.346949601839
 20
330.4518699326565
 10
5740.668430683698
 20
322.62385777351875
 10
5733.765757077696
 20
289.6870208558772
 10
5730.42119544309
 20
273.72809140218726
 10
5725.343753566208
 20
248.92074631879478
 10
5720.415077398693
 20
224.8402401393871
 10
5717.08214370643
 20
208.15303223949954
 10
5710.652358992904
 20
175.9606263373948
 10
5708.982143053939
 20
167.38386525019584
 10
5701.135323273691
 20
127.08949553464116
 10
5701.044977623771
 20
126.61323276823178
 10
5693.333545356472
 20
85.96193336614648
 10
5691.866253897122
 20
78.22701430615467
 10
5685.767306360476
 20
45.18982366768433
 10
5682.847435127862
 20
29.37326811083503
 10
5678.368359247958
 20
4.416225963991347
  0
LWPOLYLINE
  5
40
330
17
100
AcDbEntity
  8
SEW
100
AcDbPolyline
 90
236
 70
1
 10
7981.176738432179
 20
0.0
 10
7976.708642044261
 20
24.89586532118082
 10
7973.800054358097
 20
40.65129940208312
 10
7967.712263257832
 20
73.62805710301323
 10
7966.2564252063685
 20
81.30259880416713
 10
7958.54499293907
 20
121.95389820625024
 10
7958.465971144289
 20
122.3704665592571
 10
7950.6307652413925
 20
162.60519760833336
 10
7948.972031353505
 20
171.12299697292244
 10
7942.5540119000525
 20
203.25649701041647
 10
7939.232709535356
 20
219.88546961396872
 10
7934.315941229154
 20
243.9077964125005
 10
7929.250271339714
 20
268.65762596703394
 10
7925.91775169043
 20
284.5590958145836
 10
7919.026982416455
 20
317.43912995333636
 10
7917.36063143268
 20
325.2103952166667
 10
7908.643990003639
 20
365.8616946187498
 10
7908.565108415452
 20
366.22957014567083
 10
7899.7337631853925
 20
406.51299402083384
 10
7897.866914986581
 20
415.028461975516
 10
7890.668800373949
 20
447.16429342291696
 10
7886.934667779715
 20
463.8352499314378
 10
7881.450235703902
 20
487.81559282500007
 10
7875.770632444727
 20
512.6493097480402
 10
7872.079190928362
 20
528.4668922270841
 10
7864.377074631493
 20
561.4699505848532
 10
7862.556775157018
 20
569.1181916291672
 10
7852.881669664186
 20
609.7694910312504
 10
7852.7562599898865
 20
610.2964171946539
 10
7843.022670432187
 20
650.4207904333343
 10
7840.9104541697825
 20
659.127892080793
 10
7833.016223155923
 20
691.0720898354175
 10
7828.841922821054
 20
707.963497643239
 10
7822.863375122032
 20
731.7233892375006
 10
7816.5529315935755
 20
756.802298313092
 10
7812.56515991781
 20
772.3746886395837
 10
7804.0457461372225
 20
805.6433026754535
 10
7802.122597320412
 20
813.0259880416677
 10
7791.533158048803
 20
853.6772874437509
 10
7791.322632101867
 20
854.4854655805984
 10
7780.769436031564
 20
894.3285868458339
 10
7778.385855137385
 20
903.3276902434766
 10
7769.864993676905
 20
934.9798862479171
 10
7765.23768089365
 20
952.1688303316562
 10
7758.820785709846
 20
975.631185650001
 10
7751.880375020536
 20
1001.007692041882
 10
7747.637752773848
 20
1016.2824850520842
 10
7738.316203167918
 20
1049.843036165507
 10
7736.316821431908
 20
1056.9337844541674
 10
7724.854354811907
 20
1097.5850838562512
 10
7724.547430985669
 20
1098.6735801430996
 10
7713.226535612537
 20
1138.2363832583344
 10
7710.5763241236655
 20
1147.4980001086071
 10
7701.4641434317955
 20
1178.8876826604176
 10
7696.405148231778
 20
1196.3149329235011
 10
7689.568040152819
 20
1219.5389820625016
 10
7682.036168959885
 20
1245.122978201403
 10
7677.539073911037
 20
1260.1902814645846
 10
7667.471651957857
 20
1293.9207003237173
 10
7665.3780791786
 20
1300.8415808666678
 10
7653.081023429487
 20
1341.492880268751
 10
7652.71386287557
 20
1342.706630446875
 10
7640.626268634597
 20
1382.144179670834
 10
7637.765067362899
 20
1391.4792685018078
 10
7628.04251811193
 20
1422.795479072918
 10
7622.6275310697165
 20
1440.2370851863457
 10
7615.330544888939
 20
1463.446778475001
 10
7607.303519645897
 20
1488.9785239512455
 10
7602.491109142139
 20
1504.0980778770843
 10
7591.7952987413155
 20
1537.7020029806258
 10
7589.524958347889
 20
1544.7493772791684
 10
7576.428976331308
 20
1585.4006766812513
 10
7576.105134005846
 20
1586.405917167589
 10
7563.1811090225565
 20
1626.0519760833345
 10
7560.235291089362
 20
1635.088640085879
 10
7549.809287800557
 20
1666.7032754854185
 10
7544.18803564174
 20
1683.7485259584107
 10
7536.314204317375
 20
1707.3545748875017
 10
7527.9656333128505
 20
1732.383911623602
 10
7522.696538749631
 20
1748.0058742895847
 10
7511.57034975257
 20
1780.9931185003932
 10
7508.956960010088
 20
1788.6571736916687
 10
7495.095148446289
 20
1829.308473093752
 10
7495.004450610772
 20
1829.5744545529376
 10
7481.084915136426
 20
1869.959772495835
 10
7478.2702015373325
 20
1878.1262162559083
 10
7466.95528969437
 20
1910.611071897918
 10
7461.369868182123
 20
1926.6466905614363
 10
7452.706892997422
 20
1951.2623713000012
 10
7444.30571619502
 20
1975.1341568687035
 10
7438.340336285118
 20
1991.9136707020853
 10
7427.080011225896
 20
2023.5868889971957
 10
7423.856221437207
 20
2032.5649701041684
 10
7409.695018924626
 20
2072.003157164725
 10
7409.25514126055
 20
2073.2162695062516
 10
7394.514875243497
 20
2113.8675689083357
 10
7392.153004941085
 20
2120.38122997125
 10
7379.655092229517
 20
2154.518868310419
 10
7374.456234925145
 20
2168.719376389607
 10
7364.680637389383
 20
2195.1701677125016
 10
7356.606974526682
 20
2217.0158677642357
 10
7349.592067270466
 20
2235.8214671145856
 10
7338.60748939557
 20
2265.2689798190445
 10
7334.389931491872
 20
2276.472766516669
 10
7320.460045181682
 20
2313.4769946754955
 10
7319.074773118441
 20
2317.124065918752
 10
7303.634134414086
 20
2357.775365320836
 10
7302.166907534895
 20
2361.6382028820785
 10
7288.069738855901
 20
2398.4266647229183
 10
7283.73034210508
 20
2409.7509054562865
 10
7272.394477609356
 20
2439.0779641250024
 10
7265.152614542113
 20
2457.8134159402525
 10
7256.6088704025005
 20
2479.7292635270855
 10
7246.435990495867
 20
2505.8240624711743
 10
7240.713433116207
 20
2520.3805629291683
 10
7227.582735616219
 20
2553.781189867692
 10
7224.708678274137
 20
2561.0318623312523
 10
7208.595115553039
 20
2601.6831617333355
 10
6475.556829715421
 20
2601.6831617333355
 10
6459.4432669943235
 20
2561.0318623312523
 10
6456.569209652242
 20
2553.781189867692
 10
6443.438512152254
 20
2520.3805629291683
 10
6437.715954772593
 20
2505.8240624711743
 10
6427.54307486596
 20
2479.7292635270855
 10
6418.999330726348
 20
2457.8134159402525
 10
6411.757467659105
 20
2439.0779641250024
 10
6400.4216031633805
 20
2409.7509054562865
 10
6396.08220641256
 20
2398.4266647229183
 10
6381.985037733566
 20
2361.6382028820785
 10
6380.517810854375
 20
2357.775365320836
 10
6365.07717215002
 20
2317.124065918752
 10
6363.691900086778
 20
2313.4769946754955
 10
6349.762013776589
 20
2276.472766516669
 10
6345.5444558728905
 20
2265.2689798190445
 10
6334.559877997995
 20
2235.8214671145856
 10
6327.544970741778
 20
2217.0158677642357
 10
6319.471307879077
 20
2195.1701677125016
 10
6309.695710343316
 20
2168.719376389607
 10
6304.496853038943
 20
2154.518868310419
 10
6291.998940327376
 20
2120.38122997125
 10
6289.637070024964
 20
2113.8675689083357
 10
6274.896804007911
 20
2073.2162695062516
 10
6274.456926343834
 20
2072.003157164725
 10
6260.295723831254
 20
2032.5649701041684
 10
6257.071934042565
 20
2023.5868889971957
 10
6245.811608983343
 20
1991.9136707020853
 10
6239.846229073441
 20
1975.1341568687035
 10
6231.445052271039
 20
1951.2623713000012
 10
6222.782077086337
 20
1926.6466905614363
 10
6217.196655574091
 20
1910.611071897918
 10
6205.881743731128
 20
1878.1262162559083
 10
6203.067030132034
 20
1869.959772495835
 10
6189.147494657688
 20
1829.5744545529376
 10
6189.056796822171
 20
1829.308473093752
 10
6175.194985258373
 20
1788.6571736916687
 10
6172.5815955158905
 20
1780.9931185003932
 10
6161.4554065188295
 20
1748.0058742895847
 10
6156.18631195561
 20
1732.383911623602
 10
6147.837740951086
 20
1707.3545748875017
 10
6139.963909626721
 20
1683.7485259584107
 10
6134.342657467903
 20
1666.7032754854185
 10
6123.916654179098
 20
1635.088640085879
 10
6120.970836245904
 20
1626.0519760833345
 10
6108.046811262615
 20
1586.405917167589
 10
6107.7229689371525
 20
1585.4006766812513
 10
6094.626986920572
 20
1544.7493772791684
 10
6092.356646527145
 20
1537.7020029806258
 10
6081.660836126322
 20
1504.0980778770843
 10
6076.848425622564
 20
1488.9785239512455
 10
6068.821400379522
 20
1463.446778475001
 10
6061.524414198744
 20
1440.2370851863457
 10
6056.109427156531
 20
1422.795479072918
 10
6046.386877905562
 20
1391.4792685018078
 10
6043.525676633863
 20
1382.144179670834
 10
6031.4380823928905
 20
1342.706630446875
 10
6031.070921838974
 20
1341.492880268751
 10
6018.77386608986
 20
1300.8415808666678
 10
6016.680293310604
 20
1293.9207003237173
 10
6006.6128713574235
 20
1260.1902814645846
 10
6002.115776308576
 20
1245.122978201403
 10
5994.583905115642
 20
1219.5389820625016
 10
5987.746797036682
 20
1196.3149329235011
 10
5982.687801836665
 20
1178.8876826604176
 10
5973.575621144795
 20
1147.4980001086071
 10
5970.925409655923
 20
1138.2363832583344
 10
5959.604514282792
 20
1098.6735801430996
 10
5959.297590456554
 20
1097.5850838562512
 10
5947.835123836553
 20
1056.9337844541674
 10
5945.835742100543
 20
1049.843036165507
 10
5936.514192494613
 20
1016.2824850520842
 10
5932.2715702479245
 20
1001.007692041882
 10
5925.331159558615
 20
975.631185650001
 10
5918.914264374811
 20
952.1688303316562
 10
5914.286951591555
 20
934.9798862479171
 10
5905.7660901310755
 20
903.3276902434766
 10
5903.382509236897
 20
894.3285868458339
 10
5892.829313166593
 20
854.4854655805984
 10
5892.618787219658
 20
853.6772874437509
 10
5882.029347948049
 20
813.0259880416677
 10
5880.106199131238
 20
805.6433026754535
 10
5871.586785350651
 20
772.3746886395837
 10
5867.599013674885
 20
756.802298313092
 10
5861.288570146428
 20
731.7233892375006
 10
5855.3100224474065
 20
707.963497643239
 10
5851.135722112537
 20
691.0720898354175
 10
5843.241491098678
 20
659.127892080793
 10
5841.129274836274
 20
650.4207904333343
 10
5831.395685278574
 20
610.2964171946539
 10
5831.2702756042745
 20
609.7694910312504
 10
5821.595170111443
 20
569.1181916291672
 10
5819.7748706369675
 20
561.4699505848532
 10
5812.072754340099
 20
528.4668922270841
 10
5808.381312823733
 20
512.6493097480402
 10
5802.701709564559
 20
487.81559282500007
 10
5797.217277488746
 20
463.8352499314378
 10
5793.4831448945115
 20
447.16429342291696
 10
5786.28503028188
 20
415.028461975516
 10
5784.418182083068
 20
406.51299402083384
 10
5775.586836853008
 20
366.22957014567083
 10
5775.507955264821
 20
365.8616946187498
 10
5766.791313835781
 20
325.2103952166667
 10
5765.124962852005
 20
317.43912995333636
 10
5758.2341935780305
 20
284.5590958145836
 10
5754.901673928746
 20
268.65762596703394
 10
5749.836004039306
 20
243.9077964125005
 10
5744.919235733105
 20
219.88546961396872
 10
5741.597933368408
 20
203.25649701041647
 10
5735.179913914955
 20
171.12299697292244
 10
5733.521180027068
 20
162.60519760833336
 10
5725.6859741241715
 20
122.3704665592571
 10
5725.606952329391
 20
121.95389820625024
 10
5717.895520062092
 20
81.30259880416713
 10
5716.4396820106285
 20
73.62805710301323
 10
5710.351890910363
 20
40.65129940208312
 10
5707.4433032242
 20
24.89586532118082
 10
5702.975206836281
 20
0.0
  0
TEXT
  5
41
330
17
100
AcDbEntity
  8
NOTES
100
AcDbText
 10
6692.07597263423
 20
300.0
 30
0.0
 40
60.0
  1
PANEL C x6
100
AcDbText
  0
LWPOLYLINE
  5
42
330
17
100
AcDbEntity
  8
CUT
100
AcDbPolyline
 90
130
 70
1
 10
9052.90336644151
 20
221.26674427389398
 10
9102.006005739826
 20
195.48057427471855
 10
9129.1886209641
 20
181.7338181701021
 10
9156.579054454014
 20
168.40595160919432
 10
9184.170851511723
 20
155.50011537293958
 10
9211.957509987009
 20
143.01935078864597
 10
9239.932481809554
 20
130.9665990132797
 10
9268.089174532019
 20
119.34470034036723
 10
9296.420952883593
 20
108.15639353066386
 10
9324.921140333627
 20
97.4043151667521
 10
9353.583020664993
 20
87.09099903171592
 10
9382.399839556798
 20
77.21887551204296
 10
9411.364806176072
 20
67.79027102489013
 10
9440.471094778062
 20
58.80740746985199
 10
9469.711846314758
 20
50.27240170535888
 10
9499.080170051264
 20
42.18726504982738
 10
9528.569145189625
 20
34.55390280768293
 10
9558.171822499768
 20
27.37411382036578
 10
9587.881225957102
 20
20.649590042423185
 10
9617.690354386472
 20
14.381916142793328
 10
9647.592183112014
 20
8.572569131368047
 10
9677.579665612557
 20
3.2229180109289435
 10
9707.645735182174
 20
-1.6657765454652953
 10
9737.783306595487
 20
-6.09236249156328
 10
9767.985277777338
 20
-10.055796679407408
 10
9798.24453147643
 20
-13.55514510515551
 10
9828.55393694254
 20
-16.589583129184298
 10
9858.906351606925
 20
-19.158395670421093
 10
9889.294622765497
 20
-21.260977374854747
 10
9919.711589264405
 20
-22.89683275819116
 10
9950.150083187584
 20
-24.06557632261714
 10
9980.602931545924
 20
-24.766932647644325
 10
10011.06295796762
 20
-25.000736455013673
 10
10041.522984389318
 20
-24.766932647644325
 10
10071.975832747657
 20
-24.06557632261714
 10
10102.414326670836
 20
-22.89683275819116
 10
10132.831293169742
 20
-21.260977374854747
 10
10163.219564328316
 20
-19.158395670421093
 10
10193.5719789927
 20
-16.589583129184298
 10
10223.881384458811
 20
-13.55514510515551
 10
10254.140638157904
 20
-10.055796679407408
 10
10284.342609339754
 20
-6.09236249156328
 10
10314.480180753068
 20
-1.6657765454652953
 10
10344.546250322685
 20
3.22291801092894
 10
10374.533732823227
 20
8.572569131368047
 10
10404.43556154877
 20
14.381916142793328
 10
10434.244689978139
 20
20.649590042423185
 10
10463.954093435474
 20
27.37411382036578
 10
10493.556770745616
 20
34.55390280768293
 10
10523.045745883977
 20
42.18726504982738
 10
10552.414069620483
 20
50.272401705358874
 10
10581.654821157179
 20
58.807407469851995
 10
10610.761109759169
 20
67.79027102489013
 10
10639.726076378443
 20
77.21887551204297
 10
10668.542895270248
 20
87.09099903171615
 10
10697.204775601615
 20
97.40431516675208
 10
10725.704963051649
 20
108.15639353066385
 10
10754.036741403223
 20
119.34470034036723
 10
10782.193434125687
 20
130.9665990132797
 10
10810.168405948232
 20
143.01935078864597
 10
10837.955064423519
 20
155.50011537293958
 10
10865.546861481227
 20
168.40595160919432
 10
10892.937294971141
 20
181.7338181701021
 10
10920.119910195415
 20
195.48057427471855
 10
10969.222549493732
 20
221.266744273894
 10
10473.917275171367
 20
1147.1046233551474
 10
10439.085175139546
 20
1128.812603502772
 10
10426.286457514305
 20
1122.340053007008
 10
10413.389890315822
 20
1116.0647333126906
 10
10400.39851268711
 20
1109.9881232314826
 10
10387.315386113747
 20
1104.111654748096
 10
10374.143593702433
 20
1098.4367126828354
 10
10360.886239454425
 20
1092.9646343652594
 10
10347.546447534076
 20
1087.6967093190306
 10
10334.127361532606
 20
1082.6341789580347
 10
10320.632143727295
 20
1077.7782362938317
 10
10307.063974336274
 20
1073.1300256545203
 10
10293.426050769098
 20
1068.690642415067
 10
10279.721586873255
 20
1064.4611327391797
 10
10265.95381217681
 20
1060.4424933327696
 10
10252.12597112734
 20
1056.6356712090756
 10
10238.241322327374
 20
1053.0415634654935
 10
10224.303137766483
 20
1049.6610170721713
 10
10210.314702050217
 20
1046.4948286724166
 10
10196.279311626071
 20
1043.5437443949618
 10
10182.20027400666
 20
1040.8084596781378
 10
10168.080906990292
 20
1038.2896191059876
 10
10153.924537879098
 20
1035.9878162563682
 10
10139.734502694953
 20
1033.9035935610707
 10
10125.514145393314
 20
1032.0374421779934
 10
10111.2668170752
 20
1030.389801875397
 10
10096.995875197494
 20
1028.9610609282731
 10
10082.704682781734
 20
1027.7515560268425
 10
10068.396607621604
 20
1026.761572197214
 10
10054.075021489294
 20
1025.991342734217
 10
10039.743299340924
 20
1025.4410491464225
 10
10025.404818521218
 20
1025.110821113371
 10
10011.06295796762
 20
1025.0007364550138
 10
9996.721097414023
 20
1025.110821113371
 10
9982.382616594317
 20
1025.4410491464225
 10
9968.050894445947
 20
1025.991342734217
 10
9953.729308313637
 20
1026.761572197214
 10
9939.421233153507
 20
1027.7515560268425
 10
9925.130040737748
 20
1028.9610609282731
 10
9910.85909886004
 20
1030.389801875397
 10
9896.611770541927
 20
1032.0374421779934
 10
9882.391413240288
 20
1033.9035935610707
 10
9868.201378056143
 20
1035.9878162563682
 10
9854.04500894495
 20
1038.2896191059876
 10
9839.925641928581
 20
1040.8084596781378
 10
9825.84660430917
 20
1043.5437443949618
 10
9811.811213885025
 20
1046.4948286724166
 10
9797.822778168758
 20
1049.6610170721713
 10
9783.884593607867
 20
1053.0415634654935
 10
9769.999944807902
 20
1056.6356712090756
 10
9756.172103758432
 20
1060.4424933327696
 10
9742.404329061987
 20
1064.4611327391797
 10
9728.699865166143
 20
1068.690642415067
 10
9715.061941598968
 20
1073.1300256545203
 10
9701.493772207947
 20
1077.7782362938317
 10
9687.998554402635
 20
1082.6341789580347
 10
9674.579468401165
 20
1087.6967093190306
 10
9661.239676480816
 20
1092.9646343652594
 10
9647.982322232809
 20
1098.4367126828354
 10
9634.810529821494
 20
1104.111654748096
 10
9621.727403248131
 20
1109.9881232314826
 10
9608.736025619419
 20
1116.0647333126906
 10
9595.839458420936
 20
1122.340053007008
 10
9583.040740795695
 20
1128.812603502772
 10
9548.208640763874
 20
1147.1046233551474
  0
LWPOLYLINE
  5
43
330
17
100
AcDbEntity
  8
SEW
100
AcDbPolyline
 90
130
 70
1
 10
9086.83092808427
 20
231.68735790059802
 10
9113.45953504156
 20
217.70338889904917
 10
9140.29966690524
 20
204.12983302513575
 10
9167.344998658906
 20
190.96988895776468
 10
9194.589156929722
 20
178.22665790607294
 10
9222.02572149036
 20
165.90314287861284
 10
9249.648226771948
 20
154.0022479756762
 10
9277.450163387717
 20
142.52677770492906
 10
9305.424979666976
 20
131.47943632051363
 10
9333.56608319904
 20
120.86282718577812
 10
9361.866842386771
 20
110.67945215977937
 10
9390.320588009348
 20
100.93171100770815
 10
9418.9206147939
 20
91.6219008353707
 10
9447.660182995645
 20
82.75221554786461
 10
9476.532519986136
 20
74.32474533257394
 10
9505.530821849276
 20
66.34147616660479
 10
9534.64825498469
 20
58.8042893487799
 10
9563.8779577181
 20
51.71496105630147
 10
9593.213041918316
 20
45.075161926184435
 10
9622.646594620457
 20
38.88645666156387
 10
9652.17167965503
 20
33.150303662962784
 10
9681.78133928247
 20
27.868054684613732
 10
9711.468595832772
 20
23.040954515910705
 10
9741.226453349811
 20
18.670140688067825
 10
9771.04789923998
 20
14.756643206053521
 10
9800.925905924743
 20
11.301384305866025
 10
9830.853432496719
 20
8.305178237203004
 10
9860.8234263789
 20
5.768731071578381
 10
9890.82882498665
 20
3.6926405359345438
 10
9920.862557392014
 20
2.0773958717841268
 10
9950.917545990036
 20
0.923377719917351
 10
9980.986708166627
 20
0.2308580307026631
 10
10011.06295796762
 20
0.0
 10
10041.139207768614
 20
0.2308580307026631
 10
10071.208369945205
 20
0.923377719917351
 10
10101.263358543227
 20
2.0773958717841268
 10
10131.297090948592
 20
3.6926405359345438
 10
10161.302489556341
 20
5.768731071578381
 10
10191.272483438523
 20
8.305178237203004
 10
10221.200010010498
 20
11.301384305866025
 10
10251.07801669526
 20
14.756643206053521
 10
10280.89946258543
 20
18.670140688067825
 10
10310.65732010247
 20
23.040954515910705
 10
10340.344576652771
 20
27.868054684613732
 10
10369.954236280211
 20
33.150303662962784
 10
10399.479321314782
 20
38.88645666156387
 10
10428.912874016925
 20
45.075161926184435
 10
10458.247958217142
 20
51.71496105630147
 10
10487.477660950552
 20
58.8042893487799
 10
10516.595094085966
 20
66.34147616660479
 10
10545.593395949105
 20
74.32474533257394
 10
10574.465732939596
 20
82.75221554786461
 10
10603.20530114134
 20
91.6219008353707
 10
10631.805327925893
 20
100.93171100770815
 10
10660.25907354847
 20
110.67945215977959
 10
10688.5598327362
 20
120.86282718577812
 10
10716.700936268266
 20
131.47943632051363
 10
10744.675752547524
 20
142.52677770492906
 10
10772.477689163294
 20
154.0022479756762
 10
10800.100194444882
 20
165.90314287861284
 10
10827.53675900552
 20
178.22665790607294
 10
10854.780917276335
 20
190.96988895776468
 10
10881.82624903
 20
204.12983302513575
 10
10908.666380893681
 20
217.70338889904917
 10
10935.294987850972
 20
231.68735790059802
 10
10463.57634068598
 20
1113.4364820378617
 10
10450.53870444128
 20
1106.5897888784414
 10
10437.397503455446
 20
1099.9440381519744
 10
10424.155834520714
 20
1093.50079596412
 10
10410.81681810511
 20
1087.2615806983492
 10
10397.3835976171
 20
1081.2278626581292
 10
10383.859338664826
 20
1075.401063720439
 10
10370.247228310123
 20
1069.7825570006976
 10
10356.55047431746
 20
1064.373666529181
 10
10342.77230439802
 20
1059.1756669390086
 10
10328.915965449072
 20
1054.1897831657682
 10
10314.984722788822
 20
1049.417190158855
 10
10300.981859386926
 20
1044.8590126045865
 10
10286.91067509084
 20
1040.5163246611671
 10
10272.774485848186
 20
1036.3901497055544
 10
10258.576622925351
 20
1032.4814600922982
 10
10244.320432122437
 20
1028.7911769243965
 10
10230.009272984815
 20
1025.3201698362354
 10
10215.646518011432
 20
1022.0692567886551
 10
10201.235551860056
 20
1019.0392038761913
 10
10186.779770549678
 20
1016.230725146543
 10
10172.282580660205
 20
1013.6444824323028
 10
10157.747398529695
 20
1011.2810851949922
 10
10143.177649449277
 20
1009.1410903814398
 10
10128.576766855957
 20
1007.2250022925324
 10
10113.948191523514
 20
1005.5332724643757
 10
10099.295370751672
 20
1004.0662995618859
 10
10084.62175755371
 20
1002.824429284843
 10
10069.930809842755
 20
1001.8079542864249
 10
10055.225989616903
 20
1001.0171141042416
 10
10040.510762143376
 20
1000.452095103888
 10
10025.788595141921
 20
1000.113030435024
 10
10011.06295796762
 20
1000.0
 10
9996.33732079332
 20
1000.113030435024
 10
9981.615153791865
 20
1000.452095103888
 10
9966.899926318338
 20
1001.0171141042416
 10
9952.195106092486
 20
1001.8079542864249
 10
9937.504158381531
 20
1002.824429284843
 10
9922.83054518357
 20
1004.0662995618859
 10
9908.177724411727
 20
1005.5332724643757
 10
9893.549149079285
 20
1007.2250022925324
 10
9878.948266485964
 20
1009.1410903814398
 10
9864.378517405545
 20
1011.2810851949922
 10
9849.843335275036
 20
1013.6444824323028
 10
9835.346145385563
 20
1016.230725146543
 10
9820.890364075185
 20
1019.0392038761913
 10
9806.47939792381
 20
1022.0692567886551
 10
9792.116642950426
 20
1025.3201698362354
 10
9777.805483812805
 20
1028.7911769243965
 10
9763.54929300989
 20
1032.4814600922982
 10
9749.351430087056
 20
1036.3901497055544
 10
9735.215240844404
 20
1040.5163246611671
 10
9721.144056548315
 20
1044.8590126045865
 10
9707.141193146419
 20
1049.417190158855
 10
9693.209950486169
 20
1054.1897831657682
 10
9679.35361153722
 20
1059.1756669390086
 10
9665.57544161778
 20
1064.373666529181
 10
9651.878687625118
 20
1069.7825570006976
 10
9638.266577270415
 20
1075.401063720439
 10
9624.742318318142
 20
1081.2278626581292
 10
9611.309097830132
 20
1087.2615806983492
 10
9597.970081414527
 20
1093.50079596412
 10
9584.728412479795
 20
1099.9440381519744
 10
9571.587211493961
 20
1106.5897888784414
 10
9558.54957524926
 20
1113.4364820378617
  0
TEXT
  5
44
330
17
100
AcDbEntity
  8
NOTES
100
AcDbText
 10
9861.06295796762
 20
500.0
 30
0.0
 40
60.0
  1
TUBE x1
100
AcDbText
  0
LWPOLYLINE
  5
45
330
17
100
AcDbEntity
  8
CUT
100
AcDbPolyline
 90
128
 70
1
 10
12186.070489768654
 20
400.0
 10
12185.859685532174
 20
408.5872125752583
 10
12185.227780668607
 20
417.1537378032719
 10
12184.176297492117
 20
425.67893817442734
 10
12182.707769117773
 20
434.1422757343112
 10
12180.82573335906
 20
442.5233615614411
 10
12178.534724204967
 20
450.8020048859628
 10
12175.840260897212
 20
458.9582617309841
 10
12172.748834633912
 20
466.97248295936174
 10
12169.267892931715
 20
474.82536161019357
 10
12165.405821684073
 20
482.49797941097876
 10
12161.171924958899
 20
489.9718523533934
 10
12156.57640258425
 20
497.2289752228851
 10
12151.630325576049
 20
504.2518649748125
 10
12146.345609467031
 20
511.0236028526307
 10
12140.73498560119
 20
517.5278751466577
 10
12134.811970462852
 20
523.7490124952304
 10
12128.590833114278
 20
529.6720276335689
 10
12122.086560820251
 20
535.2826514994098
 10
12115.314822942433
 20
540.5673676084278
 10
12108.291933190505
 20
545.5134446166298
 10
12101.034810321014
 20
550.1089669912781
 10
12093.5609373786
 20
554.3428637164516
 10
12085.888319577814
 20
558.2049349640939
 10
12078.035440926982
 20
561.6858766662921
 10
12070.021219698605
 20
564.777302929591
 10
12061.864962853584
 20
567.4717662373453
 10
12053.586319529062
 20
569.7627753914396
 10
12045.205233701932
 20
571.6448111501529
 10
12036.741896142048
 20
573.1133395244958
 10
12028.216695770892
 20
574.1648227009864
 10
12019.650170542878
 20
574.7967275645535
 10
12011.06295796762
 20
575.0075318010325
 10
12002.475745392363
 20
574.7967275645535
 10
11993.909220164349
 20
574.1648227009864
 10
11985.384019793193
 20
573.1133395244958
 10
11976.920682233309
 20
571.6448111501529
 10
11968.539596406179
 20
569.7627753914396
 10
11960.260953081657
 20
567.4717662373453
 10
11952.104696236636
 20
564.777302929591
 10
11944.09047500826
 20
561.6858766662921
 10
11936.237596357427
 20
558.2049349640939
 10
11928.564978556642
 20
554.3428637164516
 10
11921.091105614227
 20
550.1089669912781
 10
11913.833982744736
 20
545.5134446166298
 10
11906.811092992808
 20
540.5673676084278
 10
11900.03935511499
 20
535.2826514994098
 10
11893.535082820963
 20
529.6720276335689
 10
11887.31394547239
 20
523.7490124952304
 10
11881.390930334052
 20
517.5278751466578
 10
11875.78030646821
 20
511.0236028526307
 10
11870.495590359193
 20
504.2518649748125
 10
11865.54951335099
 20
497.2289752228851
 10
11860.953990976343
 20
489.97185235339333
 10
11856.72009425117
 20
482.4979794109788
 10
11852.858023003526
 20
474.82536161019357
 10
11849.377081301329
 20
466.97248295936174
 10
11846.28565503803
 20
458.95826173098413
 10
11843.591191730275
 20
450.8020048859628
 10
11841.30018257618
 20
442.5233615614411
 10
11839.418146817468
 20
434.1422757343113
 10
11837.949618443125
 20
425.6789381744273
 10
11836.898135266634
 20
417.1537378032719
 10
11836.266230403067
 20
408.5872125752583
 10
11836.055426166587
 20
400.0
 10
11836.266230403067
 20
391.41278742474174
 10
11836.898135266634
 20
382.8462621967281
 10
11837.949618443125
 20
374.3210618255727
 10
11839.418146817468
 20
365.8577242656887
 10
11841.30018257618
 20
357.47663843855895
 10
11843.591191730275
 20
349.19799511403727
 10
11846.28565503803
 20
341.04173826901587
 10
11849.377081301329
 20
333.02751704063826
 10
11852.858023003526
 20
325.17463838980655
 10
11856.720094251168
 20
317.5020205890213
 10
11860.953990976343
 20
310.02814764660667
 10
11865.54951335099
 20
302.7710247771149
 10
11870.495590359193
 20
295.74813502518754
 10
11875.78030646821
 20
288.9763971473694
 10
11881.390930334052
 20
282.4721248533423
 10
11887.31394547239
 20
276.25098750476957
 10
11893.535082820963
 20
270.32797236643114
 10
11900.03935511499
 20
264.7173485005902
 10
11906.811092992808
 20
259.43263239157216
 10
11913.833982744736
 20
254.48655538337013
 10
11921.091105614227
 20
249.89103300872196
 10
11928.564978556642
 20
245.65713628354845
 10
11936.237596357427
 20
241.79506503590608
 10
11944.09047500826
 20
238.31412333370795
 10
11952.104696236636
 20
235.22269707040903
 10
11960.260953081657
 20
232.52823376265474
 10
11968.539596406179
 20
230.23722460856038
 10
11976.920682233309
 20
228.35518884984705
 10
11985.384019793193
 20
226.88666047550421
 10
11993.909220164349
 20
225.83517729901362
 10
12002.475745392363
 20
225.20327243544648
 10
12011.06295796762
 20
224.99246819896746
 10
12019.650170542878
 20
225.20327243544648
 10
12028.216695770892
 20
225.83517729901362
 10
12036.741896142048
 20
226.88666047550421
 10
12045.205233701932
 20
228.35518884984702
 10
12053.586319529062
 20
230.23722460856038
 10
12061.864962853584
 20
232.52823376265468
 10
12070.021219698605
 20
235.222697070409
 10
12078.035440926982
 20
238.31412333370793
 10
12085.888319577814
 20
241.79506503590605
 10
12093.5609373786
 20
245.65713628354843
 10
12101.034810321014
 20
249.89103300872193
 10
12108.291933190505
 20
254.48655538337007
 10
12115.314822942433
 20
259.4326323915721
 10
12122.086560820251
 20
264.7173485005902
 10
12128.590833114278
 20
270.32797236643114
 10
12134.811970462852
 20
276.25098750476945
 10
12140.73498560119
 20
282.47212485334217
 10
12146.345609467031
 20
288.97639714736925
 10
12151.630325576049
 20
295.74813502518754
 10
12156.57640258425
 20
302.7710247771149
 10
12161.171924958899
 20
310.0281476466066
 10
12165.405821684071
 20
317.5020205890212
 10
12169.267892931715
 20
325.17463838980643
 10
12172.748834633912
 20
333.0275170406382
 10
12175.840260897212
 20
341.04173826901587
 10
12178.534724204967
 20
349.19799511403716
 10
12180.82573335906
 20
357.4766384385589
 10
12182.707769117773
 20
365.85772426568866
 10
12184.176297492117
 20
374.32106182557254
 10
12185.227780668607
 20
382.84626219672816
 10
12185.859685532174
 20
391.4127874247417
  0
LWPOLYLINE
  5
46
330
17
100
AcDbEntity
  8
SEW
100
AcDbPolyline
 90
128
 70
1
 10
12161.06295796762
 20
400.0
 10
12160.882276398397
 20
407.3601511491127
 10
12160.34066696845
 20
414.7025710494341
 10
12159.439434462338
 20
422.00957116830426
 10
12158.180750028105
 20
429.2635483024192
 10
12156.567645946801
 20
436.4470269854896
 10
12154.604008327451
 20
443.54270158816934
 10
12152.294567745073
 20
450.533478008833
 10
12149.644887844313
 20
457.40251485476347
 10
12146.661351936136
 20
464.1332640145423
 10
12143.351147619875
 20
470.70951052389967
 10
12139.72224946766
 20
477.1154116289832
 10
12135.783399813003
 20
483.3355349529403
 10
12131.544087689717
 20
489.35489567386503
 10
12127.01452597203
 20
495.15899262454684
 10
12122.205626770865
 20
500.7338432270527
 10
12117.128975145602
 20
506.06601717798213
 10
12111.796801194674
 20
511.14266880324385
 10
12106.221950592168
 20
515.9515680044105
 10
12100.417853641486
 20
520.4811297220967
 10
12094.398492920562
 20
524.7204418453817
 10
12088.178369596604
 20
528.6592915000408
 10
12081.772468491521
 20
532.2881896522532
 10
12075.196221982163
 20
535.5983939685165
 10
12068.465472822383
 20
538.581929876693
 10
12061.596435976453
 20
541.2316097774531
 10
12054.60565955579
 20
543.5410503598314
 10
12047.50998495311
 20
545.5046879791817
 10
12040.32650627004
 20
547.1177920604846
 10
12033.072529135925
 20
548.3764764947172
 10
12025.765529017055
 20
549.2777090008295
 10
12018.423109116733
 20
549.8193184307759
 10
12011.06295796762
 20
550.0
 10
12003.702806818508
 20
549.8193184307759
 10
11996.360386918186
 20
549.2777090008295
 10
11989.053386799316
 20
548.3764764947172
 10
11981.799409665202
 20
547.1177920604846
 10
11974.61593098213
 20
545.5046879791817
 10
11967.520256379452
 20
543.5410503598314
 10
11960.529479958788
 20
541.2316097774531
 10
11953.660443112858
 20
538.581929876693
 10
11946.929693953078
 20
535.5983939685165
 10
11940.35344744372
 20
532.2881896522533
 10
11933.947546338637
 20
528.6592915000408
 10
11927.72742301468
 20
524.7204418453819
 10
11921.708062293756
 20
520.4811297220967
 10
11915.903965343074
 20
515.9515680044105
 10
11910.329114740567
 20
511.14266880324385
 10
11904.996940789639
 20
506.06601717798213
 10
11899.920289164376
 20
500.7338432270528
 10
11895.111389963211
 20
495.15899262454684
 10
11890.581828245524
 20
489.35489567386503
 10
11886.342516122239
 20
483.3355349529403
 10
11882.40366646758
 20
477.1154116289833
 10
11878.774768315367
 20
470.70951052389967
 10
11875.464563999105
 20
464.1332640145423
 10
11872.481028090928
 20
457.40251485476347
 10
11869.831348190168
 20
450.5334780088331
 10
11867.52190760779
 20
443.54270158816934
 10
11865.55826998844
 20
436.44702698548963
 10
11863.945165907136
 20
429.2635483024193
 10
11862.686481472903
 20
422.00957116830426
 10
11861.785248966791
 20
414.70257104943414
 10
11861.243639536844
 20
407.3601511491127
 10
11861.06295796762
 20
400.0
 10
11861.243639536844
 20
392.63984885088735
 10
11861.785248966791
 20
385.2974289505659
 10
11862.686481472903
 20
377.99042883169574
 10
11863.945165907136
 20
370.7364516975807
 10
11865.55826998844
 20
363.5529730145104
 10
11867.52190760779
 20
356.45729841183066
 10
11869.831348190168
 20
349.466521991167
 10
11872.481028090928
 20
342.59748514523653
 10
11875.464563999105
 20
335.86673598545775
 10
11878.774768315367
 20
329.29048947610033
 10
11882.40366646758
 20
322.8845883710168
 10
11886.342516122239
 20
316.6644650470597
 10
11890.581828245524
 20
310.645104326135
 10
11895.11138996321
 20
304.8410073754532
 10
11899.920289164376
 20
299.2661567729472
 10
11904.996940789639
 20
293.93398282201787
 10
11910.329114740567
 20
288.85733119675615
 10
11915.903965343074
 20
284.0484319955895
 10
11921.708062293756
 20
279.51887027790326
 10
11927.72742301468
 20
275.2795581546182
 10
11933.947546338637
 20
271.3407084999592
 10
11940.35344744372
 20
267.7118103477468
 10
11946.929693953078
 20
264.40160603148354
 10
11953.660443112856
 20
261.4180701233071
 10
11960.529479958788
 20
258.7683902225469
 10
11967.520256379452
 20
256.4589496401687
 10
11974.61593098213
 20
254.4953120208184
 10
11981.799409665202
 20
252.88220793951547
 10
11989.053386799316
 20
251.62352350528286
 10
11996.360386918186
 20
250.72229099917047
 10
12003.702806818508
 20
250.18068156922413
 10
12011.06295796762
 20
250.0
 10
12018.423109116733
 20
250.18068156922413
 10
12025.765529017055
 20
250.72229099917047
 10
12033.072529135925
 20
251.62352350528286
 10
12040.32650627004
 20
252.88220793951544
 10
12047.50998495311
 20
254.4953120208184
 10
12054.60565955579
 20
256.45894964016867
 10
12061.596435976453
 20
258.7683902225468
 10
12068.465472822385
 20
261.418070123307
 10
12075.196221982163
 20
264.40160603148354
 10
12081.772468491521
 20
267.71181034774673
 10
12088.178369596604
 20
271.3407084999592
 10
12094.398492920562
 20
275.2795581546182
 10
12100.417853641486
 20
279.5188702779032
 10
12106.221950592168
 20
284.04843199558945
 10
12111.796801194674
 20
288.85733119675615
 10
12117.128975145602
 20
293.9339828220178
 10
12122.205626770865
 20
299.26615677294717
 10
12127.01452597203
 20
304.8410073754531
 10
12131.544087689717
 20
310.645104326135
 10
12135.783399813003
 20
316.6644650470597
 10
12139.72224946766
 20
322.8845883710167
 10
12143.351147619875
 20
329.29048947610033
 10
12146.661351936136
 20
335.86673598545764
 10
12149.644887844313
 20
342.5974851452364
 10
12152.294567745073
 20
349.466521991167
 10
12154.604008327451
 20
356.4572984118306
 10
12156.567645946801
 20
363.55297301451037
 10
12158.180750028105
 20
370.7364516975807
 10
12159.439434462338
 20
377.9904288316956
 10
12160.34066696845
 20
385.2974289505659
 10
12160.882276398397
 20
392.6398488508873
  0
TEXT
  5
47
330
17
100
AcDbEntity
  8
NOTES
100
AcDbText
 10
11931.06295796762
 20
400.0
 30
0.0
 40
40.0
  1
CAP x1
100
AcDbText
  0
ENDSEC
  0
SECTION
  2
OBJECTS
  0
DICTIONARY
  5
A
330
0
100
AcDbDictionary
281
1
  3
ACAD_COLOR
350
B
  3
ACAD_GROUP
350
C
  3
ACAD_LAYOUT
350
D
  3
ACAD_MATERIAL
350
E
  3
ACAD_MLEADERSTYLE
350
F
  3
ACAD_MLINESTYLE
350
10
  3
ACAD_PLOTSETTINGS
350
11
  3
ACAD_PLOTSTYLENAME
350
12
  3
ACAD_SCALELIST
350
14
  3
ACAD_TABLESTYLE
350
15
  3
ACAD_VISUALSTYLE
350
16
  3
EZDXF_META
350
2D
  0
DICTIONARY
  5
B
330
A
100
AcDbDictionary
281
1
  0
DICTIONARY
  5
C
330
A
100
AcDbDictionary
281
1
  0
DICTIONARY
  5
D
330
A
100
AcDbDictionary
281
1
  3
Model
350
1A
  3
Layout1
350
1E
  0
DICTIONARY
  5
E
330
A
100
AcDbDictionary
281
1
  3
ByBlock
350
1F
  3
ByLayer
350
20
  3
Global
350
21
  0
DICTIONARY
  5
F
330
A
100
AcDbDictionary
281
1
  3
Standard
350
2C
  0
DICTIONARY
  5
10
330
A
100
AcDbDictionary
281
1
  3
Standard
350
22
  0
DICTIONARY
  5
11
330
A
100
AcDbDictionary
281
1
  0
ACDBDICTIONARYWDFLT
  5
12
330
A
100
AcDbDictionary
281
1
  3
Normal
350
13
100
AcDbDictionaryWithDefault
340
13
  0
ACDBPLACEHOLDER
  5
13
330
12
  0
DICTIONARY
  5
14
330
A
100
AcDbDictionary
281
1
  0
DICTIONARY
  5
15
330
A
100
AcDbDictionary
281
1
  0
DICTIONARY
  5
16
330
A
100
AcDbDictionary
281
1
  0
LAYOUT
  5
1A
330
D
100
AcDbPlotSettings
  1

  4
A3
  6

 40
7.5
 41
20.0
 42
7.5
 43
20.0
 44
420.0
 45
297.0
 46
0.0
 47
0.0
 48
0.0
 49
0.0
140
0.0
141
0.0
142
1.0
143
1.0
 70
1024
 72
1
 73
0
 74
5
  7

 75
16
 76
0
 77
2
 78
300
147
1.0
148
0.0
149
0.0
100
AcDbLayout
  1
Model
 70
1
 71
0
 10
0.0
 20
0.0
 11
420.0
 21
297.0
 12
0.0
 22
0.0
 32
0.0
 14
1e+20
 24
1e+20
 34
1e+20
 15
-1e+20
 25
-1e+20
 35
-1e+20
146
0.0
 13
0.0
 23
0.0
 33
0.0
 16
1.0
 26
0.0
 36
0.0
 17
0.0
 27
1.0
 37
0.0
 76
1
330
17
  0
LAYOUT
  5
1E
330
D
100
AcDbPlotSettings
  1

  4
A3
  6

 40
7.5
 41
20.0
 42
7.5
 43
20.0
 44
420.0
 45
297.0
 46
0.0
 47
0.0
 48
0.0
 49
0.0
140
0.0
141
0.0
142
1.0
143
1.0
 70
0
 72
1
 73
0
 74
5
  7

 75
16
 76
0
 77
2
 78
300
147
1.0
148
0.0
149
0.0
100
AcDbLayout
  1
Layout1
 70
1
 71
1
 10
0.0
 20
0.0
 11
420.0
 21
297.0
 12
0.0
 22
0.0
 32
0.0
 14
1e+20
 24
1e+20
 34
1e+20
 15
-1e+20
 25
-1e+20
 35
-1e+20
146
0.0
 13
0.0
 23
0.0
 33
0.0
 16
1.0
 26
0.0
 36
0.0
 17
0.0
 27
1.0
 37
0.0
 76
1
330
1B
  0
MATERIAL
  5
1F
102
{ACAD_REACTORS
330
E
102
}
330
E
100
AcDbMaterial
  1
ByBlock
  2

 70
0
 40
1.0
 71
1
 41
1.0
 91
-1023410177
 42
1.0
 72
1
  3

 73
1
 74
1
 75
1
 44
0.5
 73
0
 45
1.0
 46
1.0
 77
1
  4

 78
1
 79
1
170
1
 48
1.0
171
1
  6

172
1
173
1
174
1
140
1.0
141
1.0
175
1
  7

176
1
177
1
178
1
143
1.0
179
1
  8

270
1
271
1
272
1
145
1.0
146
1.0
273
1
  9

274
1
275
1
276
1
 42
1.0
 72
1
  3

 73
1
 74
1
 75
1
 94
63
  0
MATERIAL
  5
20
102
{ACAD_REACTORS
330
E
102
}
330
E
100
AcDbMaterial
  1
ByLayer
  2

 70
0
 40
1.0
 71
1
 41
1.0
 91
-1023410177
 42
1.0
 72
1
  3

 73
1
 74
1
 75
1
 44
0.5
 73
0
 45
1.0
 46
1.0
 77
1
  4

 78
1
 79
1
170
1
 48
1.0
171
1
  6

172
1
173
1
174
1
140
1.0
141
1.0
175
1
  7

176
1
177
1
178
1
143
1.0
179
1
  8

270
1
271
1
272
1
145
1.0
146
1.0
273
1
  9

274
1
275
1
276
1
 42
1.0
 72
1
  3

 73
1
 74
1
 75
1
 94
63
  0
MATERIAL
  5
21
102
{ACAD_REACTORS
330
E
102
}
330
E
100
AcDbMaterial
  1
Global
  2

 70
0
 40
1.0
 71
1
 41
1.0
 91
-1023410177
 42
1.0
 72
1
  3

 73
1
 74
1
 75
1
 44
0.5
 73
0
 45
1.0
 46
1.0
 77
1
  4

 78
1
 79
1
170
1
 48
1.0
171
1
  6

172
1
173
1
174
1
140
1.0
141
1.0
175
1
  7

176
1
177
1
178
1
143
1.0
179
1
  8

270
1
271
1
272
1
145
1.0
146
1.0
273
1
  9

274
1
275
1
276
1
 42
1.0
 72
1
  3

 73
1
 74
1
 75
1
 94
63
  0
MLINESTYLE
  5
22
102
{ACAD_REACTORS
330
10
102
}
330
10
100
AcDbMlineStyle
  2
Standard
 70
0
  3

 62
256
 51
90.0
 52
90.0
 71
2
 49
0.5
 62
256
  6
BYLAYER
 49
-0.5
 62
256
  6
BYLAYER
  0
MLEADERSTYLE
  5
2C
102
{ACAD_REACTORS
330
F
102
}
330
F
100
AcDbMLeaderStyle
179
2
170
2
171
1
172
0
 90
2
 40
0.0
 41
0.0
173
1
 91
-1056964608
 92
-2
290
1
 42
2.0
291
1
 43
8.0
  3
Standard
 44
4.0
300

342
29
174
1
175
1
176
0
178
1
 93
-1056964608
 45
4.0
292
0
297
0
 46
4.0
 94
-1056964608
 47
1.0
 49
1.0
140
1.0
294
1
141
0.0
177
0
142
1.0
295
0
296
0
143
3.75
271
0
272
9
273
9
  0
DICTIONARY
  5
2D
330
A
100
AcDbDictionary
280
1
281
1
  3
CREATED_BY_EZDXF
350
2E
  3
WRITTEN_BY_EZDXF
350
4A
  0
DICTIONARYVAR
  5
2E
330
2D
100
DictionaryVariables
280
0
  1
1.4.4 @ 2026-09-28T03:21:27.177642+00:00
  0
DICTIONARYVAR
  5
4A
330
2D
100
DictionaryVariables
280
0
  1
1.4.4 @ 2026-09-28T03:21:27.196030+00:00
  0
ENDSEC
  0
EOF
