  0
SECTION
  2
HEADER
  9
$ACADVER
  1
AC1024
  9
$ACADMAINTVER
 70
6
  9
$DWGCODEPAGE
  3
ANSI_1252
  9
$LASTSAVEDBY
  1
ezdxf
  9
$INSBASE
 10
0.0
 20
0.0
 30
0.0
  9
$EXTMIN
 10
1e+20
 20
1e+20
 30
1e+20
  9
$EXTMAX
 10
-1e+20
 20
-1e+20
 30
-1e+20
  9
$LIMMIN
 10
0.0
 20
0.0
  9
$LIMMAX
 10
420.0
 20
297.0
  9
$ORTHOMODE
 70
0
  9
$REGENMODE
 70
1
  9
$FILLMODE
 70
1
  9
$QTEXTMODE
 70
0
  9
$MIRRTEXT
 70
1
  9
$LTSCALE
 40
1.0
  9
$ATTMODE
 70
1
  9
$TEXTSIZE
 40
2.5
  9
$TRACEWID
 40
1.0
  9
$TEXTSTYLE
  7
Standard
  9
$CLAYER
  8
0
  9
$CELTYPE
  6
ByLayer
  9
$CECOLOR
 62
256
  9
$CELTSCALE
 40
1.0
  9
$DISPSILH
 70
0
  9
$DIMSCALE
 40
1.0
  9
$DIMASZ
 40
2.5
  9
$DIMEXO
 40
0.625
  9
$DIMDLI
 40
3.75
  9
$DIMRND
 40
0.0
  9
$DIMDLE
 40
0.0
  9
$DIMEXE
 40
1.25
  9
$DIMTP
 40
0.0
  9
$DIMTM
 40
0.0
  9
$DIMTXT
 40
2.5
  9
$DIMCEN
 40
2.5
  9
$DIMTSZ
 40
0.0
  9
$DIMTOL
 70
0
  9
$DIMLIM
 70
0
  9
$DIMTIH
 70
0
  9
$DIMTOH
 70
0
  9
$DIMSE1
 70
0
  9
$DIMSE2
 70
0
  9
$DIMTAD
 70
1
  9
$DIMZIN
 70
8
  9
$DIMBLK
  1

  9
$DIMASO
 70
1
  9
$DIMSHO
 70
1
  9
$DIMPOST
  1

  9
$DIMAPOST
  1

  9
$DIMALT
 70
0
  9
$DIMALTD
 70
3
  9
$DIMALTF
 40
0.03937007874
  9
$DIMLFAC
 40
1.0
  9
$DIMTOFL
 70
1
  9
$DIMTVP
 40
0.0
  9
$DIMTIX
 70
0
  9
$DIMSOXD
 70
0
  9
$DIMSAH
 70
0
  9
$DIMBLK1
  1

  9
$DIMBLK2
  1

  9
$DIMSTYLE
  2
ISO-25
  9
$DIMCLRD
 70
0
  9
$DIMCLRE
 70
0
  9
$DIMCLRT
 70
0
  9
$DIMTFAC
 40
1.0
  9
$DIMGAP
 40
0.625
  9
$DIMJUST
 70
0
  9
$DIMSD1
 70
0
  9
$DIMSD2
 70
0
  9
$DIMTOLJ
 70
0
  9
$DIMTZIN
 70
8
  9
$DIMALTZ
 70
0
  9
$DIMALTTZ
 70
0
  9
$DIMUPT
 70
0
  9
$DIMDEC
 70
2
  9
$DIMTDEC
 70
2
  9
$DIMALTU
 70
2
  9
$DIMALTTD
 70
3
  9
$DIMTXSTY
  7
Standard
  9
$DIMAUNIT
 70
0
  9
$DIMADEC
 70
0
  9
$DIMALTRND
 40
0.0
  9
$DIMAZIN
 70
0
  9
$DIMDSEP
 70
44
  9
$DIMATFIT
 70
3
  9
$DIMFRAC
 70
0
  9
$DIMLDRBLK
  1

  9
$DIMLUNIT
 70
2
  9
$DIMLWD
 70
-2
  9
$DIMLWE
 70
-2
  9
$DIMTMOVE
 70
0
  9
$DIMFXL
 40
1.0
  9
$DIMFXLON
 70
0
  9
$DIMJOGANG
 40
0.785398163397
  9
$DIMTFILL
 70
0
  9
$DIMTFILLCLR
 70
0
  9
$DIMARCSYM
 70
0
  9
$DIMLTYPE
  6

  9
$DIMLTEX1
  6

  9
$DIMLTEX2
  6

  9
$DIMTXTDIRECTION
 70
0
  9
$LUNITS
 70
2
  9
$LUPREC
 70
4
  9
$SKETCHINC
 40
1.0
  9
$FILLETRAD
 40
10.0
  9
$AUNITS
 70
0
  9
$AUPREC
 70
2
  9
$MENU
  1
.
  9
$ELEVATION
 40
0.0
  9
$PELEVATION
 40
0.0
  9
$THICKNESS
 40
0.0
  9
$LIMCHECK
 70
0
  9
$CHAMFERA
 40
0.0
  9
$CHAMFERB
 40
0.0
  9
$CHAMFERC
 40
0.0
  9
$CHAMFERD
 40
0.0
  9
$SKPOLY
 70
0
  9
$TDCREATE
 40
2460000.0
  9
$TDUCREATE
 40
2458532.153996898
  9
$TDUPDATE
 40
2461312.1398958336
  9
$TDUUPDATE
 40
2458532.1544311
  9
$TDINDWG
 40
0.0
  9
$TDUSRTIMER
 40
0.0
  9
$USRTIMER
 70
1
  9
$ANGBASE
 50
0.0
  9
$ANGDIR
 70
0
  9
$PDMODE
 70
0
  9
$PDSIZE
 40
0.0
  9
$PLINEWID
 40
0.0
  9
$SPLFRAME
 70
0
  9
$SPLINETYPE
 70
6
  9
$SPLINESEGS
 70
8
  9
$HANDSEED
  5
45
  9
$SURFTAB1
 70
6
  9
$SURFTAB2
 70
6
  9
$SURFTYPE
 70
6
  9
$SURFU
 70
6
  9
$SURFV
 70
6
  9
$UCSBASE
  2

  9
$UCSNAME
  2

  9
$UCSORG
 10
0.0
 20
0.0
 30
0.0
  9
$UCSXDIR
 10
1.0
 20
0.0
 30
0.0
  9
$UCSYDIR
 10
0.0
 20
1.0
 30
0.0
  9
$UCSORTHOREF
  2

  9
$UCSORTHOVIEW
 70
0
  9
$UCSORGTOP
 10
0.0
 20
0.0
 30
0.0
  9
$UCSORGBOTTOM
 10
0.0
 20
0.0
 30
0.0
  9
$UCSORGLEFT
 10
0.0
 20
0.0
 30
0.0
  9
$UCSORGRIGHT
 10
0.0
 20
0.0
 30
0.0
  9
$UCSORGFRONT
 10
0.0
 20
0.0
 30
0.0
  9
$UCSORGBACK
 10
0.0
 20
0.0
 30
0.0
  9
$PUCSBASE
  2

  9
$PUCSNAME
  2

  9
$PUCSORG
 10
0.0
 20
0.0
 30
0.0
  9
$PUCSXDIR
 10
1.0
 20
0.0
 30
0.0
  9
$PUCSYDIR
 10
0.0
 20
1.0
 30
0.0
  9
$PUCSORTHOREF
  2

  9
$PUCSORTHOVIEW
 70
0
  9
$PUCSORGTOP
 10
0.0
 20
0.0
 30
0.0
  9
$PUCSORGBOTTOM
 10
0.0
 20
0.0
 30
0.0
  9
$PUCSORGLEFT
 10
0.0
 20
0.0
 30
0.0
  9
$PUCSORGRIGHT
 10
0.0
 20
0.0
 30
0.0
  9
$PUCSORGFRONT
 10
0.0
 20
0.0
 30
0.0
  9
$PUCSORGBACK
 10
0.0
 20
0.0
 30
0.0
  9
$USERI1
 70
0
  9
$USERI2
 70
0
  9
$USERI3
 70
0
  9
$USERI4
 70
0
  9
$USERI5
 70
0
  9
$USERR1
 40
0.0
  9
$USERR2
 40
0.0
  9
$USERR3
 40
0.0
  9
$USERR4
 40
0.0
  9
$USERR5
 40
0.0
  9
$WORLDVIEW
 70
1
  9
$SHADEDGE
 70
3
  9
$SHADEDIF
 70
70
  9
$TILEMODE
 70
1
  9
$MAXACTVP
 70
64
  9
$PINSBASE
 10
0.0
 20
0.0
 30
0.0
  9
$PLIMCHECK
 70
0
  9
$PEXTMIN
 10
1e+20
 20
1e+20
 30
1e+20
  9
$PEXTMAX
 10
-1e+20
 20
-1e+20
 30
-1e+20
  9
$PLIMMIN
 10
0.0
 20
0.0
  9
$PLIMMAX
 10
420.0
 20
297.0
  9
$UNITMODE
 70
0
  9
$VISRETAIN
 70
1
  9
$PLINEGEN
 70
0
  9
$PSLTSCALE
 70
1
  9
$TREEDEPTH
 70
3020
  9
$CMLSTYLE
  2
Standard
  9
$CMLJUST
 70
0
  9
$CMLSCALE
 40
20.0
  9
$PROXYGRAPHICS
 70
1
  9
$MEASUREMENT
 70
1
  9
$CELWEIGHT
370
-1
  9
$ENDCAPS
280
0
  9
$JOINSTYLE
280
0
  9
$LWDISPLAY
290
0
  9
$INSUNITS
 70
4
  9
$HYPERLINKBASE
  1

  9
$STYLESHEET
  1

  9
$XEDIT
290
1
  9
$CEPSNTYPE
380
0
  9
$PSTYLEMODE
290
1
  9
$FINGERPRINTGUID
  2
{93A55C7F-C77E-401A-B8F1-9BF9D2B89773}
  9
$VERSIONGUID
  2
{9EBD0446-7C2B-4BB9-A8CA-B3CA29DF5613}
  9
$EXTNAMES
290
1
  9
$PSVPSCALE
 40
0.0
  9
$OLESTARTUP
290
0
  9
$SORTENTS
280
127
  9
$INDEXCTL
280
0
  9
$HIDETEXT
280
1
  9
$XCLIPFRAME
280
1
  9
$HALOGAP
280
0
  9
$OBSCOLOR
 70
257
  9
$OBSLTYPE
280
0
  9
$INTERSECTIONDISPLAY
280
0
  9
$INTERSECTIONCOLOR
 70
257
  9
$DIMASSOC
280
2
  9
$PROJECTNAME
  1

  9
$CAMERADISPLAY
290
0
  9
$LENSLENGTH
 40
50.0
  9
$CAMERAHEIGHT
 40
0.0
  9
$STEPSPERSEC
 40
24.0
  9
$STEPSIZE
 40
100.0
  9
$3DDWFPREC
 40
2.0
  9
$PSOLWIDTH
 40
0.005
  9
$PSOLHEIGHT
 40
0.08
  9
$LOFTANG1
 40
1.570796326795
  9
$LOFTANG2
 40
1.570796326795
  9
$LOFTMAG1
 40
0.0
  9
$LOFTMAG2
 40
0.0
  9
$LOFTPARAM
 70
7
  9
$LOFTNORMALS
280
1
  9
$LATITUDE
 40
37.795
  9
$LONGITUDE
 40
-122.394
  9
$NORTHDIRECTION
 40
0.0
  9
$TIMEZONE
 70
-8000
  9
$LIGHTGLYPHDISPLAY
280
1
  9
$TILEMODELIGHTSYNCH
280
1
  9
$CMATERIAL
347
20
  9
$SOLIDHIST
280
0
  9
$SHOWHIST
280
1
  9
$DWFFRAME
280
2
  9
$DGNFRAME
280
2
  9
$REALWORLDSCALE
290
1
  9
$INTERFERECOLOR
 62
256
  9
$CSHADOW
280
0
  9
$SHADOWPLANELOCATION
 40
0.0
  0
ENDSEC
  0
SECTION
  2
CLASSES
  0
CLASS
  1
ACDBDICTIONARYWDFLT
  2
AcDbDictionaryWithDefault
  3
ObjectDBX Classes
 90
0
 91
0
280
0
281
0
  0
CLASS
  1
SUN
  2
AcDbSun
  3
SCENEOE
 90
1153
 91
0
280
0
281
0
  0
CLASS
  1
VISUALSTYLE
  2
AcDbVisualStyle
  3
ObjectDBX Classes
 90
4095
 91
0
280
0
281
0
  0
CLASS
  1
MATERIAL
  2
AcDbMaterial
  3
ObjectDBX Classes
 90
1153
 91
0
280
0
281
0
  0
CLASS
  1
SCALE
  2
AcDbScale
  3
ObjectDBX Classes
 90
1153
 91
0
280
0
281
0
  0
CLASS
  1
TABLESTYLE
  2
AcDbTableStyle
  3
ObjectDBX Classes
 90
4095
 91
0
280
0
281
0
  0
CLASS
  1
MLEADERSTYLE
  2
AcDbMLeaderStyle
  3
ACDB_MLEADERSTYLE_CLASS
 90
4095
 91
0
280
0
281
0
  0
CLASS
  1
DICTIONARYVAR
  2
AcDbDictionaryVar
  3
ObjectDBX Classes
 90
0
 91
0
280
0
281
0
  0
CLASS
  1
CELLSTYLEMAP
  2
AcDbCellStyleMap
  3
ObjectDBX Classes
 90
1152
 91
0
280
0
281
0
  0
CLASS
  1
MENTALRAYRENDERSETTINGS
  2
AcDbMentalRayRenderSettings
  3
SCENEOE
 90
1024
 91
0
280
0
281
0
  0
CLASS
  1
ACDBDETAILVIEWSTYLE
  2
AcDbDetailViewStyle
  3
ObjectDBX Classes
 90
1025
 91
0
280
0
281
0
  0
CLASS
  1
ACDBSECTIONVIEWSTYLE
  2
AcDbSectionViewStyle
  3
ObjectDBX Classes
 90
1025
 91
0
280
0
281
0
  0
CLASS
  1
RASTERVARIABLES
  2
AcDbRasterVariables
  3
ISM
 90
0
 91
0
280
0
281
0
  0
CLASS
  1
ACDBPLACEHOLDER
  2
AcDbPlaceHolder
  3
ObjectDBX Classes
 90
0
 91
0
280
0
281
0
  0
CLASS
  1
LAYOUT
  2
AcDbLayout
  3
ObjectDBX Classes
 90
0
 91
0
280
0
281
0
  0
ENDSEC
  0
SECTION
  2
TABLES
  0
TABLE
  2
VPORT
  5
8
330
0
100
AcDbSymbolTable
 70
1
  0
VPORT
  5
23
330
8
100
AcDbSymbolTableRecord
100
AcDbViewportTableRecord
  2
*Active
 70
0
 10
0.0
 20
0.0
 11
1.0
 21
1.0
 12
0.0
 22
0.0
 13
0.0
 23
0.0
 14
0.5
 24
0.5
 15
0.5
 25
0.5
 16
0.0
 26
0.0
 36
1.0
 17
0.0
 27
0.0
 37
0.0
 40
1000.0
 41
1.34
 42
50.0
 43
0.0
 44
0.0
 50
0.0
 51
0.0
 71
0
 72
1000
 73
1
 74
3
 75
0
 76
0
 77
0
 78
0
281
0
 65
0
146
0.0
  0
ENDTAB
  0
TABLE
  2
LTYPE
  5
2
330
0
100
AcDbSymbolTable
 70
3
  0
LTYPE
  5
24
330
2
100
AcDbSymbolTableRecord
100
AcDbLinetypeTableRecord
  2
ByBlock
 70
0
  3

 72
65
 73
0
 40
0.0
  0
LTYPE
  5
25
330
2
100
AcDbSymbolTableRecord
100
AcDbLinetypeTableRecord
  2
ByLayer
 70
0
  3

 72
65
 73
0
 40
0.0
  0
LTYPE
  5
26
330
2
100
AcDbSymbolTableRecord
100
AcDbLinetypeTableRecord
  2
Continuous
 70
0
  3

 72
65
 73
0
 40
0.0
  0
ENDTAB
  0
TABLE
  2
LAYER
  5
1
330
0
100
AcDbSymbolTable
 70
8
  0
LAYER
  5
27
330
1
100
AcDbSymbolTableRecord
100
AcDbLayerTableRecord
  2
0
 70
0
 62
7
  6
Continuous
370
-3
390
13
347
21
  0
LAYER
  5
28
330
1
100
AcDbSymbolTableRecord
100
AcDbLayerTableRecord
  2
Defpoints
 70
0
 62
7
  6
Continuous
290
0
370
-3
390
13
347
21
  0
LAYER
  5
2F
330
1
100
AcDbSymbolTableRecord
100
AcDbLayerTableRecord
  2
CUT
 70
0
 62
7
  6
Continuous
370
-3
390
13
347
21
  0
LAYER
  5
30
330
1
100
AcDbSymbolTableRecord
100
AcDbLayerTableRecord
  2
SEW
 70
0
 62
7
  6
Continuous
370
-3
390
13
347
21
  0
LAYER
  5
31
330
1
100
AcDbSymbolTableRecord
100
AcDbLayerTableRecord
  2
FEATURE
 70
0
 62
7
  6
Continuous
370
-3
390
13
347
21
  0
LAYER
  5
32
330
1
100
AcDbSymbolTableRecord
100
AcDbLayerTableRecord
  2
TAPE
 70
0
 62
7
  6
Continuous
370
-3
390
13
347
21
  0
LAYER
  5
33
330
1
100
AcDbSymbolTableRecord
100
AcDbLayerTableRecord
  2
GRAIN
 70
0
 62
7
  6
Continuous
370
-3
390
13
347
21
  0
LAYER
  5
34
330
1
100
AcDbSymbolTableRecord
100
AcDbLayerTableRecord
  2
NOTES
 70
0
 62
7
  6
Continuous
370
-3
390
13
347
21
  0
ENDTAB
  0
TABLE
  2
STYLE
  5
5
330
0
100
AcDbSymbolTable
 70
1
  0
STYLE
  5
29
330
5
100
AcDbSymbolTableRecord
100
AcDbTextStyleTableRecord
  2
Standard
 70
0
 40
0.0
 41
1.0
 50
0.0
 71
0
 42
2.5
  3
txt
  4

  0
ENDTAB
  0
TABLE
  2
VIEW
  5
7
330
0
100
AcDbSymbolTable
 70
0
  0
ENDTAB
  0
TABLE
  2
UCS
  5
6
330
0
100
AcDbSymbolTable
 70
0
  0
ENDTAB
  0
TABLE
  2
APPID
  5
3
330
0
100
AcDbSymbolTable
 70
3
  0
APPID
  5
2A
330
3
100
AcDbSymbolTableRecord
100
AcDbRegAppTableRecord
  2
ACAD
 70
0
  0
APPID
  5
42
330
3
100
AcDbSymbolTableRecord
100
AcDbRegAppTableRecord
  2
HATCHBACKGROUNDCOLOR
 70
0
  0
APPID
  5
43
330
3
100
AcDbSymbolTableRecord
100
AcDbRegAppTableRecord
  2
EZDXF
 70
0
  0
ENDTAB
  0
TABLE
  2
DIMSTYLE
  5
4
330
0
100
AcDbSymbolTable
 70
1
100
AcDbDimStyleTable
  0
DIMSTYLE
105
2B
330
4
100
AcDbSymbolTableRecord
100
AcDbDimStyleTableRecord
  2
Standard
 70
0
 40
1.0
 41
2.5
 42
0.625
 43
3.75
 44
1.25
 45
0.0
 46
0.0
 47
0.0
 48
0.0
 49
2.5
140
2.5
141
2.5
142
0.0
143
0.03937007874
144
1.0
145
0.0
146
1.0
147
0.625
148
0.0
 69
0
 70
0
 71
0
 72
0
 73
0
 74
0
 75
0
 76
0
 77
1
 78
8
 79
3
170
0
171
3
172
1
173
0
174
0
175
0
176
0
177
0
178
0
179
2
271
2
272
2
273
2
274
3
275
0
276
0
277
2
278
44
279
0
280
0
281
0
282
0
283
0
284
8
285
0
286
0
288
0
289
3
290
0
371
-2
372
-2
  0
ENDTAB
  0
TABLE
  2
BLOCK_RECORD
  5
9
330
0
100
AcDbSymbolTable
 70
2
  0
BLOCK_RECORD
  5
17
330
9
100
AcDbSymbolTableRecord
100
AcDbBlockTableRecord
  2
*Model_Space
340
1A
 70
0
280
1
281
0
  0
BLOCK_RECORD
  5
1B
330
9
100
AcDbSymbolTableRecord
100
AcDbBlockTableRecord
  2
*Paper_Space
340
1E
 70
0
280
1
281
0
  0
ENDTAB
  0
ENDSEC
  0
SECTION
  2
BLOCKS
  0
BLOCK
  5
18
330
17
100
AcDbEntity
  8
0
100
AcDbBlockBegin
  2
*Model_Space
 70
0
 10
0.0
 20
0.0
 30
0.0
  3
*Model_Space
  1

  0
ENDBLK
  5
19
330
17
100
AcDbEntity
  8
0
100
AcDbBlockEnd
  0
BLOCK
  5
1C
330
1B
100
AcDbEntity
  8
0
100
AcDbBlockBegin
  2
*Paper_Space
 70
0
 10
0.0
 20
0.0
 30
0.0
  3
*Paper_Space
  1

  0
ENDBLK
  5
1D
330
1B
100
AcDbEntity
  8
0
100
AcDbBlockEnd
  0
ENDSEC
  0
SECTION
  2
ENTITIES
  0
LWPOLYLINE
  5
35
330
17
100
AcDbEntity
  8
CUT
100
AcDbPolyline
 90
212
 70
1
 10
811.4200359067073
 20
-25.0
 10
1633.2939335553483
 20
-25.0
 10
1638.8623139316192
 20
-7.632992852075385
 10
1650.977111287755
 20
30.151382147924608
 10
1659.1398503761109
 20
55.609834788520125
 10
1663.0745076470307
 20
68.00460328914929
 10
1675.0689685208556
 20
105.7889782891493
 10
1679.1553431714478
 20
118.66167959791876
 10
1687.0046741030512
 20
143.6437177766486
 10
1698.876486214497
 20
181.42809277665384
 10
1698.8983619290332
 20
181.49771653700958
 10
1710.6459619328748
 20
219.28433011151085
 10
1718.3692713272744
 20
244.1266559914405
 10
1722.3718806149054
 20
257.1420432657355
 10
1733.9916724132654
 20
294.9264182657354
 10
1737.56843563367
 20
306.5570709616864
 10
1745.5447374239202
 20
332.7855837287075
 10
1756.4962187603146
 20
368.79739416453236
 10
1757.052021558624
 20
370.64617655851316
 10
1768.4112066232092
 20
408.43055155851306
 10
1775.1529843205813
 20
430.85591528274034
 10
1779.7392367092812
 20
446.29254543785055
 10
1790.9650468995915
 20
484.0769204378508
 10
1793.5390956866327
 20
492.7407783678399
 10
1802.1097358999668
 20
521.9402877342699
 10
1811.6549160474397
 20
554.4599794005682
 10
1813.2043720160711
 20
559.8049995644417
 10
1824.1576001742094
 20
597.5893745644414
 10
1829.5008084669762
 20
616.0213640128678
 10
1835.062964140943
 20
635.4554008621358
 10
1845.87711343085
 20
673.2397758621358
 10
1847.0771359422702
 20
677.4326253747888
 10
1856.5894697647423
 20
711.1070854495688
 10
1864.3842614609835
 20
738.7013022490461
 10
1867.2477861571933
 20
748.9756461117545
 10
1877.7785307370073
 20
786.7600211117544
 10
1881.4225480582145
 20
799.8347772154126
 10
1888.2384556468323
 20
824.6297996734885
 10
1898.1923588722175
 20
860.8402750665377
 10
1898.6424047279684
 20
862.5007620785753
 10
1908.883196289489
 20
900.2851370785756
 10
1914.694057198758
 20
921.7248613762215
 10
1919.083723058603
 20
938.1572484709046
 10
1929.1772523807522
 20
975.9416234709046
 10
1930.9280065438247
 20
982.4954412405901
 10
1939.1712636901386
 20
1013.8148482769705
 10
1946.8945706744562
 20
1043.1587581921092
 10
1949.1058888786906
 20
1051.6891502894407
 10
1958.9006644669369
 20
1089.4735252894409
 10
1962.59411366744
 20
1103.7213932857965
 10
1968.6243757738712
 20
1127.348867751368
 10
1978.0269999556785
 20
1164.1897643565221
 10
1978.2870884350182
 20
1165.2252134406463
 10
1987.7779275184967
 20
1203.0095884406458
 10
1993.1935943720337
 20
1224.5701254457806
 10
1997.225719083875
 20
1240.886899754328
 10
2006.562816556576
 20
1278.671274754328
 10
2008.094262190486
 20
1284.868566395862
 10
2015.7932861149789
 20
1316.5495137924274
 10
2022.729369164465
 20
1345.091012608908
 10
2024.9600589001438
 20
1354.428642440836
 10
2033.9864627090997
 20
1392.213017440836
 10
2037.099281562243
 20
1405.2432249679507
 10
2042.9325697988315
 20
1430.092997453011
 10
2051.204366199295
 20
1465.3307999166286
 10
2051.813755395792
 20
1467.9737905301029
 10
2060.525625125492
 20
1505.7581655301028
 10
2065.044990467564
 20
1525.3591696939613
 10
2069.183198094746
 20
1543.6397333992156
 10
2077.736522343077
 20
1581.4241083992156
 10
2078.62152236159
 20
1585.3336027202138
 10
2086.168772503758
 20
1619.3064128895041
 10
2091.9343305014845
 20
1645.25920412964
 10
2094.534168430416
 20
1657.189416005852
 10
2102.768158929933
 20
1694.973791005852
 10
2104.9837841527496
 20
1705.1409164456084
 10
2110.9059305857736
 20
1732.8574549998832
 10
2117.7702532429785
 20
1764.9835203934144
 10
2118.9760283817313
 20
1770.7417424380913
 10
2126.888099096411
 20
1808.5261174380912
 10
2130.2941083754727
 20
1824.7916358459026
 10
2134.7286456947395
 20
1846.4109912668994
 10
2142.4789332384607
 20
1884.1953662668948
 10
2142.5557208398423
 20
1884.5697228968356
 10
2150.088864575291
 20
1922.08078987448
 10
2154.5554626196813
 20
1944.3220830568841
 10
2157.6299353425647
 20
1959.9667271492017
 10
2165.055289962536
 20
1997.7511021492016
 10
2166.293706397389
 20
2004.0528605668806
 10
2172.364407235013
 20
2035.6375175345827
 10
2177.770825556279
 20
2063.76604382314
 10
2179.604227724936
 20
2073.5243760806625
 10
2186.703182058343
 20
2111.3087510806627
 10
2188.987194180071
 20
2123.465466909331
 10
2193.710042837302
 20
2149.196018491734
 10
2199.943187049913
 20
2183.1548112295864
 10
2200.647291962242
 20
2187.083661170381
 10
2207.4187809342516
 20
2224.868036170381
 10
2210.6391796390653
 20
2242.83760723742
 10
2214.1223766931257
 20
2262.756021257815
 10
2220.7298517438385
 20
2300.540396257815
 10
2221.075548105399
 20
2302.517236255104
 10
2227.199494055656
 20
2338.4286916705046
 10
2231.2526692818565
 20
2362.1969323781805
 10
2233.5992230223546
 20
2376.317266133118
 10
2239.878328603527
 20
2414.1016411331184
 10
2244.7139694620555
 20
2443.2
 10
200.0000000000001
 20
2443.2
 10
204.8356408585289
 20
2414.1016411331184
 10
211.11474643970064
 20
2376.317266133118
 10
213.46130018019892
 20
2362.1969323781805
 10
217.51447540639947
 20
2338.4286916705046
 10
223.63842135665675
 20
2302.517236255104
 10
223.98411771821725
 20
2300.540396257815
 10
230.59159276892967
 20
2262.756021257815
 10
234.07478982299006
 20
2242.83760723742
 10
237.29518852780393
 20
2224.868036170381
 10
244.06667749981364
 20
2187.083661170381
 10
244.77078241214235
 20
2183.1548112295864
 10
251.00392662475372
 20
2149.196018491734
 10
255.72677528198437
 20
2123.465466909331
 10
258.0107874037126
 20
2111.3087510806627
 10
265.1097417371194
 20
2073.5243760806625
 10
266.94314390577654
 20
2063.76604382314
 10
272.3495622270425
 20
2035.6375175345827
 10
278.4202630646664
 20
2004.0528605668806
 10
279.6586794995196
 20
1997.7511021492016
 10
287.084034119491
 20
1959.9667271492017
 10
290.1585068423742
 20
1944.3220830568841
 10
294.6251048867641
 20
1922.08078987448
 10
302.15824862221336
 20
1884.5697228968356
 10
302.23503622359465
 20
1884.1953662668948
 10
309.98532376731623
 20
1846.4109912668994
 10
314.41986108658284
 20
1824.7916358459026
 10
317.8258703656443
 20
1808.5261174380912
 10
325.73794108032416
 20
1770.7417424380913
 10
326.9437162190769
 20
1764.9835203934144
 10
333.80803887628167
 20
1732.8574549998832
 10
339.73018530930574
 20
1705.1409164456084
 10
341.9458105321223
 20
1694.973791005852
 10
350.17980103163995
 20
1657.189416005852
 10
352.7796389605711
 20
1645.25920412964
 10
358.5451969582973
 20
1619.3064128895041
 10
366.0924471004655
 20
1585.3336027202138
 10
366.9774471189787
 20
1581.4241083992156
 10
375.53077136730974
 20
1543.6397333992156
 10
379.6689789944918
 20
1525.3591696939613
 10
384.18834433656366
 20
1505.7581655301028
 10
392.9002140662634
 20
1467.9737905301029
 10
393.50960326276083
 20
1465.3307999166286
 10
401.7813996632241
 20
1430.092997453011
 10
407.61468789981245
 20
1405.2432249679507
 10
410.7275067529557
 20
1392.213017440836
 10
419.75391056191177
 20
1354.428642440836
 10
421.9846002975904
 20
1345.091012608908
 10
428.92068334707653
 20
1316.5495137924274
 10
436.6197072715696
 20
1284.868566395862
 10
438.1511529054794
 20
1278.671274754328
 10
447.4882503781806
 20
1240.886899754328
 10
451.52037509002173
 20
1224.5701254457806
 10
456.93604194355896
 20
1203.0095884406458
 10
466.4268810270372
 20
1165.2252134406463
 10
466.68696950637707
 20
1164.1897643565221
 10
476.0895936881843
 20
1127.348867751368
 10
482.11985579461555
 20
1103.7213932857965
 10
485.81330499511864
 20
1089.4735252894409
 10
495.608080583365
 20
1051.6891502894407
 10
497.8193987875992
 20
1043.1587581921092
 10
505.54270577191687
 20
1013.8148482769705
 10
513.7859629182309
 20
982.4954412405901
 10
515.5367170813033
 20
975.9416234709046
 10
525.6302464034525
 20
938.1572484709046
 10
530.0199122632977
 20
921.7248613762215
 10
535.8307731725665
 20
900.2851370785756
 10
546.071564734087
 20
862.5007620785753
 10
546.521610589838
 20
860.8402750665377
 10
556.4755138152233
 20
824.6297996734885
 10
563.291421403841
 20
799.8347772154126
 10
566.9354387250481
 20
786.7600211117544
 10
577.466183304862
 20
748.9756461117545
 10
580.329708001072
 20
738.7013022490461
 10
588.1244996973131
 20
711.1070854495688
 10
597.6368335197852
 20
677.4326253747888
 10
598.8368560312056
 20
673.2397758621358
 10
609.6510053211125
 20
635.4554008621358
 10
615.2131609950792
 20
616.0213640128678
 10
620.5563692878461
 20
597.5893745644414
 10
631.5095974459844
 20
559.8049995644417
 10
633.0590534146157
 20
554.4599794005682
 10
642.6042335620888
 20
521.9402877342699
 10
651.1748737754227
 20
492.7407783678399
 10
653.7489225624641
 20
484.0769204378508
 10
664.9747327527743
 20
446.29254543785055
 10
669.5609851414742
 20
430.85591528274034
 10
676.3027628388462
 20
408.43055155851306
 10
687.6619479034315
 20
370.64617655851316
 10
688.217750701741
 20
368.79739416453236
 10
699.1692320381353
 20
332.7855837287075
 10
707.1455338283853
 20
306.5570709616864
 10
710.7222970487901
 20
294.9264182657354
 10
722.3420888471501
 20
257.1420432657355
 10
726.3446981347811
 20
244.1266559914405
 10
734.0680075291807
 20
219.28433011151085
 10
745.8156075330223
 20
181.49771653700958
 10
745.8374832475586
 20
181.42809277665384
 10
757.7092953590043
 20
143.6437177766486
 10
765.5586262906077
 20
118.66167959791876
 10
769.6450009411999
 20
105.7889782891493
 10
781.6394618150248
 20
68.00460328914929
 10
785.5741190859446
 20
55.609834788520125
 10
793.7368581743006
 20
30.151382147924608
 10
805.8516555304362
 20
-7.632992852075385
  0
LWPOLYLINE
  5
36
330
17
100
AcDbEntity
  8
SEW
100
AcDbPolyline
 90
208
 70
1
 10
1615.0560664297518
 20
0.0
 10
1627.1708637858876
 20
37.784375000000004
 10
1635.322570900543
 20
63.20842044260178
 10
1639.2462957011728
 20
75.56875000000001
 10
1651.2407565749977
 20
113.353125
 10
1655.3159680037736
 20
126.19066046315527
 10
1663.1542395579747
 20
151.13750000000002
 10
1675.0260516694186
 20
188.92187500000003
 10
1675.0366431610155
 20
188.95558450336375
 10
1686.7730671530444
 20
226.70625
 10
1694.4849817938416
 20
251.51192421056572
 10
1698.4763089227522
 20
264.490625
 10
1710.0961007211122
 20
302.27500000000003
 10
1713.6613693238235
 20
313.8682753527978
 10
1721.6262934832775
 20
340.059375
 10
1732.5661911725338
 20
376.03309487144577
 10
1733.110531702009
 20
377.84375000000006
 10
1744.4697167665943
 20
415.628125
 10
1751.1998327615452
 20
438.014698077283
 10
1755.7745492080237
 20
453.4125
 10
1767.0003593983338
 20
491.19687500000003
 10
1769.5626795124294
 20
499.82125599519986
 10
1778.1217211765145
 20
528.98125
 10
1787.655116846759
 20
561.4607928624001
 10
1789.1929227981282
 20
566.765625
 10
1800.1461509562664
 20
604.5500000000001
 10
1805.4775301861066
 20
622.9411837842815
 10
1811.0279955574272
 20
642.334375
 10
1821.842144847334
 20
680.11875
 10
1823.030304952044
 20
684.2701525516828
 10
1832.53091938387
 20
717.903125
 10
1840.3138265661437
 20
745.4552696225991
 10
1843.1656139673173
 20
755.6875000000001
 10
1853.6963585471312
 20
793.4718750000001
 10
1857.328480449978
 20
806.5039502709122
 10
1864.1326439809648
 20
831.25625
 10
1874.0746520251196
 20
867.4234529041082
 10
1874.5129581332167
 20
869.040625
 10
1884.7537496947373
 20
906.825
 10
1890.5527267131401
 20
928.2208775514016
 10
1894.9306681120224
 20
944.6093750000001
 10
1905.0241974341716
 20
982.3937500000001
 10
1906.7630899356122
 20
988.9031645231189
 10
1914.9946487627724
 20
1020.1781250000001
 10
1922.7061271141083
 20
1049.4770932416639
 10
1924.9057838498065
 20
1057.9625
 10
1934.7005594380526
 20
1095.746875
 10
1938.3822236702006
 20
1109.9492812438443
 10
1944.4008716976275
 20
1133.53125
 10
1953.7917650254612
 20
1170.3261833538356
 10
1954.0402971619924
 20
1171.3156250000002
 10
1963.5311362454706
 20
1209.1000000000001
 10
1968.935136601463
 20
1230.6140910255644
 10
1972.9557728400623
 20
1246.884375
 10
1982.2928703127636
 20
1284.66875
 10
1983.8127238197771
 20
1290.8191318528156
 10
1991.500337041023
 20
1322.453125
 10
1998.4249121019775
 20
1350.9472692449292
 10
2000.6442785536829
 20
1360.2375
 10
2009.6706823626387
 20
1398.021875
 10
2012.7720868696351
 20
1411.0043022655273
 10
2018.5941486229558
 20
1435.80625
 10
2026.854633544323
 20
1470.9958656313206
 10
2027.4529021566755
 20
1473.590625
 10
2036.1647718863755
 20
1511.3750000000002
 10
2040.6729375476134
 20
1530.9274298676821
 10
2044.8001392915749
 20
1549.1593750000002
 10
2053.353463539906
 20
1586.9437500000001
 10
2054.227384301078
 20
1590.8043016173265
 10
2061.763751754107
 20
1624.728125
 10
2067.5183592262897
 20
1650.6316240981596
 10
2070.107445834225
 20
1662.5125
 10
2078.341436333743
 20
1700.296875
 10
2080.546247744821
 20
1710.4143777060503
 10
2086.457782071075
 20
1738.08125
 10
2093.311435278243
 20
1770.157380758068
 10
2094.5067450352217
 20
1775.865625
 10
2102.418815749902
 20
1813.65
 10
2105.8143072481303
 20
1829.8652903715006
 10
2110.238533080257
 20
1851.4343750000003
 10
2117.9888206239793
 20
1889.2187500000002
 10
2118.0552490760533
 20
1889.5426034737784
 10
2125.5782420431715
 20
1927.0031250000002
 10
2130.0346461835843
 20
1949.193657938305
 10
2133.0991353327604
 20
1964.7875000000001
 10
2140.5244899527315
 20
2002.571875
 10
2141.752883992296
 20
2008.8226338410445
 10
2147.8137745767735
 20
2040.3562500000003
 10
2153.2103479237617
 20
2068.433554832627
 10
2155.0341189357036
 20
2078.140625
 10
2162.1330732691104
 20
2115.925
 10
2164.4074233995525
 20
2128.030289620686
 10
2169.120825423376
 20
2153.709375
 10
2175.344495841241
 20
2187.616553557068
 10
2176.039343723616
 20
2191.49375
 10
2182.8108326956262
 20
2229.278125
 10
2186.0219506703997
 20
2247.1959103245576
 10
2189.496085034756
 20
2267.0625
 10
2196.1035600854684
 20
2304.846875
 10
2196.4401733086006
 20
2306.7717737177654
 10
2202.5552553072753
 20
2342.6312500000004
 10
2206.599549177416
 20
2366.3474095128445
 10
2208.9374417687986
 20
2380.415625
 10
2215.2165473499704
 20
2418.2000000000003
 10
229.49742211208502
 20
2418.2000000000003
 10
235.77652769325675
 20
2380.415625
 10
238.11442028463955
 20
2366.3474095128445
 10
242.1587141547801
 20
2342.6312500000004
 10
248.27379615345512
 20
2306.7717737177654
 10
248.6104093765873
 20
2304.846875
 10
255.21788442729962
 20
2267.0625
 10
258.692018791656
 20
2247.1959103245576
 10
261.90313676642927
 20
2229.278125
 10
268.6746257384391
 20
2191.49375
 10
269.3694736208146
 20
2187.616553557068
 10
275.59314403867916
 20
2153.709375
 10
280.30654606250323
 20
2128.030289620686
 10
282.5808961929449
 20
2115.925
 10
289.67985052635174
 20
2078.140625
 10
291.50362153829394
 20
2068.433554832627
 10
296.90019488528185
 20
2040.3562500000003
 10
302.96108546975915
 20
2008.8226338410445
 10
304.18947950932375
 20
2002.571875
 10
311.6148341292951
 20
1964.7875000000001
 10
314.6793232784713
 20
1949.193657938305
 10
319.13572741888413
 20
1927.0031250000002
 10
326.6587203860023
 20
1889.5426034737784
 10
326.72514883807594
 20
1889.2187500000002
 10
334.47543638179843
 20
1851.4343750000003
 10
338.8996622139251
 20
1829.8652903715006
 10
342.2951537121537
 20
1813.65
 10
350.2072244268337
 20
1775.865625
 10
351.4025341838121
 20
1770.157380758068
 10
358.25618739098024
 20
1738.08125
 10
364.1677217172345
 20
1710.4143777060503
 10
366.37253312831274
 20
1700.296875
 10
374.6065236278305
 20
1662.5125
 10
377.1956102357657
 20
1650.6316240981596
 10
382.95021770794835
 20
1624.728125
 10
390.4865851609775
 20
1590.8043016173265
 10
391.3605059221496
 20
1586.9437500000001
 10
399.91383017048065
 20
1549.1593750000002
 10
404.0410319144421
 20
1530.9274298676821
 10
408.54919757568007
 20
1511.3750000000002
 10
417.2610673053799
 20
1473.590625
 10
417.85933591773244
 20
1470.9958656313206
 10
426.1198208390998
 20
1435.80625
 10
431.94188259242026
 20
1411.0043022655273
 10
435.04328709941683
 20
1398.021875
 10
444.06969090837276
 20
1360.2375
 10
446.2890573600781
 20
1350.9472692449292
 10
453.21363242103257
 20
1322.453125
 10
460.90124564227824
 20
1290.8191318528156
 10
462.4210991492919
 20
1284.66875
 10
471.7581966219932
 20
1246.884375
 10
475.7788328605926
 20
1230.6140910255644
 10
481.18283321658487
 20
1209.1000000000001
 10
490.67367230006323
 20
1171.3156250000002
 10
490.92220443659426
 20
1170.3261833538356
 10
500.313097764428
 20
1133.53125
 10
506.3317457918549
 20
1109.9492812438443
 10
510.01341002400284
 20
1095.746875
 10
519.8081856122491
 20
1057.9625
 10
522.0078423479472
 20
1049.4770932416639
 10
529.7193206992831
 20
1020.1781250000001
 10
537.9508795264433
 20
988.9031645231189
 10
539.6897720278839
 20
982.3937500000001
 10
549.7833013500331
 20
944.6093750000001
 10
554.1612427489154
 20
928.2208775514016
 10
559.9602197673182
 20
906.825
 10
570.2010113288387
 20
869.040625
 10
570.639317436936
 20
867.4234529041082
 10
580.5813254810907
 20
831.25625
 10
587.3854890120773
 20
806.5039502709122
 10
591.0176109149243
 20
793.4718750000001
 10
601.5483554947381
 20
755.6875000000001
 10
604.4001428959117
 20
745.4552696225991
 10
612.1830500781855
 20
717.903125
 10
621.6836645100115
 20
684.2701525516828
 10
622.8718246147214
 20
680.11875
 10
633.6859739046283
 20
642.334375
 10
639.2364392759489
 20
622.9411837842815
 10
644.5678185057891
 20
604.5500000000001
 10
655.5210466639275
 20
566.765625
 10
657.0588526152964
 20
561.4607928624001
 10
666.592248285541
 20
528.98125
 10
675.1512899496262
 20
499.82125599519986
 10
677.7136100637217
 20
491.19687500000003
 10
688.9394202540318
 20
453.4125
 10
693.5141367005103
 20
438.014698077283
 10
700.2442526954612
 20
415.628125
 10
711.6034377600465
 20
377.84375000000006
 10
712.1477782895217
 20
376.03309487144577
 10
723.0876759787781
 20
340.059375
 10
731.052600138232
 20
313.8682753527978
 10
734.6178687409433
 20
302.27500000000003
 10
746.2376605393033
 20
264.490625
 10
750.228987668214
 20
251.51192421056572
 10
757.9409023090111
 20
226.70625
 10
769.67732630104
 20
188.95558450336375
 10
769.6879177926369
 20
188.92187500000003
 10
781.5597299040808
 20
151.13750000000002
 10
789.3980014582819
 20
126.19066046315527
 10
793.4732128870578
 20
113.353125
 10
805.4676737608827
 20
75.56875000000001
 10
809.3913985615125
 20
63.20842044260178
 10
817.5431056761679
 20
37.784375000000004
 10
829.6579030323037
 20
0.0
  0
TEXT
  5
37
330
17
100
AcDbEntity
  8
NOTES
100
AcDbText
 10
1072.3569847310278
 20
1209.1000000000001
 30
0.0
 40
60.0
  1
PANEL A x8
100
AcDbText
  0
LWPOLYLINE
  5
38
330
17
100
AcDbEntity
  8
CUT
100
AcDbPolyline
 90
216
 70
1
 10
2638.454052407071
 20
-25.0
 10
4666.549762122415
 20
-25.0
 10
4670.0232511372415
 20
-4.098358866881291
 10
4671.315843198749
 20
3.679784459847531
 10
4676.188804003112
 20
33.79046420783179
 10
4680.97560293575
 20
63.36873817006512
 10
4682.284442271959
 20
71.67950632003691
 10
4688.234996468827
 20
109.46388132003722
 10
4690.377249809486
 20
123.06659812429818
 10
4694.096491292839
 20
147.3531137805462
 10
4699.521163222549
 20
182.77603007694685
 10
4699.888162794707
 20
185.24250880436134
 10
4705.510286879993
 20
223.02688380436112
 10
4708.407723179856
 20
242.49956317461994
 10
4711.068080482795
 20
260.9164145261156
 10
4716.526121928087
 20
298.70078952611584
 10
4717.037310270178
 20
302.2395922645711
 10
4721.850316278508
 20
336.590430012296
 10
4725.410305646728
 20
361.9983802537216
 10
4727.10506025705
 20
374.4801552703636
 10
4732.235359725197
 20
412.264530270364
 10
4733.527091006939
 20
421.7780605139008
 10
4737.2571064451195
 20
450.15431625489936
 10
4741.388048571582
 20
481.58063932903127
 10
4742.209716699531
 20
488.0441398709062
 10
4747.013029775914
 20
525.8285148709066
 10
4748.993561063346
 20
541.4079983802105
 10
4751.733418786957
 20
563.7183539744173
 10
4756.344011685018
 20
601.2618972647766
 10
4756.3850455941465
 20
601.6081873705364
 10
4760.862333811288
 20
639.3925623705321
 10
4763.439784097381
 20
661.1439760455997
 10
4765.282668208636
 20
677.2823698090486
 10
4769.597361812095
 20
715.0667448090489
 10
4770.281262396929
 20
721.0557578271238
 10
4773.787072079056
 20
752.9565069778173
 10
4776.868831093537
 20
780.9986513546339
 10
4777.908839876945
 20
790.8462054939811
 10
4781.89928068281
 20
828.6305804939809
 10
4783.202875088137
 20
840.9739536336973
 10
4785.791562366734
 20
866.5201978932331
 10
4789.28377965055
 20
900.982852566641
 10
4789.616409501903
 20
904.4097176172505
 10
4793.283963039646
 20
942.1940926172505
 10
4795.111930397501
 20
961.0264296032535
 10
4796.880562855096
 20
980.0834989994306
 10
4800.387223329783
 20
1017.86787399943
 10
4800.687713270936
 20
1021.1056624030128
 10
4803.7564198654945
 20
1055.7571522490891
 10
4806.011514516683
 20
1081.2214275063407
 10
4807.05919920183
 20
1093.6462884342382
 10
4810.245239774441
 20
1131.4306634342386
 10
4811.083720663535
 20
1141.3745030125026
 10
4813.321984088152
 20
1169.319644463087
 10
4815.90471850281
 20
1201.5655712620119
 10
4816.332896134849
 20
1207.208458064388
 10
4819.199943584523
 20
1244.9928330643884
 10
4820.474895068419
 20
1261.795221521475
 10
4821.986245205913
 20
1282.8814677667585
 10
4824.694428525368
 20
1320.6658427667576
 10
4824.794637617514
 20
1322.0639526690231
 10
4827.2570641842485
 20
1358.5542878770755
 10
4828.864333611732
 20
1382.3721758786212
 10
4829.754988660649
 20
1396.4425334580865
 10
4832.146743395655
 20
1434.2269084580869
 10
4832.684370699069
 20
1442.7202173016478
 10
4834.422489455462
 20
1472.114945305311
 10
4836.255136696416
 20
1503.1083207443505
 10
4836.63413999195
 20
1510.0027649233514
 10
4838.711233122718
 20
1547.787139923351
 10
4839.577019572782
 20
1563.5366503398573
 10
4840.702212993412
 20
1585.674734501707
 10
4842.622647022023
 20
1623.4591095017092
 10
4842.650407433202
 20
1624.0052932135877
 10
4844.39393946032
 20
1661.3464718901707
 10
4845.475688503373
 20
1684.5142621410066
 10
4846.102286062583
 20
1699.2335955738943
 10
4847.71075544465
 20
1737.0179705738947
 10
4848.053251114993
 20
1745.0634981968465
 10
4849.200932355502
 20
1774.9048496482105
 10
4850.383483691836
 20
1805.6528733949249
 10
4850.6287741341
 20
1812.7914787932582
 10
4851.927087395202
 20
1850.575853793259
 10
4852.46677473655
 20
1866.282193317937
 10
4853.1382694125605
 20
1888.4622282485066
 10
4854.282181346346
 20
1926.246603248509
 10
4854.303512818183
 20
1926.9511997365748
 10
4855.277677410442
 20
1964.1327187872098
 10
4855.89408656043
 20
1987.6595732175147
 10
4856.211959676911
 20
2002.0185716908654
 10
4857.048413351435
 20
2039.8029466908665
 10
4857.238884630605
 20
2048.4069357198896
 10
4857.768489433469
 20
2077.6885337237254
 10
4858.338295729312
 20
2109.1928531798894
 10
4858.42793154482
 20
2115.573852107385
 10
4858.958700050665
 20
2153.3582271073856
 10
4859.192708580835
 20
2170.0168380833347
 10
4859.405387350279
 20
2191.2432744955195
 10
4859.783968767486
 20
2229.027649495519
 10
4859.802511924197
 20
2230.878352026022
 10
4860.018829870852
 20
2266.912423948776
 10
4860.1680945049175
 20
2291.776808261828
 10
4860.194109315653
 20
2304.796923909872
 10
4860.269604295189
 20
2342.581298909873
 10
4860.28984506743
 20
2352.7115742385276
 10
4860.234450096693
 20
2380.4655231789193
 10
4860.168152348149
 20
2413.6819741214385
 10
4860.1402456537135
 20
2418.3494708889884
 10
4859.991665770964
 20
2443.2
 10
2445.0121487585216
 20
2443.2
 10
2444.863568875772
 20
2418.3494708889884
 10
2444.8356621813364
 20
2413.6819741214385
 10
2444.769364432793
 20
2380.4655231789193
 10
2444.7139694620555
 20
2352.7115742385276
 10
2444.7342102342964
 20
2342.581298909873
 10
2444.8097052138323
 20
2304.796923909872
 10
2444.835720024568
 20
2291.776808261828
 10
2444.984984658634
 20
2266.912423948776
 10
2445.201302605289
 20
2230.878352026022
 10
2445.2198457619993
 20
2229.027649495519
 10
2445.5984271792067
 20
2191.2432744955195
 10
2445.8111059486505
 20
2170.0168380833347
 10
2446.045114478821
 20
2153.3582271073856
 10
2446.575882984666
 20
2115.573852107385
 10
2446.6655188001732
 20
2109.1928531798894
 10
2447.235325096017
 20
2077.6885337237254
 10
2447.764929898881
 20
2048.4069357198896
 10
2447.955401178051
 20
2039.8029466908665
 10
2448.791854852575
 20
2002.0185716908654
 10
2449.1097279690557
 20
1987.6595732175147
 10
2449.726137119043
 20
1964.1327187872098
 10
2450.700301711303
 20
1926.9511997365748
 10
2450.7216331831396
 20
1926.246603248509
 10
2451.8655451169257
 20
1888.4622282485066
 10
2452.5370397929355
 20
1866.282193317937
 10
2453.076727134284
 20
1850.575853793259
 10
2454.3750403953854
 20
1812.7914787932582
 10
2454.6203308376494
 20
1805.6528733949249
 10
2455.8028821739836
 20
1774.9048496482105
 10
2456.9505634144925
 20
1745.0634981968465
 10
2457.2930590848355
 20
1737.0179705738947
 10
2458.901528466903
 20
1699.2335955738943
 10
2459.5281260261127
 20
1684.5142621410066
 10
2460.609875069166
 20
1661.3464718901707
 10
2462.3534070962837
 20
1624.0052932135877
 10
2462.381167507463
 20
1623.4591095017092
 10
2464.3016015360736
 20
1585.674734501707
 10
2465.4267949567043
 20
1563.5366503398573
 10
2466.2925814067676
 20
1547.787139923351
 10
2468.3696745375355
 20
1510.0027649233514
 10
2468.7486778330695
 20
1503.1083207443505
 10
2470.581325074024
 20
1472.114945305311
 10
2472.3194438304163
 20
1442.7202173016478
 10
2472.8570711338307
 20
1434.2269084580869
 10
2475.2488258688363
 20
1396.4425334580865
 10
2476.1394809177536
 20
1382.3721758786212
 10
2477.7467503452367
 20
1358.5542878770755
 10
2480.2091769119716
 20
1322.0639526690231
 10
2480.309386004118
 20
1320.6658427667576
 10
2483.0175693235724
 20
1282.8814677667585
 10
2484.528919461067
 20
1261.795221521475
 10
2485.803870944963
 20
1244.9928330643884
 10
2488.6709183946373
 20
1207.208458064388
 10
2489.099096026676
 20
1201.5655712620119
 10
2491.6818304413337
 20
1169.319644463087
 10
2493.92009386595
 20
1141.3745030125026
 10
2494.7585747550447
 20
1131.4306634342386
 10
2497.944615327656
 20
1093.6462884342382
 10
2498.992300012803
 20
1081.2214275063407
 10
2501.247394663991
 20
1055.7571522490891
 10
2504.3161012585497
 20
1021.1056624030128
 10
2504.6165911997023
 20
1017.86787399943
 10
2508.1232516743894
 20
980.0834989994306
 10
2509.8918841319846
 20
961.0264296032535
 10
2511.71985148984
 20
942.1940926172505
 10
2515.3874050275826
 20
904.4097176172505
 10
2515.7200348789356
 20
900.982852566641
 10
2519.2122521627516
 20
866.5201978932331
 10
2521.8009394413484
 20
840.9739536336973
 10
2523.104533846675
 20
828.6305804939809
 10
2527.0949746525403
 20
790.8462054939811
 10
2528.134983435949
 20
780.9986513546339
 10
2531.2167424504296
 20
752.9565069778173
 10
2534.7225521325563
 20
721.0557578271238
 10
2535.4064527173905
 20
715.0667448090489
 10
2539.721146320849
 20
677.2823698090486
 10
2541.564030432105
 20
661.1439760455997
 10
2544.1414807181973
 20
639.3925623705321
 10
2548.618768935339
 20
601.6081873705364
 10
2548.659802844468
 20
601.2618972647766
 10
2553.2703957425283
 20
563.7183539744173
 10
2556.01025346614
 20
541.4079983802105
 10
2557.9907847535715
 20
525.8285148709066
 10
2562.794097829955
 20
488.0441398709062
 10
2563.615765957904
 20
481.58063932903127
 10
2567.746708084366
 20
450.15431625489936
 10
2571.4767235225463
 20
421.7780605139008
 10
2572.768454804289
 20
412.264530270364
 10
2577.8987542724353
 20
374.4801552703636
 10
2579.5935088827573
 20
361.9983802537216
 10
2583.1534982509775
 20
336.590430012296
 10
2587.966504259308
 20
302.2395922645711
 10
2588.4776926013988
 20
298.70078952611584
 10
2593.935734046691
 20
260.9164145261156
 10
2596.59609134963
 20
242.49956317461994
 10
2599.493527649492
 20
223.02688380436112
 10
2605.115651734779
 20
185.24250880436134
 10
2605.4826513069365
 20
182.77603007694685
 10
2610.907323236647
 20
147.3531137805462
 10
2614.62656472
 20
123.06659812429818
 10
2616.768818060658
 20
109.46388132003722
 10
2622.719372257527
 20
71.67950632003691
 10
2624.028211593735
 20
63.36873817006512
 10
2628.8150105263735
 20
33.79046420783179
 10
2633.6879713307367
 20
3.679784459847531
 10
2634.980563392244
 20
-4.098358866881291
  0
LWPOLYLINE
  5
39
330
17
100
AcDbEntity
  8
SEW
100
AcDbPolyline
 90
212
 70
1
 10
4645.3614698836855
 20
0.0
 10
4646.645386232133
 20
7.725937420747453
 10
4651.509892426947
 20
37.7843750000002
 10
4656.288224826895
 20
67.31033311882007
 10
4657.588819510063
 20
75.56874999999997
 10
4663.539373706932
 20
113.35312500000016
 10
4665.673372916989
 20
126.90343035557738
 10
4669.384582808426
 20
151.13749999999993
 10
4674.801215923987
 20
186.5079231236484
 10
4675.1603997661105
 20
188.9218750000001
 10
4680.782523851398
 20
226.7062499999999
 10
4683.67213926946
 20
246.12636789593535
 10
4686.324899210203
 20
264.4906250000001
 10
4691.782940655494
 20
302.27499999999986
 10
4692.286528374982
 20
305.7611859202156
 10
4697.092157609652
 20
340.05937500000005
 10
4700.644768662125
 20
365.4146655674917
 10
4702.332369032745
 20
377.84374999999983
 10
4707.462668500892
 20
415.628125
 10
4708.747245552462
 20
425.08896472959054
 10
4712.470330965377
 20
453.4125000000002
 10
4716.594344467563
 20
484.78611326162735
 10
4717.409308210843
 20
491.196875
 10
4722.212621287226
 20
528.9812500000002
 10
4724.186450829003
 20
544.508015465126
 10
4726.919830991223
 20
566.7656249999999
 10
4731.523950058352
 20
604.2564526077609
 10
4731.558734179578
 20
604.5500000000002
 10
4736.03602239672
 20
642.3343749999999
 10
4738.607227577185
 20
664.0330854758276
 10
4740.444090402885
 20
680.1187500000001
 10
4744.758784006343
 20
717.9031249999998
 10
4745.436668807071
 20
723.8394569557549
 10
4748.936686224652
 20
755.6875000000001
 10
4752.012659169585
 20
783.6769946411138
 10
4753.047105029088
 20
793.4718750000003
 10
4757.037545834954
 20
831.25625
 10
4758.335584086298
 20
843.547013461785
 10
4760.918937913342
 20
869.0406249999997
 10
4764.405828978783
 20
903.4507183321008
 10
4764.733354805753
 20
906.825
 10
4768.400908343496
 20
944.6093750000002
 10
4770.223779268611
 20
963.3892068149584
 10
4771.987536917811
 20
982.39375
 10
4775.494197392498
 20
1020.1781250000001
 10
4775.789820377357
 20
1023.3634717990809
 10
4778.853881013049
 20
1057.9624999999999
 10
4781.10433772659
 20
1083.3744041867842
 10
4782.147604791199
 20
1095.746875
 10
4785.333645363811
 20
1133.5312500000002
 10
4786.167716737884
 20
1143.4227955897409
 10
4788.401790234648
 20
1171.3156250000002
 10
4790.980342832811
 20
1203.5093410304594
 10
4791.404557459641
 20
1209.1
 10
4794.271604909316
 20
1246.884375
 10
4795.542601432944
 20
1263.6346416472954
 10
4797.050214603214
 20
1284.6687500000003
 10
4799.758397922668
 20
1322.453125
 10
4799.854877959855
 20
1323.7992074010313
 10
4802.313792607544
 20
1360.2374999999997
 10
4803.917557835116
 20
1384.0034597811753
 10
4804.8049249273845
 20
1398.021875
 10
4807.196679662389
 20
1435.80625
 10
4807.7310264803
 20
1444.2477345102973
 10
4809.466080069521
 20
1473.5906250000003
 10
4811.295669316978
 20
1504.5322842448709
 10
4811.6718289832625
 20
1511.3750000000002
 10
4813.748922114031
 20
1549.159375
 10
4814.611871766723
 20
1564.857281271227
 10
4815.734441773997
 20
1586.9437500000001
 10
4817.6548758026065
 20
1624.7281250000003
 10
4817.680019251107
 20
1625.22282019536
 10
4819.421146696051
 20
1662.5125000000005
 10
4820.500497191704
 20
1685.6289206254603
 10
4821.124907559984
 20
1700.2968749999998
 10
4822.733376942053
 20
1738.08125
 10
4823.073691010084
 20
1746.0755298461766
 10
4824.219400962823
 20
1775.8656250000001
 10
4825.399986127821
 20
1806.5625254837303
 10
4825.643519655958
 20
1813.6499999999996
 10
4826.9418329170585
 20
1851.4343750000007
 10
4827.479767966485
 20
1867.089718161124
 10
4828.149718537419
 20
1889.21875
 10
4829.293630471205
 20
1927.0031250000002
 10
4829.3134219476515
 20
1927.6568541427746
 10
4830.2862536502125
 20
1964.7875000000004
 10
4830.90133349289
 20
1988.2636179680549
 10
4831.218083317928
 20
2002.5718749999996
 10
4832.054536992452
 20
2040.3562500000007
 10
4832.243888023775
 20
2048.909635073263
 10
4832.772577498155
 20
2078.140625
 10
4833.341470961877
 20
2109.5944744016956
 10
4833.430397763314
 20
2115.925
 10
4833.96116626916
 20
2153.7093750000004
 10
4834.19446772877
 20
2170.3176510015464
 10
4834.406642141335
 20
2191.4937499999996
 10
4834.785223558543
 20
2229.278125
 10
4834.803263746026
 20
2231.078628611446
 10
4835.019280331333
 20
2267.0625
 10
4835.1682444352155
 20
2291.876822233566
 10
4835.194159217931
 20
2304.8468749999997
 10
4835.269654197467
 20
2342.631250000001
 10
4835.289795217913
 20
2352.7116006942374
 10
4835.234499893308
 20
2380.415625
 10
4835.168301515689
 20
2413.582289192139
 10
4835.14069248864
 20
2418.2000000000003
 10
2469.863122040846
 20
2418.2000000000003
 10
2469.835513013797
 20
2413.582289192139
 10
2469.769314636178
 20
2380.415625
 10
2469.714019311573
 20
2352.7116006942374
 10
2469.7341603320183
 20
2342.631250000001
 10
2469.8096553115547
 20
2304.8468749999997
 10
2469.83557009427
 20
2291.876822233566
 10
2469.9845341981527
 20
2267.0625
 10
2470.20055078346
 20
2231.078628611446
 10
2470.2185909709424
 20
2229.278125
 10
2470.5971723881503
 20
2191.4937499999996
 10
2470.809346800715
 20
2170.3176510015464
 10
2471.042648260326
 20
2153.7093750000004
 10
2471.5734167661712
 20
2115.925
 10
2471.6623435676083
 20
2109.5944744016956
 10
2472.23123703133
 20
2078.140625
 10
2472.75992650571
 20
2048.909635073263
 10
2472.9492775370336
 20
2040.3562500000007
 10
2473.7857312115575
 20
2002.5718749999996
 10
2474.1024810365952
 20
1988.2636179680549
 10
2474.717560879273
 20
1964.7875000000004
 10
2475.690392581834
 20
1927.6568541427746
 10
2475.710184058281
 20
1927.0031250000002
 10
2476.8540959920665
 20
1889.21875
 10
2477.5240465630004
 20
1867.089718161124
 10
2478.061981612427
 20
1851.4343750000007
 10
2479.3602948735283
 20
1813.6499999999996
 10
2479.603828401665
 20
1806.5625254837303
 10
2480.784413566663
 20
1775.8656250000001
 10
2481.9301235194016
 20
1746.0755298461766
 10
2482.2704375874328
 20
1738.08125
 10
2483.878906969501
 20
1700.2968749999998
 10
2484.503317337782
 20
1685.6289206254603
 10
2485.5826678334342
 20
1662.5125000000005
 10
2487.3237952783784
 20
1625.22282019536
 10
2487.348938726879
 20
1624.7281250000003
 10
2489.2693727554893
 20
1586.9437500000001
 10
2490.3919427627625
 20
1564.857281271227
 10
2491.2548924154544
 20
1549.159375
 10
2493.3319855462228
 20
1511.3750000000002
 10
2493.7081452125076
 20
1504.5322842448709
 10
2495.5377344599647
 20
1473.5906250000003
 10
2497.2727880491857
 20
1444.2477345102973
 10
2497.807134867096
 20
1435.80625
 10
2500.1988896021016
 20
1398.021875
 10
2501.0862566943697
 20
1384.0034597811753
 10
2502.6900219219415
 20
1360.2374999999997
 10
2505.14893656963
 20
1323.7992074010313
 10
2505.2454166068173
 20
1322.453125
 10
2507.9535999262716
 20
1284.6687500000003
 10
2509.461213096541
 20
1263.6346416472954
 10
2510.73220962017
 20
1246.884375
 10
2513.5992570698445
 20
1209.1
 10
2514.0234716966743
 20
1203.5093410304594
 10
2516.6020242948384
 20
1171.3156250000002
 10
2518.836097791602
 20
1143.4227955897409
 10
2519.670169165675
 20
1133.5312500000002
 10
2522.8562097382865
 20
1095.746875
 10
2523.899476802896
 20
1083.3744041867842
 10
2526.1499335164362
 20
1057.9624999999999
 10
2529.213994152129
 20
1023.3634717990809
 10
2529.509617136988
 20
1020.1781250000001
 10
2533.016277611675
 20
982.39375
 10
2534.7800352608747
 20
963.3892068149584
 10
2536.60290618599
 20
944.6093750000002
 10
2540.2704597237325
 20
906.825
 10
2540.597985550703
 20
903.4507183321008
 10
2544.084876616144
 20
869.0406249999997
 10
2546.668230443188
 20
843.547013461785
 10
2547.966268694532
 20
831.25625
 10
2551.9567095003977
 20
793.4718750000003
 10
2552.9911553599004
 20
783.6769946411138
 10
2556.067128304834
 20
755.6875000000001
 10
2559.5671457224144
 20
723.8394569557549
 10
2560.2450305231423
 20
717.9031249999998
 10
2564.5597241266005
 20
680.1187500000001
 10
2566.396586952301
 20
664.0330854758276
 10
2568.967792132765
 20
642.3343749999999
 10
2573.4450803499076
 20
604.5500000000002
 10
2573.479864471133
 20
604.2564526077609
 10
2578.083983538263
 20
566.7656249999999
 10
2580.817363700483
 20
544.508015465126
 10
2582.7911932422594
 20
528.9812500000002
 10
2587.5945063186423
 20
491.196875
 10
2588.4094700619225
 20
484.78611326162735
 10
2592.533483564109
 20
453.4125000000002
 10
2596.256568977024
 20
425.08896472959054
 10
2597.541146028594
 20
415.628125
 10
2602.6714454967405
 20
377.84374999999983
 10
2604.3590458673602
 20
365.4146655674917
 10
2607.911656919834
 20
340.05937500000005
 10
2612.7172861545037
 20
305.7611859202156
 10
2613.2208738739914
 20
302.27499999999986
 10
2618.678915319283
 20
264.4906250000001
 10
2621.331675260026
 20
246.12636789593535
 10
2624.221290678088
 20
226.7062499999999
 10
2629.8434147633748
 20
188.9218750000001
 10
2630.202598605499
 20
186.5079231236484
 10
2635.61923172106
 20
151.13749999999993
 10
2639.3304416124965
 20
126.90343035557738
 10
2641.4644408225536
 20
113.35312500000016
 10
2647.414995019423
 20
75.56874999999997
 10
2648.7155897025905
 20
67.31033311882007
 10
2653.4939221025393
 20
37.7843750000002
 10
2658.358428297352
 20
7.725937420747453
 10
2659.6423446458
 20
0.0
  0
TEXT
  5
3A
330
17
100
AcDbEntity
  8
NOTES
100
AcDbText
 10
3502.501907264743
 20
1209.1000000000001
 30
0.0
 40
60.0
  1
PANEL B x8
100
AcDbText
  0
LWPOLYLINE
  5
3B
330
17
100
AcDbEntity
  8
CUT
100
AcDbPolyline
 90
212
 70
1
 10
5060.28984506743
 20
-25.0
 10
7475.867256322227
 20
-25.0
 10
7475.716889083799
 20
0.14947088898841826
 10
7475.490978481164
 20
37.9338458889887
 10
7475.380048499264
 20
56.48729130498791
 10
7475.187690491297
 20
75.81751648195606
 10
7474.81169243433
 20
113.60189148195505
 10
7474.772635362731
 20
117.52677091241577
 10
7474.300179604009
 20
151.48528468462834
 10
7473.92294504573
 20
178.59962228384293
 10
7473.730573001958
 20
189.36840048517217
 10
7473.0555978742805
 20
227.15277548517213
 10
7472.831366195848
 20
239.70502145299724
 10
7472.279039055764
 20
265.0356141098471
 10
7471.498286857003
 20
300.84213976734935
 10
7471.444853211536
 20
302.9182283038311
 10
7470.472372095013
 20
340.70260330383076
 10
7469.923970738168
 20
362.00996050130004
 10
7469.432016375234
 20
378.5854156499235
 10
7468.310587855455
 20
416.36979064992295
 10
7468.107732580486
 20
423.20460860305155
 10
7467.06327194836
 20
454.2530182207833
 10
7466.048439120639
 20
484.4206898011211
 10
7465.758172299396
 20
492.136681740241
 10
7464.33676718254
 20
529.921056740241
 10
7463.744956493405
 20
545.6528117072853
 10
7462.823019588141
 20
567.8051749425593
 10
7461.250509721591
 20
605.5895499425583
 10
7461.196150534376
 20
606.8956962238238
 10
7459.526780389939
 20
643.4741407593149
 10
7458.400886774873
 20
668.1441860987485
 10
7457.744363228681
 20
681.3592212686225
 10
7455.867233766161
 20
719.1435962686226
 10
7455.358030456557
 20
729.3932509597446
 10
7453.872743975856
 20
757.0291826411507
 10
7452.0664465475365
 20
790.6379934490226
 10
7451.8190773198
 20
794.9152900828158
 10
7449.633890631931
 20
832.6996650828161
 10
7448.524999760137
 20
851.8736554638164
 10
7447.365829133167
 20
870.5863077740611
 10
7445.025244969454
 20
908.3706827740604
 10
7444.73255457046
 20
913.0956245069767
 10
7442.541067868948
 20
946.2578738056509
 10
7440.6879752399245
 20
974.2994401518249
 10
7439.996303466017
 20
984.1456251109297
 10
7437.3420383074
 20
1021.9300001109301
 10
7436.390125838924
 20
1035.480800625079
 10
7434.57848267587
 20
1059.8183223944834
 10
7431.837870272782
 20
1096.6355695113095
 10
7431.753577926242
 20
1097.7072250572126
 10
7428.781602795321
 20
1135.491600057214
 10
7427.03007231018
 20
1157.759782582009
 10
7425.735033538122
 20
1173.3810911178148
 10
7422.602630737751
 20
1211.1654661178147
 10
7421.965595614214
 20
1218.8496547518712
 10
7419.332352165169
 20
1249.0555521306983
 10
7416.643303776273
 20
1279.90158716447
 10
7415.998859697267
 20
1286.9462381004416
 10
7412.542348229346
 20
1324.730613100442
 10
7411.062060352896
 20
1340.9121744089591
 10
7408.981988856305
 20
1362.6219023928475
 10
7405.3617591826605
 20
1400.4062773928476
 10
7405.220728905786
 20
1401.878211868877
 10
7401.572331939712
 20
1438.2981716427826
 10
7399.118173045132
 20
1462.7967032034924
 10
7397.717580704007
 20
1476.190670658966
 10
7393.766510461742
 20
1513.9750456589663
 10
7392.753256476401
 20
1523.6648679615007
 10
7389.679308754834
 20
1551.8681473259594
 10
7386.124843050737
 20
1584.4801493260964
 10
7385.525650388133
 20
1589.761847503642
 10
7381.2391274744705
 20
1627.5462225036424
 10
7379.231796819106
 20
1645.240221989689
 10
7376.84953098288
 20
1665.4405149245183
 10
7372.393534924009
 20
1703.224889924518
 10
7372.072982090265
 20
1705.9430001556477
 10
7367.765642668159
 20
1741.1197660892713
 10
7364.647263492675
 20
1766.586645663542
 10
7363.068891527283
 20
1779.0152151610419
 10
7358.270447245996
 20
1816.7995901610418
 10
7356.953506040391
 20
1827.1695762333156
 10
7353.331817943756
 20
1854.6955988589643
 10
7348.99057520296
 20
1887.6904738228084
 10
7348.323057266024
 20
1892.5921513516018
 10
7343.177523333963
 20
1930.3765263516023
 10
7340.757336979306
 20
1948.1482930917807
 10
7337.923290949029
 20
1968.2736041509518
 10
7332.6024957742175
 20
2006.0579791509513
 10
7332.252657975565
 20
2008.5422699644782
 10
7327.100442708387
 20
2043.9555610078269
 10
7323.475405486725
 20
2068.8719302813506
 10
7321.525742754158
 20
2081.8536228094576
 10
7315.85107532144
 20
2119.6379978094574
 10
7314.424447581949
 20
2129.137098529176
 10
7310.025053228481
 20
2157.5365124802547
 10
7305.098653193314
 20
2189.337906637393
 10
7304.12508860003
 20
2195.4354498867847
 10
7298.0922441945295
 20
2233.219824886784
 10
7295.496892207715
 20
2249.47480282677
 10
7291.937577317274
 20
2271.1191517480356
 10
7285.724108432038
 20
2308.903526748037
 10
7285.618035561522
 20
2309.54856049503
 10
7279.31262743574
 20
2346.8032065522075
 10
7275.460955337581
 20
2369.5602871222095
 10
7272.8248430627855
 20
2384.7031994812505
 10
7266.247253998583
 20
2422.4875744812507
 10
7262.641588334265
 20
2443.2
 10
5273.515513055392
 20
2443.2
 10
5269.909847391074
 20
2422.4875744812507
 10
5263.332258326872
 20
2384.7031994812505
 10
5260.696146052076
 20
2369.5602871222095
 10
5256.844473953917
 20
2346.8032065522075
 10
5250.539065828135
 20
2309.54856049503
 10
5250.43299295762
 20
2308.903526748037
 10
5244.219524072383
 20
2271.1191517480356
 10
5240.660209181942
 20
2249.47480282677
 10
5238.064857195128
 20
2233.219824886784
 10
5232.0320127896275
 20
2195.4354498867847
 10
5231.058448196343
 20
2189.337906637393
 10
5226.1320481611765
 20
2157.5365124802547
 10
5221.732653807709
 20
2129.137098529176
 10
5220.306026068218
 20
2119.6379978094574
 10
5214.631358635499
 20
2081.8536228094576
 10
5212.681695902932
 20
2068.8719302813506
 10
5209.05665868127
 20
2043.9555610078269
 10
5203.904443414092
 20
2008.5422699644782
 10
5203.55460561544
 20
2006.0579791509513
 10
5198.233810440628
 20
1968.2736041509518
 10
5195.399764410351
 20
1948.1482930917807
 10
5192.979578055694
 20
1930.3765263516023
 10
5187.834044123633
 20
1892.5921513516018
 10
5187.166526186697
 20
1887.6904738228084
 10
5182.825283445902
 20
1854.6955988589643
 10
5179.203595349266
 20
1827.1695762333156
 10
5177.886654143661
 20
1816.7995901610418
 10
5173.088209862374
 20
1779.0152151610419
 10
5171.509837896982
 20
1766.586645663542
 10
5168.391458721499
 20
1741.1197660892713
 10
5164.084119299392
 20
1705.9430001556477
 10
5163.763566465648
 20
1703.224889924518
 10
5159.307570406777
 20
1665.4405149245183
 10
5156.925304570551
 20
1645.240221989689
 10
5154.917973915187
 20
1627.5462225036424
 10
5150.6314510015245
 20
1589.761847503642
 10
5150.032258338921
 20
1584.4801493260964
 10
5146.477792634823
 20
1551.8681473259594
 10
5143.403844913257
 20
1523.6648679615007
 10
5142.390590927916
 20
1513.9750456589663
 10
5138.439520685651
 20
1476.190670658966
 10
5137.038928344526
 20
1462.7967032034924
 10
5134.584769449945
 20
1438.2981716427826
 10
5130.936372483871
 20
1401.878211868877
 10
5130.795342206997
 20
1400.4062773928476
 10
5127.175112533352
 20
1362.6219023928475
 10
5125.095041036761
 20
1340.9121744089591
 10
5123.614753160311
 20
1324.730613100442
 10
5120.15824169239
 20
1286.9462381004416
 10
5119.513797613385
 20
1279.90158716447
 10
5116.824749224488
 20
1249.0555521306983
 10
5114.191505775443
 20
1218.8496547518712
 10
5113.554470651907
 20
1211.1654661178147
 10
5110.422067851536
 20
1173.3810911178148
 10
5109.127029079477
 20
1157.759782582009
 10
5107.375498594336
 20
1135.491600057214
 10
5104.403523463416
 20
1097.7072250572126
 10
5104.319231116875
 20
1096.6355695113095
 10
5101.578618713787
 20
1059.8183223944834
 10
5099.766975550733
 20
1035.480800625079
 10
5098.815063082257
 20
1021.9300001109301
 10
5096.1607979236405
 20
984.1456251109297
 10
5095.469126149733
 20
974.2994401518249
 10
5093.61603352071
 20
946.2578738056509
 10
5091.4245468191975
 20
913.0956245069767
 10
5091.131856420203
 20
908.3706827740604
 10
5088.791272256491
 20
870.5863077740611
 10
5087.632101629521
 20
851.8736554638164
 10
5086.523210757727
 20
832.6996650828161
 10
5084.338024069857
 20
794.9152900828158
 10
5084.090654842121
 20
790.6379934490226
 10
5082.284357413801
 20
757.0291826411507
 10
5080.799070933101
 20
729.3932509597446
 10
5080.289867623496
 20
719.1435962686226
 10
5078.412738160976
 20
681.3592212686225
 10
5077.756214614785
 20
668.1441860987485
 10
5076.630320999719
 20
643.4741407593149
 10
5074.960950855281
 20
606.8956962238238
 10
5074.9065916680665
 20
605.5895499425583
 10
5073.334081801517
 20
567.8051749425593
 10
5072.412144896252
 20
545.6528117072853
 10
5071.820334207117
 20
529.921056740241
 10
5070.398929090261
 20
492.136681740241
 10
5070.108662269018
 20
484.4206898011211
 10
5069.093829441297
 20
454.2530182207833
 10
5068.049368809171
 20
423.20460860305155
 10
5067.846513534202
 20
416.36979064992295
 10
5066.725085014424
 20
378.5854156499235
 10
5066.23313065149
 20
362.00996050130004
 10
5065.684729294644
 20
340.70260330383076
 10
5064.712248178122
 20
302.9182283038311
 10
5064.658814532654
 20
300.84213976734935
 10
5063.8780623338935
 20
265.0356141098471
 10
5063.325735193809
 20
239.70502145299724
 10
5063.101503515377
 20
227.15277548517213
 10
5062.426528387699
 20
189.36840048517217
 10
5062.234156343928
 20
178.59962228384293
 10
5061.856921785648
 20
151.48528468462834
 10
5061.384466026926
 20
117.52677091241577
 10
5061.345408955327
 20
113.60189148195505
 10
5060.96941089836
 20
75.81751648195606
 10
5060.777052890393
 20
56.48729130498791
 10
5060.666122908493
 20
37.9338458889887
 10
5060.440212305858
 20
0.14947088898841826
  0
LWPOLYLINE
  5
3C
330
17
100
AcDbEntity
  8
SEW
100
AcDbPolyline
 90
208
 70
1
 10
7450.717335918725
 20
0.0
 10
7450.491425316091
 20
37.7843750000002
 10
7450.380792180203
 20
56.288171834169454
 10
7450.188928217187
 20
75.5687500000004
 10
7449.81293016022
 20
113.35312499999972
 10
7449.774365772854
 20
117.22849415916326
 10
7449.302598804797
 20
151.13749999999993
 10
7448.926051145303
 20
178.20246564968124
 10
7448.734561020222
 20
188.9218750000001
 10
7448.059585892544
 20
226.70625000000032
 10
7447.83623371912
 20
239.2092622321602
 10
7447.284980024264
 20
264.4906249999996
 10
7446.505298915878
 20
300.2480287657221
 10
7446.45312943447
 20
302.27499999999986
 10
7445.480648317947
 20
340.05937500000005
 10
7444.933513803339
 20
361.3175108384521
 10
7444.443020155622
 20
377.8437500000002
 10
7443.321591635844
 20
415.62812499999956
 10
7443.1202034095495
 20
422.41351357241984
 10
7442.077405361017
 20
453.4124999999998
 10
7441.064242671844
 20
483.5305238059755
 10
7440.775843278847
 20
491.196875
 10
7439.35443816199
 20
528.9812500000002
 10
7438.7645037340335
 20
544.6631294212798
 10
7437.844642220567
 20
566.7656249999995
 10
7436.272132354017
 20
604.5499999999997
 10
7436.219858739927
 20
605.806033987073
 10
7434.552775224289
 20
642.3343749999999
 10
7433.429179833334
 20
666.9540627459121
 10
7432.775157573881
 20
680.1187500000001
 10
7430.898028111361
 20
717.9031250000003
 10
7430.391339158064
 20
728.1021687005058
 10
7428.908772182681
 20
755.6874999999997
 10
7427.105208857925
 20
789.2454388042047
 10
7426.860781045842
 20
793.4718749999998
 10
7424.675594357972
 20
831.25625
 10
7423.56966107673
 20
850.3791002605219
 10
7422.413657589152
 20
869.0406250000002
 10
7420.073073425439
 20
906.8249999999996
 10
7419.783567958284
 20
911.4985269361923
 10
7417.595478044536
 20
944.6093749999998
 10
7415.745801646401
 20
972.5992458920052
 10
7415.057760333033
 20
982.39375
 10
7412.403495174416
 20
1020.1781250000001
 10
7411.4552342848865
 20
1033.6769440352746
 10
7409.647459366745
 20
1057.9624999999994
 10
7406.910738017553
 20
1094.7274748974376
 10
7406.830555885302
 20
1095.7468749999996
 10
7403.858580754381
 20
1133.5312499999998
 10
7402.111184988207
 20
1155.7468655398432
 10
7400.820502643157
 20
1171.3156250000002
 10
7397.688099842786
 20
1209.1000000000004
 10
7397.055447340662
 20
1216.731323590354
 10
7394.4268108165625
 20
1246.8843749999996
 10
7391.742397218724
 20
1277.677244412831
 10
7391.102814871786
 20
1284.6687499999998
 10
7387.646303403865
 20
1322.453125
 10
7386.170906766203
 20
1338.5812184110985
 10
7384.095956122481
 20
1360.2374999999993
 10
7380.475726448836
 20
1398.0218749999995
 10
7380.3398481269105
 20
1399.4400384683017
 10
7376.696835431577
 20
1435.8062499999996
 10
7374.248093444654
 20
1460.2507075219505
 10
7372.8531530498
 20
1473.5906249999998
 10
7368.9020828075345
 20
1511.3750000000002
 10
7367.894514863243
 20
1521.0104462742374
 10
7364.826490957125
 20
1549.1593749999995
 10
7361.277984526489
 20
1581.7167010363855
 10
7360.6849916516985
 20
1586.9437499999997
 10
7356.398468738036
 20
1624.7281249999999
 10
7354.397374578199
 20
1642.3671517049856
 10
7352.021588486536
 20
1662.5125
 10
7347.565592427664
 20
1700.2968750000002
 10
7347.2515571621825
 20
1702.9597198673212
 10
7342.95098127665
 20
1738.0812499999995
 10
7339.839404422251
 20
1763.4925770317009
 10
7338.26808343929
 20
1775.8656249999997
 10
7333.469639158004
 20
1813.65
 10
7332.159788502213
 20
1823.9641529777434
 10
7328.545442271993
 20
1851.4343749999994
 10
7324.211581545878
 20
1884.373144220419
 10
7323.551699545443
 20
1889.2187499999995
 10
7318.406165613382
 20
1927.0031249999997
 10
7315.993655697055
 20
1944.7185225803664
 10
7313.167542569134
 20
1964.7875
 10
7307.846747394321
 20
2002.571875
 10
7307.504883099555
 20
2004.9995438517785
 10
7302.360900265793
 20
2040.3562499999994
 10
7298.744135897185
 20
2065.2157565576326
 10
7296.803007321627
 20
2078.1406249999995
 10
7291.128339888907
 20
2115.9249999999997
 10
7289.710286233756
 20
2125.3670107806533
 10
7285.319729536871
 20
2153.709374999999
 10
7280.402206253078
 20
2185.4534670567737
 10
7279.4377841298665
 20
2191.49375
 10
7273.404939724366
 20
2229.2781249999994
 10
7270.818768098959
 20
2245.4756053161937
 10
7267.268901296961
 20
2267.0624999999995
 10
7261.055432411725
 20
2304.846875
 10
7260.958843915209
 20
2305.434233855485
 10
7254.663189743847
 20
2342.6312499999995
 10
7250.821305845639
 20
2365.330498322294
 10
7248.195253032342
 20
2380.4156249999996
 10
7241.61766396814
 20
2418.2
 10
5294.5394374215175
 20
2418.2
 10
5287.961848357315
 20
2380.4156249999996
 10
5285.335795544019
 20
2365.330498322294
 10
5281.49391164581
 20
2342.6312499999995
 10
5275.198257474448
 20
2305.434233855485
 10
5275.101668977933
 20
2304.846875
 10
5268.888200092696
 20
2267.0624999999995
 10
5265.338333290699
 20
2245.4756053161937
 10
5262.752161665291
 20
2229.2781249999994
 10
5256.719317259791
 20
2191.49375
 10
5255.75489513658
 20
2185.4534670567737
 10
5250.837371852786
 20
2153.709374999999
 10
5246.446815155901
 20
2125.3670107806533
 10
5245.02876150075
 20
2115.9249999999997
 10
5239.3540940680305
 20
2078.1406249999995
 10
5237.412965492473
 20
2065.2157565576326
 10
5233.796201123864
 20
2040.3562499999994
 10
5228.652218290103
 20
2004.9995438517785
 10
5228.310353995336
 20
2002.571875
 10
5222.989558820524
 20
1964.7875
 10
5220.163445692602
 20
1944.7185225803664
 10
5217.750935776276
 20
1927.0031249999997
 10
5212.605401844215
 20
1889.2187499999995
 10
5211.945519843779
 20
1884.373144220419
 10
5207.611659117664
 20
1851.4343749999994
 10
5203.997312887444
 20
1823.9641529777434
 10
5202.687462231654
 20
1813.65
 10
5197.889017950367
 20
1775.8656249999997
 10
5196.317696967406
 20
1763.4925770317009
 10
5193.206120113007
 20
1738.0812499999995
 10
5188.905544227475
 20
1702.9597198673212
 10
5188.591508961993
 20
1700.2968750000002
 10
5184.135512903122
 20
1662.5125
 10
5181.759726811459
 20
1642.3671517049856
 10
5179.758632651621
 20
1624.7281249999999
 10
5175.472109737959
 20
1586.9437499999997
 10
5174.879116863169
 20
1581.7167010363855
 10
5171.330610432532
 20
1549.1593749999995
 10
5168.262586526414
 20
1521.0104462742374
 10
5167.255018582123
 20
1511.3750000000002
 10
5163.303948339857
 20
1473.5906249999998
 10
5161.909007945003
 20
1460.2507075219505
 10
5159.4602659580805
 20
1435.8062499999996
 10
5155.817253262747
 20
1399.4400384683017
 10
5155.681374940821
 20
1398.0218749999995
 10
5152.0611452671765
 20
1360.2374999999993
 10
5149.986194623454
 20
1338.5812184110985
 10
5148.510797985792
 20
1322.453125
 10
5145.054286517871
 20
1284.6687499999998
 10
5144.414704170933
 20
1277.677244412831
 10
5141.730290573095
 20
1246.8843749999996
 10
5139.101654048995
 20
1216.731323590354
 10
5138.469001546871
 20
1209.1000000000004
 10
5135.3365987465
 20
1171.3156250000002
 10
5134.04591640145
 20
1155.7468655398432
 10
5132.298520635276
 20
1133.5312499999998
 10
5129.326545504356
 20
1095.7468749999996
 10
5129.2463633721045
 20
1094.7274748974376
 10
5126.509642022912
 20
1057.9624999999994
 10
5124.701867104771
 20
1033.6769440352746
 10
5123.753606215241
 20
1020.1781250000001
 10
5121.099341056624
 20
982.39375
 10
5120.411299743257
 20
972.5992458920052
 10
5118.561623345121
 20
944.6093749999998
 10
5116.373533431373
 20
911.4985269361923
 10
5116.084027964218
 20
906.8249999999996
 10
5113.743443800506
 20
869.0406250000002
 10
5112.587440312927
 20
850.3791002605219
 10
5111.481507031685
 20
831.25625
 10
5109.296320343816
 20
793.4718749999998
 10
5109.051892531732
 20
789.2454388042047
 10
5107.248329206976
 20
755.6874999999997
 10
5105.765762231594
 20
728.1021687005058
 10
5105.2590732782965
 20
717.9031250000003
 10
5103.381943815776
 20
680.1187500000001
 10
5102.727921556323
 20
666.9540627459121
 10
5101.604326165369
 20
642.3343749999999
 10
5099.93724264973
 20
605.806033987073
 10
5099.88496903564
 20
604.5499999999997
 10
5098.31245916909
 20
566.7656249999995
 10
5097.392597655624
 20
544.6631294212798
 10
5096.802663227667
 20
528.9812500000002
 10
5095.38125811081
 20
491.196875
 10
5095.092858717813
 20
483.5305238059755
 10
5094.079696028641
 20
453.4124999999998
 10
5093.036897980108
 20
422.41351357241984
 10
5092.835509753813
 20
415.62812499999956
 10
5091.714081234035
 20
377.8437500000002
 10
5091.223587586318
 20
361.3175108384521
 10
5090.67645307171
 20
340.05937500000005
 10
5089.703971955188
 20
302.27499999999986
 10
5089.65180247378
 20
300.2480287657221
 10
5088.8721213653935
 20
264.4906249999996
 10
5088.320867670537
 20
239.2092622321602
 10
5088.097515497113
 20
226.70625000000032
 10
5087.422540369435
 20
188.9218750000001
 10
5087.231050244354
 20
178.20246564968124
 10
5086.854502584861
 20
151.13749999999993
 10
5086.382735616803
 20
117.22849415916326
 10
5086.344171229437
 20
113.35312499999972
 10
5085.96817317247
 20
75.5687500000004
 10
5085.776309209455
 20
56.288171834169454
 10
5085.665676073566
 20
37.7843750000002
 10
5085.439765470932
 20
0.0
  0
TEXT
  5
3D
330
17
100
AcDbEntity
  8
NOTES
100
AcDbText
 10
6118.078550694829
 20
1209.1
 30
0.0
 40
60.0
  1
PANEL C x8
100
AcDbText
  0
LWPOLYLINE
  5
3E
330
17
100
AcDbEntity
  8
CUT
100
AcDbPolyline
 90
214
 70
1
 10
7675.867256322227
 20
-24.999999999999996
 10
9682.401556731731
 20
-24.999999999999996
 10
9677.303109830733
 20
4.287574481251187
 10
9676.080380696152
 20
11.311433176818673
 10
9670.554979947783
 20
42.190619059573336
 10
9665.363474646261
 20
71.2038010019636
 10
9663.729373712427
 20
80.0938869530764
 10
9656.783655930336
 20
117.88104366811882
 10
9654.364969139033
 20
131.03955365872477
 10
9649.695424237421
 20
155.78448478546326
 10
9643.083741839144
 20
190.8212237020984
 10
9642.528665361511
 20
193.68804553261282
 10
9635.212283985482
 20
231.47520224765532
 10
9631.518672055781
 20
250.55172186285174
 10
9627.7805360294
 20
269.3788255124337
 10
9620.277866767037
 20
307.16598222747615
 10
9619.668640839185
 20
310.23434560663424
 10
9612.579847991969
 20
345.0696073806298
 10
9607.532531073832
 20
369.872787539672
 10
9604.801750533841
 20
382.9731702948857
 10
9596.925001117648
 20
420.7603270099282
 10
9595.109227567074
 20
429.4711436284565
 10
9588.879075393426
 20
458.66376009852735
 10
9582.397617131985
 20
489.0339211988291
 10
9580.752494065622
 20
496.56699237465705
 10
9572.500279042937
 20
534.3541490896985
 10
9569.396588663049
 20
548.5660466780976
 10
9564.104909516045
 20
572.2571062481193
 10
9556.105033203341
 20
608.0728730419839
 10
9555.628529729835
 20
610.159710770214
 10
9547.000301868571
 20
647.9468674852565
 10
9542.52184400173
 20
667.5601869266351
 10
9538.254859103597
 20
685.8490387685482
 10
9529.438710969194
 20
723.6361954835896
 10
9528.645916558673
 20
727.0342153644365
 10
9520.424464858608
 20
761.5378499965929
 10
9514.476148659132
 20
786.5016321011079
 10
9511.329346293409
 20
799.4389014596766
 10
9502.138170717697
 20
837.226058174719
 10
9500.011440391218
 20
845.9695634505465
 10
9492.775299606517
 20
875.1264177673903
 10
9485.250694149127
 20
905.4455936431161
 10
9483.332042512386
 20
913.0259943621517
 10
9473.767852865132
 20
950.8131510771943
 10
9470.192814619139
 20
964.9377696226213
 10
9464.05879700082
 20
988.7118514997957
 10
9454.836708747476
 20
1024.4546052471535
 10
9454.270180074196
 20
1026.6095808154287
 10
9444.336189139027
 20
1064.3967375304696
 10
9439.181285688968
 20
1084.0050848492363
 10
9434.284697635065
 20
1102.2933993550453
 10
9424.167409893595
 20
1140.0805560700878
 10
9423.225456735721
 20
1143.5986661114625
 10
9413.855533237735
 20
1177.9760529054058
 10
9406.968135225125
 20
1203.24528221493
 10
9403.466735465752
 20
1215.8702864966456
 10
9392.98690207504
 20
1253.6574432116863
 10
9390.408236426807
 20
1262.9553432195064
 10
9382.342368975062
 20
1291.550314925261
 10
9373.544677408438
 20
1322.7397366370085
 10
9371.622820117167
 20
1329.4417261447059
 10
9360.78700448872
 20
1367.2288828597484
 10
9356.376376880542
 20
1382.6098271611984
 10
9349.817448068534
 20
1405.1187353969506
 10
9338.90225502083
 20
1442.5774555215778
 10
9338.775143680847
 20
1443.0069319156853
 10
9327.591348273038
 20
1480.7940886307276
 10
9321.12123327888
 20
1502.6549364318064
 10
9316.30584408092
 20
1518.6805330791506
 10
9304.951516983376
 20
1556.4676897941931
 10
9303.032234162327
 20
1562.855055607804
 10
9293.427890906201
 20
1594.3522878426434
 10
9284.634181006095
 20
1623.1910658353765
 10
9281.836911126844
 20
1632.2349473229199
 10
9270.149354689143
 20
1670.0221040379624
 10
9265.925997726486
 20
1683.6766820724902
 10
9258.32881151994
 20
1707.9027353800254
 10
9246.906608562324
 20
1744.3260755769834
 10
9246.444139160933
 20
1745.7812520419373
 10
9234.435008882154
 20
1783.5684087569805
 10
9227.574937805552
 20
1805.1538670566536
 10
9222.33029913316
 20
1821.444727643917
 10
9210.165196966465
 20
1859.2318843589599
 10
9207.929909524055
 20
1866.1751188449628
 10
9197.847267153797
 20
1897.1059262270617
 10
9187.970447279571
 20
1927.405326112404
 10
9185.472232727498
 20
1934.9776160680085
 10
9173.005670387645
 20
1972.764772783051
 10
9167.69547384381
 20
1988.8604071303043
 10
9160.428372887409
 20
2010.6340401854288
 10
9147.816647411537
 20
2048.4211969004714
 10
9147.103910915992
 20
2050.556692610809
 10
9135.044785871638
 20
2086.287976384194
 10
9126.194678845026
 20
2112.510914153692
 10
9122.223538815722
 20
2124.1522077045265
 10
9109.333382754507
 20
2161.9393644195707
 10
9104.966696359617
 20
2174.740191837446
 10
9096.329624519769
 20
2199.8009928377287
 10
9083.418880309433
 20
2237.2620209986867
 10
9083.280374544049
 20
2237.6599693553444
 10
9070.12856985652
 20
2275.4471260703863
 10
9061.550145420393
 20
2300.094258250162
 10
9056.909282859946
 20
2313.303407625669
 10
9043.633257592961
 20
2351.090564340713
 10
9039.35940406692
 20
2363.2551067935838
 10
9030.252548271359
 20
2388.9441139646083
 10
9016.85685007107
 20
2426.731270679651
 10
9010.955507390776
 20
2443.3780297626977
 10
8347.313305663181
 20
2443.3780297626977
 10
8341.411962982887
 20
2426.731270679651
 10
8328.016264782598
 20
2388.9441139646083
 10
8318.909408987038
 20
2363.2551067935838
 10
8314.635555460996
 20
2351.090564340713
 10
8301.359530194011
 20
2313.303407625669
 10
8296.718667633564
 20
2300.094258250162
 10
8288.140243197437
 20
2275.4471260703863
 10
8274.988438509909
 20
2237.6599693553444
 10
8274.849932744524
 20
2237.2620209986867
 10
8261.939188534188
 20
2199.8009928377287
 10
8253.30211669434
 20
2174.740191837446
 10
8248.93543029945
 20
2161.9393644195707
 10
8236.045274238235
 20
2124.1522077045265
 10
8232.074134208931
 20
2112.510914153692
 10
8223.22402718232
 20
2086.287976384194
 10
8211.164902137965
 20
2050.556692610809
 10
8210.45216564242
 20
2048.4211969004714
 10
8197.840440166548
 20
2010.6340401854288
 10
8190.573339210146
 20
1988.8604071303043
 10
8185.263142666312
 20
1972.764772783051
 10
8172.796580326459
 20
1934.9776160680085
 10
8170.298365774386
 20
1927.405326112404
 10
8160.421545900161
 20
1897.1059262270617
 10
8150.3389035299015
 20
1866.1751188449628
 10
8148.103616087491
 20
1859.2318843589599
 10
8135.938513920797
 20
1821.444727643917
 10
8130.693875248406
 20
1805.1538670566536
 10
8123.833804171803
 20
1783.5684087569805
 10
8111.824673893025
 20
1745.7812520419373
 10
8111.362204491635
 20
1744.3260755769834
 10
8099.940001534019
 20
1707.9027353800254
 10
8092.342815327472
 20
1683.6766820724902
 10
8088.119458364814
 20
1670.0221040379624
 10
8076.431901927114
 20
1632.2349473229199
 10
8073.634632047862
 20
1623.1910658353765
 10
8064.840922147757
 20
1594.3522878426434
 10
8055.2365788916295
 20
1562.855055607804
 10
8053.317296070582
 20
1556.4676897941931
 10
8041.962968973037
 20
1518.6805330791506
 10
8037.147579775077
 20
1502.6549364318064
 10
8030.677464780921
 20
1480.7940886307276
 10
8019.49366937311
 20
1443.0069319156853
 10
8019.366558033127
 20
1442.5774555215778
 10
8008.4513649854225
 20
1405.1187353969506
 10
8001.892436173416
 20
1382.6098271611984
 10
7997.481808565238
 20
1367.2288828597484
 10
7986.64599293679
 20
1329.4417261447059
 10
7984.72413564552
 20
1322.7397366370085
 10
7975.926444078896
 20
1291.550314925261
 10
7967.86057662715
 20
1262.9553432195064
 10
7965.281910978917
 20
1253.6574432116863
 10
7954.802077588204
 20
1215.8702864966456
 10
7951.300677828832
 20
1203.24528221493
 10
7944.413279816223
 20
1177.9760529054058
 10
7935.043356318236
 20
1143.5986661114625
 10
7934.101403160364
 20
1140.0805560700878
 10
7923.984115418892
 20
1102.2933993550453
 10
7919.08752736499
 20
1084.0050848492363
 10
7913.93262391493
 20
1064.3967375304696
 10
7903.99863297976
 20
1026.6095808154287
 10
7903.432104306481
 20
1024.4546052471535
 10
7894.210016053137
 20
988.7118514997957
 10
7888.075998434819
 20
964.9377696226213
 10
7884.500960188826
 20
950.8131510771943
 10
7874.936770541571
 20
913.0259943621517
 10
7873.018118904832
 20
905.4455936431161
 10
7865.493513447441
 20
875.1264177673903
 10
7858.25737266274
 20
845.9695634505465
 10
7856.13064233626
 20
837.226058174719
 10
7846.939466760548
 20
799.4389014596766
 10
7843.792664394824
 20
786.5016321011079
 10
7837.844348195349
 20
761.5378499965929
 10
7829.622896495284
 20
727.0342153644365
 10
7828.830102084763
 20
723.6361954835896
 10
7820.01395395036
 20
685.8490387685482
 10
7815.746969052227
 20
667.5601869266351
 10
7811.268511185387
 20
647.9468674852565
 10
7802.640283324123
 20
610.159710770214
 10
7802.163779850616
 20
608.0728730419839
 10
7794.163903537913
 20
572.2571062481193
 10
7788.872224390909
 20
548.5660466780976
 10
7785.76853401102
 20
534.3541490896985
 10
7777.516318988335
 20
496.56699237465705
 10
7775.871195921974
 20
489.0339211988291
 10
7769.389737660531
 20
458.66376009852735
 10
7763.159585486883
 20
429.4711436284565
 10
7761.34381193631
 20
420.7603270099282
 10
7753.467062520116
 20
382.9731702948857
 10
7750.736281980126
 20
369.872787539672
 10
7745.688965061988
 20
345.0696073806298
 10
7738.600172214771
 20
310.23434560663424
 10
7737.99094628692
 20
307.16598222747615
 10
7730.488277024558
 20
269.3788255124337
 10
7726.750140998175
 20
250.55172186285174
 10
7723.056529068476
 20
231.47520224765532
 10
7715.740147692447
 20
193.68804553261282
 10
7715.185071214813
 20
190.8212237020984
 10
7708.573388816535
 20
155.78448478546326
 10
7703.903843914924
 20
131.03955365872477
 10
7701.485157123621
 20
117.88104366811882
 10
7694.53943934153
 20
80.0938869530764
 10
7692.905338407696
 20
71.2038010019636
 10
7687.713833106174
 20
42.190619059573336
 10
7682.188432357806
 20
11.311433176818673
 10
7680.965703223224
 20
4.287574481251187
  0
LWPOLYLINE
  5
3F
330
17
100
AcDbEntity
  8
SEW
100
AcDbPolyline
 90
210
 70
1
 10
9652.67351980029
 20
0.0
 10
9651.460881866205
 20
6.965890692385734
 10
9645.94584507107
 20
37.787156715042514
 10
9640.76473245642
 20
66.74225821686531
 10
9639.14129824544
 20
75.57431343008415
 10
9632.195580463349
 20
113.36147014512665
 10
9629.787585592243
 20
126.46181231539532
 10
9625.129007703941
 20
151.1486268601683
 10
9618.52831341748
 20
186.1271373892679
 10
9617.984500957558
 20
188.9357835752108
 10
9610.668119581529
 20
226.7229402902533
 10
9606.985788075946
 20
245.7411995261749
 10
9603.259208929836
 20
264.51009700529494
 10
9595.756539667473
 20
302.29725372033744
 10
9595.158881711446
 20
305.3073550664935
 10
9588.081933562022
 20
340.0844104353791
 10
9583.046466467791
 20
364.829358998902
 10
9580.327812449495
 20
377.8715671504216
 10
9572.451063033302
 20
415.6587238654641
 10
9570.64741448879
 20
424.3113731512436
 10
9564.429663675854
 20
453.44588058050573
 10
9557.960597918254
 20
483.7579741406008
 10
9556.328143036086
 20
491.23303729554823
 10
9548.0759280134
 20
529.0201940105899
 10
9544.984888899991
 20
543.1741610448473
 10
9539.706135679126
 20
566.8073507256324
 10
9531.719159577811
 20
602.5653627562147
 10
9531.255829594214
 20
604.5945074406749
 10
9522.62760173295
 20
642.3816641557165
 10
9518.162282095525
 20
661.9374449759761
 10
9513.908706951079
 20
680.1688208707591
 10
9505.092558816676
 20
717.9559775858006
 10
9504.31312859694
 20
721.2967168080304
 10
9496.105310473526
 20
755.7431343008432
 10
9490.170571225864
 20
780.6499369080786
 10
9487.03761266603
 20
793.5302910158857
 10
9477.846437090318
 20
831.3174477309282
 10
9475.733482126112
 20
840.0043191443416
 10
9468.511380625405
 20
869.1046044459689
 10
9461.000733441488
 20
899.3675377252189
 10
9459.096300662093
 20
906.8917611610115
 10
9449.53211101484
 20
944.6789178760539
 10
9445.971197315805
 20
958.7477317491438
 10
9439.851561082467
 20
982.4660745910965
 10
9430.64374589287
 20
1018.1535091321425
 10
9430.09174296764
 20
1020.253231306139
 10
9420.15775203247
 20
1058.0403880211798
 10
9415.017251316494
 20
1077.593949869181
 10
9410.135314122266
 20
1095.8275447362223
 10
9400.018026380794
 20
1133.6147014512649
 10
9399.090585730486
 20
1137.078608586517
 10
9389.735417907737
 20
1171.4018581663072
 10
9382.862621278658
 20
1196.6175163437445
 10
9379.376060722137
 20
1209.1890148813497
 10
9368.896227331425
 20
1246.9761715963905
 10
9366.332230104816
 20
1256.2211816463318
 10
9358.281263167062
 20
1284.763328311433
 10
9349.498284352769
 20
1315.9005906318803
 10
9347.591365815557
 20
1322.5504850264756
 10
9336.755550187108
 20
1360.3376417415182
 10
9332.359656166329
 20
1375.6672063965177
 10
9325.815680507085
 20
1398.1247984565605
 10
9314.915217689304
 20
1435.532967431275
 10
9314.8030493835
 20
1435.9119551716012
 10
9303.61925397569
 20
1473.6991118866438
 10
9297.163841065505
 20
1495.510285142469
 10
9292.363359693783
 20
1511.4862686016863
 10
9281.009032596237
 20
1549.273425316729
 10
9279.10439843874
 20
1555.6120404346404
 10
9269.514902252173
 20
1587.0605820317714
 10
9260.73576195282
 20
1615.8515793396368
 10
9257.953252498965
 20
1624.8477387468122
 10
9246.265696061264
 20
1662.6348954618545
 10
9242.056803751551
 20
1676.242707680913
 10
9234.474265227576
 20
1700.422052176897
 10
9223.066395978747
 20
1736.799684767945
 10
9222.618435340592
 20
1738.2092088919396
 10
9210.609305061815
 20
1775.9963656069822
 10
9203.763410778214
 20
1797.537216121869
 10
9198.533115833117
 20
1813.783522322023
 10
9186.368013666424
 20
1851.5706790370655
 10
9184.146720293764
 20
1858.470445239819
 10
9174.078230698948
 20
1889.3578357521078
 10
9164.215196669205
 20
1919.6149444121318
 10
9161.730918367773
 20
1927.1449924671504
 10
9149.26435602792
 20
1964.932149182193
 10
9143.967712048347
 20
1980.986704613251
 10
9136.714305729976
 20
2002.7193058972337
 10
9124.102580254104
 20
2040.5064626122762
 10
9123.403138574999
 20
2042.6021244939054
 10
9111.357442093848
 20
2078.2936193273185
 10
9102.52034839297
 20
2104.4779985087825
 10
9098.562347152516
 20
2116.0807760423595
 10
9085.6721910913
 20
2153.8679327574037
 10
9081.318213646073
 20
2166.6315042204064
 10
9072.693968016014
 20
2191.6550894724446
 10
9059.795606478112
 20
2229.080188826108
 10
9059.669592559192
 20
2229.442246187487
 10
9046.517787871664
 20
2267.2294029025297
 10
9037.9513990329
 20
2291.8419549608284
 10
9033.322673309383
 20
2305.0165596175702
 10
9020.046648042398
 20
2342.8037163326144
 10
9015.784463454245
 20
2354.9350458338836
 10
9006.689370086247
 20
2380.5908730476554
 10
8993.293671885958
 20
2418.3780297626977
 10
8364.975141167999
 20
2418.3780297626977
 10
8351.57944296771
 20
2380.5908730476554
 10
8342.484349599712
 20
2354.9350458338836
 10
8338.222165011559
 20
2342.8037163326144
 10
8324.946139744574
 20
2305.0165596175702
 10
8320.317414021058
 20
2291.8419549608284
 10
8311.751025182293
 20
2267.2294029025297
 10
8298.599220494765
 20
2229.442246187487
 10
8298.473206575845
 20
2229.080188826108
 10
8285.574845037943
 20
2191.6550894724446
 10
8276.950599407885
 20
2166.6315042204064
 10
8272.596621962657
 20
2153.8679327574037
 10
8259.706465901441
 20
2116.0807760423595
 10
8255.748464660986
 20
2104.4779985087825
 10
8246.91137096011
 20
2078.2936193273185
 10
8234.865674478959
 20
2042.6021244939054
 10
8234.166232799853
 20
2040.5064626122762
 10
8221.554507323981
 20
2002.7193058972337
 10
8214.30110100561
 20
1980.986704613251
 10
8209.004457026038
 20
1964.932149182193
 10
8196.537894686184
 20
1927.1449924671504
 10
8194.053616384752
 20
1919.6149444121318
 10
8184.190582355009
 20
1889.3578357521078
 10
8174.122092760193
 20
1858.470445239819
 10
8171.900799387533
 20
1851.5706790370655
 10
8159.735697220839
 20
1813.783522322023
 10
8154.505402275742
 20
1797.537216121869
 10
8147.6595079921435
 20
1775.9963656069822
 10
8135.650377713365
 20
1738.2092088919396
 10
8135.20241707521
 20
1736.799684767945
 10
8123.79454782638
 20
1700.422052176897
 10
8116.212009302406
 20
1676.242707680913
 10
8112.003116992693
 20
1662.6348954618545
 10
8100.315560554994
 20
1624.8477387468122
 10
8097.533051101139
 20
1615.8515793396368
 10
8088.753910801785
 20
1587.0605820317714
 10
8079.1644146152175
 20
1555.6120404346404
 10
8077.259780457719
 20
1549.273425316729
 10
8065.905453360175
 20
1511.4862686016863
 10
8061.104971988452
 20
1495.510285142469
 10
8054.649559078268
 20
1473.6991118866438
 10
8043.465763670457
 20
1435.9119551716012
 10
8043.353595364653
 20
1435.532967431275
 10
8032.453132546872
 20
1398.1247984565605
 10
8025.909156887628
 20
1375.6672063965177
 10
8021.513262866849
 20
1360.3376417415182
 10
8010.677447238401
 20
1322.5504850264756
 10
8008.770528701189
 20
1315.9005906318803
 10
7999.987549886895
 20
1284.763328311433
 10
7991.936582949143
 20
1256.2211816463318
 10
7989.372585722532
 20
1246.9761715963905
 10
7978.89275233182
 20
1209.1890148813497
 10
7975.4061917753
 20
1196.6175163437445
 10
7968.533395146221
 20
1171.4018581663072
 10
7959.17822732347
 20
1137.078608586517
 10
7958.250786673162
 20
1133.6147014512649
 10
7948.133498931691
 20
1095.8275447362223
 10
7943.251561737463
 20
1077.593949869181
 10
7938.111061021488
 20
1058.0403880211798
 10
7928.177070086318
 20
1020.253231306139
 10
7927.625067161087
 20
1018.1535091321425
 10
7918.417251971489
 20
982.4660745910965
 10
7912.297615738153
 20
958.7477317491438
 10
7908.736702039118
 20
944.6789178760539
 10
7899.172512391863
 20
906.8917611610115
 10
7897.26807961247
 20
899.3675377252189
 10
7889.757432428552
 20
869.1046044459689
 10
7882.535330927846
 20
840.0043191443416
 10
7880.422375963639
 20
831.3174477309282
 10
7871.231200387927
 20
793.5302910158857
 10
7868.098241828093
 20
780.6499369080786
 10
7862.163502580432
 20
755.7431343008432
 10
7853.955684457018
 20
721.2967168080304
 10
7853.176254237283
 20
717.9559775858006
 10
7844.3601061028785
 20
680.1688208707591
 10
7840.106530958433
 20
661.9374449759761
 10
7835.641211321007
 20
642.3816641557165
 10
7827.012983459743
 20
604.5945074406749
 10
7826.549653476145
 20
602.5653627562147
 10
7818.562677374832
 20
566.8073507256324
 10
7813.283924153965
 20
543.1741610448473
 10
7810.192885040557
 20
529.0201940105899
 10
7801.9406700178715
 20
491.23303729554823
 10
7800.308215135702
 20
483.7579741406008
 10
7793.839149378104
 20
453.44588058050573
 10
7787.621398565167
 20
424.3113731512436
 10
7785.817750020656
 20
415.6587238654641
 10
7777.941000604462
 20
377.8715671504216
 10
7775.222346586166
 20
364.829358998902
 10
7770.1868794919355
 20
340.0844104353791
 10
7763.109931342511
 20
305.3073550664935
 10
7762.512273386484
 20
302.29725372033744
 10
7755.00960412412
 20
264.51009700529494
 10
7751.283024978011
 20
245.7411995261749
 10
7747.600693472428
 20
226.7229402902533
 10
7740.284312096399
 20
188.9357835752108
 10
7739.740499636476
 20
186.1271373892679
 10
7733.139805350016
 20
151.1486268601683
 10
7728.481227461715
 20
126.46181231539532
 10
7726.073232590608
 20
113.36147014512665
 10
7719.127514808517
 20
75.57431343008415
 10
7717.504080597537
 20
66.74225821686531
 10
7712.322967982887
 20
37.787156715042514
 10
7706.807931187752
 20
6.965890692385734
 10
7705.5952932536675
 20
0.0
  0
TEXT
  5
40
330
17
100
AcDbEntity
  8
NOTES
100
AcDbText
 10
8529.134406526979
 20
1209.1890148813488
 30
0.0
 40
60.0
  1
PANEL D x8
100
AcDbText
  0
TEXT
  5
41
330
17
100
AcDbEntity
  8
NOTES
100
AcDbText
 10
0.0
 20
-600.0
 30
0.0
 40
120.0
  1
GENERIC STANDARD GORE FIXTURE 1:1 mm
100
AcDbText
  0
ENDSEC
  0
SECTION
  2
OBJECTS
  0
DICTIONARY
  5
A
330
0
100
AcDbDictionary
281
1
  3
ACAD_COLOR
350
B
  3
ACAD_GROUP
350
C
  3
ACAD_LAYOUT
350
D
  3
ACAD_MATERIAL
350
E
  3
ACAD_MLEADERSTYLE
350
F
  3
ACAD_MLINESTYLE
350
10
  3
ACAD_PLOTSETTINGS
350
11
  3
ACAD_PLOTSTYLENAME
350
12
  3
ACAD_SCALELIST
350
14
  3
ACAD_TABLESTYLE
350
15
  3
ACAD_VISUALSTYLE
350
16
  3
EZDXF_META
350
2D
  0
DICTIONARY
  5
B
330
A
100
AcDbDictionary
281
1
  0
DICTIONARY
  5
C
330
A
100
AcDbDictionary
281
1
  0
DICTIONARY
  5
D
330
A
100
AcDbDictionary
281
1
  3
Model
350
1A
  3
Layout1
350
1E
  0
DICTIONARY
  5
E
330
A
100
AcDbDictionary
281
1
  3
ByBlock
350
1F
  3
ByLayer
350
20
  3
Global
350
21
  0
DICTIONARY
  5
F
330
A
100
AcDbDictionary
281
1
  3
Standard
350
2C
  0
DICTIONARY
  5
10
330
A
100
AcDbDictionary
281
1
  3
Standard
350
22
  0
DICTIONARY
  5
11
330
A
100
AcDbDictionary
281
1
  0
ACDBDICTIONARYWDFLT
  5
12
330
A
100
AcDbDictionary
281
1
  3
Normal
350
13
100
AcDbDictionaryWithDefault
340
13
  0
ACDBPLACEHOLDER
  5
13
330
12
  0
DICTIONARY
  5
14
330
A
100
AcDbDictionary
281
1
  0
DICTIONARY
  5
15
330
A
100
AcDbDictionary
281
1
  0
DICTIONARY
  5
16
330
A
100
AcDbDictionary
281
1
  0
LAYOUT
  5
1A
330
D
100
AcDbPlotSettings
  1

  4
A3
  6

 40
7.5
 41
20.0
 42
7.5
 43
20.0
 44
420.0
 45
297.0
 46
0.0
 47
0.0
 48
0.0
 49
0.0
140
0.0
141
0.0
142
1.0
143
1.0
 70
1024
 72
1
 73
0
 74
5
  7

 75
16
 76
0
 77
2
 78
300
147
1.0
148
0.0
149
0.0
100
AcDbLayout
  1
Model
 70
1
 71
0
 10
0.0
 20
0.0
 11
420.0
 21
297.0
 12
0.0
 22
0.0
 32
0.0
 14
1e+20
 24
1e+20
 34
1e+20
 15
-1e+20
 25
-1e+20
 35
-1e+20
146
0.0
 13
0.0
 23
0.0
 33
0.0
 16
1.0
 26
0.0
 36
0.0
 17
0.0
 27
1.0
 37
0.0
 76
1
330
17
  0
LAYOUT
  5
1E
330
D
100
AcDbPlotSettings
  1

  4
A3
  6

 40
7.5
 41
20.0
 42
7.5
 43
20.0
 44
420.0
 45
297.0
 46
0.0
 47
0.0
 48
0.0
 49
0.0
140
0.0
141
0.0
142
1.0
143
1.0
 70
0
 72
1
 73
0
 74
5
  7

 75
16
 76
0
 77
2
 78
300
147
1.0
148
0.0
149
0.0
100
AcDbLayout
  1
Layout1
 70
1
 71
1
 10
0.0
 20
0.0
 11
420.0
 21
297.0
 12
0.0
 22
0.0
 32
0.0
 14
1e+20
 24
1e+20
 34
1e+20
 15
-1e+20
 25
-1e+20
 35
-1e+20
146
0.0
 13
0.0
 23
0.0
 33
0.0
 16
1.0
 26
0.0
 36
0.0
 17
0.0
 27
1.0
 37
0.0
 76
1
330
1B
  0
MATERIAL
  5
1F
102
{ACAD_REACTORS
330
E
102
}
330
E
100
AcDbMaterial
  1
ByBlock
  2

 70
0
 40
1.0
 71
1
 41
1.0
 91
-1023410177
 42
1.0
 72
1
  3

 73
1
 74
1
 75
1
 44
0.5
 73
0
 45
1.0
 46
1.0
 77
1
  4

 78
1
 79
1
170
1
 48
1.0
171
1
  6

172
1
173
1
174
1
140
1.0
141
1.0
175
1
  7

176
1
177
1
178
1
143
1.0
179
1
  8

270
1
271
1
272
1
145
1.0
146
1.0
273
1
  9

274
1
275
1
276
1
 42
1.0
 72
1
  3

 73
1
 74
1
 75
1
 94
63
  0
MATERIAL
  5
20
102
{ACAD_REACTORS
330
E
102
}
330
E
100
AcDbMaterial
  1
ByLayer
  2

 70
0
 40
1.0
 71
1
 41
1.0
 91
-1023410177
 42
1.0
 72
1
  3

 73
1
 74
1
 75
1
 44
0.5
 73
0
 45
1.0
 46
1.0
 77
1
  4

 78
1
 79
1
170
1
 48
1.0
171
1
  6

172
1
173
1
174
1
140
1.0
141
1.0
175
1
  7

176
1
177
1
178
1
143
1.0
179
1
  8

270
1
271
1
272
1
145
1.0
146
1.0
273
1
  9

274
1
275
1
276
1
 42
1.0
 72
1
  3

 73
1
 74
1
 75
1
 94
63
  0
MATERIAL
  5
21
102
{ACAD_REACTORS
330
E
102
}
330
E
100
AcDbMaterial
  1
Global
  2

 70
0
 40
1.0
 71
1
 41
1.0
 91
-1023410177
 42
1.0
 72
1
  3

 73
1
 74
1
 75
1
 44
0.5
 73
0
 45
1.0
 46
1.0
 77
1
  4

 78
1
 79
1
170
1
 48
1.0
171
1
  6

172
1
173
1
174
1
140
1.0
141
1.0
175
1
  7

176
1
177
1
178
1
143
1.0
179
1
  8

270
1
271
1
272
1
145
1.0
146
1.0
273
1
  9

274
1
275
1
276
1
 42
1.0
 72
1
  3

 73
1
 74
1
 75
1
 94
63
  0
MLINESTYLE
  5
22
102
{ACAD_REACTORS
330
10
102
}
330
10
100
AcDbMlineStyle
  2
Standard
 70
0
  3

 62
256
 51
90.0
 52
90.0
 71
2
 49
0.5
 62
256
  6
BYLAYER
 49
-0.5
 62
256
  6
BYLAYER
  0
MLEADERSTYLE
  5
2C
102
{ACAD_REACTORS
330
F
102
}
330
F
100
AcDbMLeaderStyle
179
2
170
2
171
1
172
0
 90
2
 40
0.0
 41
0.0
173
1
 91
-1056964608
 92
-2
290
1
 42
2.0
291
1
 43
8.0
  3
Standard
 44
4.0
300

342
29
174
1
175
1
176
0
178
1
 93
-1056964608
 45
4.0
292
0
297
0
 46
4.0
 94
-1056964608
 47
1.0
 49
1.0
140
1.0
294
1
141
0.0
177
0
142
1.0
295
0
296
0
143
3.75
271
0
272
9
273
9
  0
DICTIONARY
  5
2D
330
A
100
AcDbDictionary
280
1
281
1
  3
CREATED_BY_EZDXF
350
2E
  3
WRITTEN_BY_EZDXF
350
44
  0
DICTIONARYVAR
  5
2E
330
2D
100
DictionaryVariables
280
0
  1
1.4.4 @ 2026-09-28T03:21:27.151502+00:00
  0
DICTIONARYVAR
  5
44
330
2D
100
DictionaryVariables
280
0
  1
1.4.4 @ 2026-09-28T03:21:27.162048+00:00
  0
ENDSEC
  0
EOF
